<?xml version="1.0" standalone="no"?>
<!DOCTYPE svg PUBLIC "-//W3C//DTD SVG 1.1//EN" "http://www.w3.org/Graphics/SVG/1.1/DTD/svg11.dtd" >
<svg xmlns="http://www.w3.org/2000/svg" xmlns:xlink="http://www.w3.org/1999/xlink" version="1.1">
<metadata>
Created by FontForge 20170731 at Mon May 14 09:48:45 2018
 By Aleksey,,,
Copyright (c) 2018 by Set Sail Studios LTD. All rights reserved.
</metadata>
<defs>
<font id="" horiz-adv-x="1583" >
  <font-face 
    font-family=""
    font-weight="400"
    font-stretch="normal"
    units-per-em="2048"
    panose-1="0 0 0 0 0 0 0 0 0 0"
    ascent="1638"
    descent="-410"
    x-height="756"
    cap-height="1324"
    bbox="-570.059 -803.982 2222.22 1799.36"
    underline-thickness="0"
    underline-position="0"
    unicode-range="U+000D-20AC"
  />
<missing-glyph horiz-adv-x="591" 
 />
    <glyph glyph-name=".notdef" horiz-adv-x="591" 
 />
    <glyph glyph-name="glyph1" horiz-adv-x="0" 
 />
    <glyph glyph-name="uni000D" unicode="&#xd;" horiz-adv-x="591" 
 />
    <glyph glyph-name="glyph3" horiz-adv-x="0" 
 />
    <glyph glyph-name="glyph3" horiz-adv-x="0" 
 />
    <glyph glyph-name="space" unicode=" " horiz-adv-x="591" 
 />
    <glyph glyph-name="exclam" unicode="!" horiz-adv-x="329" 
d="M285 1063q-18 -125 -50 -246t-45 -248q-2 -25 0.5 -57.5t12.5 -56.5q2 -8 -6.5 -10.5t-19.5 1t-23.5 7.5t-14.5 8q-35 37 -42 86t-7 96q0 125 22.5 252t57.5 256q8 33 15.5 63.5t13.5 65.5q2 10 11 14t21.5 3t23.5 -6t15 -11q29 -47 26 -107.5t-11 -109.5zM135 260h-2h2
q12 -2 21.5 -11t13.5 -20.5t1 -21.5t-15 -17q-12 -4 -25.5 5.5t-20 22.5t-3 26.5t25.5 15.5h2z" />
    <glyph glyph-name="quotedbl" unicode="&#x22;" horiz-adv-x="561" 
d="M213 864q-29 33 -29 88.5t11 94.5q12 41 25 79.5t34 77.5q0 6 12.5 8t27.5 0t27.5 -10t14.5 -24q-25 -66 -45.5 -138.5t-42.5 -140.5q4 -10 -1 -19.5t-11 -13.5q-6 0 -11.5 -2t-11.5 0zM428 1194q-2 -41 -15.5 -80t-23.5 -80l-9 -22.5t-11.5 -23.5t-11.5 -16t-9 -1
q-4 61 14.5 119.5t40.5 107.5q6 10 13.5 7t11.5 -11z" />
    <glyph glyph-name="numbersign" unicode="#" horiz-adv-x="704" 
d="M195 324q-8 20 -12.5 30.5t-9.5 13.5t-15.5 1t-30.5 -2q-4 0 -14.5 4t-19.5 10t-11 11t10 9q6 2 18.5 3.5t24.5 4.5t22.5 8t10.5 13q2 6 4 21.5t2 31t-2 28.5t-8 17q-16 10 -49 1t-52 -11q-14 0 -12 5t11.5 13.5t20.5 15.5t13 7q16 8 40 16.5t34 22.5q10 12 10 33.5
t4 38.5q4 27 12.5 53.5t22.5 48.5q10 16 32.5 15t33.5 -13q16 -16 9 -44t-9 -48q-4 -31 7 -34t38 5q31 10 35 29.5t8 48.5q4 33 11 54.5t48 23.5q31 2 32 -16.5t1 -40.5v-7q-2 -12 -3 -32.5t11 -24.5q6 -2 19.5 -2t29 -1t26.5 -4t11 -11q0 -4 -8 -9.5t-19.5 -10.5t-22.5 -9
t-13 -6q-25 -16 -37.5 -30.5t-16.5 -43.5q-4 -16 2.5 -26.5t24.5 -6.5q33 10 66.5 11.5t66.5 -0.5q10 -2 3 -5.5t-17 -7.5q-12 -6 -33 -12q-29 -6 -54.5 -16.5t-51.5 -22.5q-14 -6 -19.5 -28.5t-6.5 -48t1 -51t2 -38.5q0 -12 2 -40.5t1 -50t-8 -26t-28 32.5q-27 51 -35 107
q0 4 -1 17t-2 28.5t-3 29t-6 13.5q-16 4 -24.5 -23.5t-18.5 -59.5t-25.5 -54.5t-41.5 -8.5q-16 8 -25.5 21t-15.5 29zM264 502q0 -27 10.5 -31t23.5 4t25.5 24.5t16.5 32.5q6 29 -3 34t-36 -5q-23 -6 -28 -20.5t-9 -36.5v-2zM279 416q-18 -8 -20.5 -22.5t-4.5 -33.5
q2 -25 6 -26.5t10 6.5t12.5 23.5t10.5 25.5q4 12 6.5 24.5t-20.5 2.5zM465 745v7v-7zM264 504q2 4 1 0t-1 -2v2z" />
    <glyph glyph-name="dollar" unicode="$" horiz-adv-x="688" 
d="M399 1061v6v-6zM287 131q-4 25 -16.5 35t-31 11t-40 -1t-41.5 -2q-10 0 -24.5 5t-29 12.5t-28 14.5t-21.5 13q-20 12 -16 20.5t18.5 13.5t31.5 8t24 3q37 8 78.5 10t76.5 19q4 6 6 23.5t3.5 39t1.5 40v28.5q0 12 1 27.5t0 31t-8.5 26.5t-21.5 17q-31 10 -52.5 23.5
t-43.5 36.5q-27 27 -33 57.5t1 60t27.5 56t45.5 49.5q23 20 48 37.5t50 34.5q10 6 14 21.5t5 31.5t1 33.5t2 27.5q4 35 7.5 71t9.5 71q2 8 7 27.5t12 32.5t18.5 16.5t25.5 -21.5q12 -23 8 -60.5t-4 -64.5v-6q-2 -33 -4 -64.5t27 -50.5q20 -12 41.5 -29.5t46.5 -19.5
q27 0 53.5 -12.5t36.5 -38.5q6 -16 -4 -30.5t-25.5 -26t-33 -19.5t-25.5 -12t-23.5 -13.5t-33 -15.5t-31.5 -6t-23 14q-2 4 0 17.5t4.5 27t0 21.5t-12.5 4q-12 -6 -18 -20.5t-8 -31t-2 -33.5t-3 -30q-2 -16 -4 -37.5t-3 -43t2 -37t12 -15.5q61 -6 132.5 -31.5t110.5 -78.5
q47 -66 18.5 -120.5t-93.5 -82.5q-35 -16 -70 -27.5t-72 -21.5q-35 -10 -45 -17.5t-6 -42.5q8 -78 16.5 -154.5t30.5 -152.5q4 -18 -2 -20.5t-15 4t-19.5 16.5t-12.5 16q-16 31 -23.5 66t-13.5 70q-6 37 -10 73.5t-8 75.5zM344 399q2 -6 1 -22.5t-1 -31.5t4 -25.5t17 -4.5
q37 14 91 29.5t85 44.5q18 16 2.5 32.5t-42 29t-54 21.5t-35.5 11q-29 8 -42.5 6t-18.5 -13t-6 -30.5t-1 -46.5zM258 592q12 -4 17.5 7t7.5 25.5t1 30t-1 21.5q0 4 1 15t0 21.5t-6.5 16.5t-15.5 -2q-8 -6 -21.5 -16.5t-26.5 -22.5t-20.5 -25.5t-3.5 -25.5q6 -20 28 -30.5
t40 -14.5z" />
    <glyph glyph-name="percent" unicode="%" horiz-adv-x="790" 
d="M725 979q12 -10 10 -22.5t-10 -24.5t-19.5 -23.5t-17.5 -19.5q-92 -111 -175 -224.5t-167 -232.5q-41 -57 -80 -116.5t-71 -125.5q-16 -33 -34 -62.5t-42 -57.5q-10 -12 -20.5 -6t-17.5 19t-12.5 27.5t-5.5 20.5q2 59 34 127t69 113q47 55 87 114.5t85 114.5
q43 53 87 104.5t91 98.5q29 31 58.5 60.5l58.5 58.5q27 27 12.5 33t-43.5 1q-16 -4 -54 -11t-79 -17t-74 -24.5t-35 -33.5q-10 -55 -54 -103t-105 -52q-29 0 -50.5 13t-34 33.5t-12.5 45t19 47.5q27 33 51.5 33t58.5 -17q16 -6 14.5 -13t-11 -13t-20.5 -10.5t-15 -6.5
q-6 -4 -12.5 -15t-9.5 -22.5t-1 -18.5t12 -1q8 4 23.5 13.5t30 20.5t25 23.5t5.5 24.5q0 2 -10 12t-19 22.5t-14.5 22t5.5 6.5q35 -8 66.5 7.5t62.5 25.5q59 25 121.5 39t127.5 23q23 4 58 -5.5t53 -25.5zM451 397q33 -2 70.5 -11t62.5 -32q18 -14 12 -33.5t-22.5 -38
t-37 -32.5t-30.5 -21q-55 -25 -83 -1t-34 63t7.5 73.5t43.5 32.5h11zM506 342q2 -2 0 -2t-4 2h4h-4q-12 0 -28.5 -8t-29 -18.5t-16.5 -23.5t10 -26q8 -6 26.5 2t34 22.5t20.5 30t-13 21.5zM451 397h-11h11z" />
    <glyph glyph-name="ampersand" unicode="&#x26;" horiz-adv-x="1443" 
d="M1120 489q-18 -10 -38.5 -19t-37.5 -26q-16 -23 -24 -55.5t-19 -58.5q-43 -100 -98 -184.5t-133 -161.5q-35 -35 -79 -70t-93 -59.5t-102.5 -36t-102.5 5.5q-57 18 -74.5 65.5t-12.5 104.5t25.5 115.5t39.5 95.5q27 51 56.5 97t59.5 93q29 47 66 87t59 89l-12 -5
t-28.5 -11t-32 -12t-19.5 -8q-35 -16 -67.5 -31t-65.5 -33q-31 -16 -63.5 -25.5t-65.5 -7.5t-62.5 17.5t-52.5 48.5q-18 27 -18 54.5t11 55t27.5 52t33.5 47.5q43 61 94 118.5t104 110.5q117 113 242 210t278 153q23 8 58 1.5t67.5 -19.5t58 -34.5t31.5 -44.5
q8 -33 -4 -67.5t-34.5 -67.5t-49 -62.5t-45.5 -49.5q-12 -12 -28.5 -42t-37 -52.5t-41 -27.5t-40.5 31q-16 31 -3 57.5t27 55.5q23 41 44.5 80t39.5 82q2 6 5.5 19.5t5.5 28.5t2 27.5t-6 16.5q-8 6 -24.5 2t-33 -12t-32 -18.5t-23.5 -14.5q-68 -37 -125 -83t-115 -99
q-53 -49 -101 -101.5t-89 -111.5q-18 -27 -41 -59.5t-43.5 -67.5t-33.5 -71t-15 -69q0 -10 13 -7t30.5 10.5t33 15.5t19.5 10q37 16 73 34.5t70 37.5q31 16 67 38.5t74 38t75.5 18.5t72.5 -19q8 -4 5 -11.5t-10 -15.5t-15.5 -14t-10.5 -9q-20 -23 -35.5 -45t-29.5 -49
q-23 -45 -53.5 -85t-59.5 -81q-61 -94 -104 -197.5t-62 -213.5q-4 -20 -9 -46t-2 -45.5t16.5 -26.5t46.5 9q45 23 81.5 57.5t71.5 71.5q39 43 77 86t75 90q10 12 31.5 38t43 55.5t36 56t8.5 41.5l-5 -4q2 2 -2 1t2 -1q-18 -2 -40.5 -14.5t-46 -25t-47 -17.5t-44.5 12
q-20 14 -12 29.5t28.5 28.5t43 24.5t32.5 17.5q45 29 90.5 55.5t92.5 55.5q18 10 26 19t31 13q27 6 52.5 19.5t49.5 23.5q45 18 102.5 39t106.5 8q4 -2 15.5 -7t22.5 -11t15.5 -14.5t-4.5 -14.5q-16 -10 -45.5 -15t-48.5 -13q-53 -23 -106.5 -45.5t-106.5 -49.5z" />
    <glyph glyph-name="quotesingle" unicode="'" horiz-adv-x="186" 
d="M55 985q-18 -10 -21 1t1 28.5t11 34t9 20.5q8 27 14.5 60.5t34.5 44.5q18 6 26.5 -1.5t11.5 -18.5t2 -25.5t-3 -22.5q-8 -33 -30.5 -70t-55.5 -51z" />
    <glyph glyph-name="parenleft" unicode="(" horiz-adv-x="432" 
d="M295 1085q-43 -92 -79 -190t-52 -199q-16 -104 -22.5 -203.5t-6.5 -203.5q0 -45 7.5 -97.5t22.5 -104.5t39.5 -99t55.5 -80q20 -23 20.5 -31t-11 -8t-30 5t-32.5 11q-45 16 -71.5 54t-43.5 79q-51 135 -60 291t16.5 312.5t80.5 301t135 259.5q4 6 18.5 26.5t32 39
t36 24.5t28.5 -17q10 -18 -1 -30.5t-22 -26.5q-20 -25 -33.5 -54.5t-27.5 -58.5z" />
    <glyph glyph-name="parenright" unicode=")" horiz-adv-x="413" 
d="M236 1137q61 -76 91.5 -175.5t36 -210t-13 -227t-53.5 -227.5t-85 -210t-110 -175q-29 -33 -57.5 -65.5t-56.5 -65.5q-12 -14 -17.5 -12t-7.5 11t0 20.5t4 17.5q10 27 26.5 49t33.5 45q70 92 115.5 194.5t76.5 212.5q25 94 39 198t10 206t-30.5 199.5t-83.5 181.5
q-6 8 -24.5 24.5t-36 34t-25 32.5t11.5 19q20 6 42.5 1t43 -17t39.5 -28.5t31 -32.5z" />
    <glyph glyph-name="asterisk" unicode="*" horiz-adv-x="479" 
d="M150 1040v2v-2zM268 1071q-12 -2 -23.5 -20.5t-21.5 -38t-21.5 -33.5t-25.5 -8q-8 4 -20.5 11t-16.5 17q-2 4 2 23.5t9 17.5v2q6 20 -6.5 30.5t-22.5 17t-8 12.5t39 18q12 4 37.5 9.5t33.5 19.5q6 14 -4 37.5t-10 40.5q-2 20 8 28.5t22.5 7.5t23.5 -10.5t13 -25.5v-15.5
t1.5 -19.5t5.5 -16.5t14 -6.5q2 0 19.5 2.5t35 2.5t29.5 -4.5t4 -16.5q-10 -16 -24.5 -26.5t-24.5 -26.5q-6 -8 9 -24.5t20 -24.5q10 -23 -3.5 -22t-34 10.5t-29.5 14.5z" />
    <glyph glyph-name="plus" unicode="+" horiz-adv-x="647" 
d="M430 506q-14 -4 -41 -8t-31 -25q-4 -29 -9 -57.5t-3 -57.5q0 -31 -11 -47t-27.5 -18t-33 11t-24.5 42q-6 25 -7 48.5t-5.5 42t-17.5 27.5t-46 7h-43q-16 0 -26.5 2t-0.5 10q20 16 46 27.5t49 21.5q25 10 35 32t13 49.5t3 56t6 51.5q6 18 26.5 32.5t44 17.5t40 -7
t14.5 -39q-4 -29 -5 -55.5t-5 -55.5q-4 -18 1 -27t15 -12.5t23.5 -2.5t27.5 1q8 0 38 -1t61.5 -4t58.5 -9t27 -16q0 2 -28 -3t-62.5 -12.5t-65.5 -13.5t-37 -8z" />
    <glyph glyph-name="comma" unicode="," horiz-adv-x="335" 
d="M35 217q10 20 30.5 43t41 47.5t36 50t17.5 54.5q0 16 -9.5 21t-9.5 22v2q18 4 39 1t37 -20q20 -23 10 -61.5t-39.5 -74.5t-70.5 -61.5t-82 -23.5z" />
    <glyph glyph-name="hyphen" unicode="-" horiz-adv-x="704" 
d="M518 543q0 -10 -15.5 -17.5t-36 -13.5t-40.5 -10t-27 -6q-51 -14 -104 -30.5t-107 -16.5q-16 2 -28.5 6t-22.5 18q-12 16 -12 25.5t8 13.5t20.5 7t24.5 7q121 41 250 39h20.5t30 -1t26.5 -6t13 -15z" />
    <glyph glyph-name="period" unicode="." horiz-adv-x="305" 
d="M174 307q-23 -12 -42 -7t-29.5 20.5t-9.5 36t24 34.5q16 8 32.5 3t27.5 -18.5t12 -32t-15 -36.5z" />
    <glyph glyph-name="slash" unicode="/" horiz-adv-x="686" 
d="M698 1423q20 4 24.5 -18.5t-0.5 -52t-14.5 -57t-11.5 -33.5q-90 -209 -183 -416t-165 -424q-31 -94 -64.5 -190.5t-70.5 -188.5q-18 -43 -22.5 -89t-16.5 -89q-2 -8 -9 -4t-15.5 13t-15.5 18.5t-7 11.5q-10 20 -12 41.5t-2 44.5v6q4 109 42 214t74 206q39 106 81 209.5
t89 208.5q49 104 102.5 205.5t106.5 205.5l49 98q2 6 6.5 18.5t9.5 26t11 23.5t14 12zM113 -10v6v-6z" />
    <glyph glyph-name="zero" unicode="0" horiz-adv-x="575" 
d="M152 373v6v-6zM180 207q-70 14 -104.5 57t-42.5 100.5t5 119t40 110.5q16 29 32.5 56.5t36.5 51.5q10 16 21.5 31t21.5 29q8 10 3 21.5t2 17.5q18 16 40.5 26.5t38.5 30.5q4 6 16.5 7t26 1t23.5 -2l10 -2q20 -2 47 -5t31 -32q-4 -16 -12 -30q-4 -12 9 -21.5t21 -17.5
q43 -49 47.5 -107.5t-6.5 -118.5q-8 -47 -35.5 -107.5t-68.5 -112.5t-93.5 -83.5t-109.5 -19.5zM152 373q2 -39 18 -60.5t38.5 -26.5t49.5 5t51 35q27 25 53.5 58.5t47 70.5t31 76.5t3.5 78.5q-12 76 -65 125q-16 14 -31.5 12t-28 -13t-23.5 -28.5t-20 -29.5
q-43 -63 -82.5 -141t-41.5 -156v-6z" />
    <glyph glyph-name="one" unicode="1" horiz-adv-x="516" 
d="M375 272q-29 -12 -54.5 -22t-44 -24.5t-28.5 -34t-6 -52.5q-14 12 -20.5 22.5t-12.5 16.5t-16.5 5t-30.5 -11q-37 -18 -73 -36.5t-77 -33.5q-2 0 -20.5 -3t-36.5 -3t-29.5 4t0.5 17q25 29 66 48t76 36q10 4 31.5 11t43 16.5t39 19.5t19.5 22q6 39 5 78t3 78q0 8 6 35.5
t12 65.5t14.5 80t14.5 77t8 58.5t0 23.5q-6 2 -27.5 -24.5t-45 -61.5t-43 -66.5t-25.5 -40.5q-12 -16 -24.5 -32.5t-35.5 -26.5q-10 -4 -25 -7t-27.5 -2t-17.5 8t9 24q41 47 76 98t69 102q14 20 32 48t39.5 54.5t45 47t51.5 24.5q33 6 47.5 -14t15.5 -50t-4 -60.5t-9 -45.5
q-20 -72 -42 -141.5t-40 -140.5q-8 -33 -14.5 -65t-16.5 -64q-10 -37 0 -45.5t45 4.5q61 23 134 37t138 6q-4 -6 -30.5 -15.5t-59.5 -17.5t-63.5 -15.5t-40.5 -11.5zM246 137q2 -4 -1 -2t-5 2h6z" />
    <glyph glyph-name="two" unicode="2" horiz-adv-x="628" 
d="M485 236q-72 -2 -141.5 -22.5t-134.5 -49.5q-20 -10 -49 -28.5t-60.5 -34t-61.5 -21.5t-50 12q-18 16 -4 50t41.5 69t57.5 66.5t40 44.5q51 63 100 126.5t96 129.5q43 61 86.5 126.5t69.5 137.5q8 23 2 30t-18.5 4.5t-27.5 -9.5t-28 -13q-31 -20 -58.5 -44t-55.5 -48
q-55 -51 -108.5 -102.5t-106.5 -104.5q-10 -12 -13.5 -2t-2.5 25.5t4 31.5l4 17q12 35 30.5 63.5t40.5 54.5q18 23 52 58t74 67.5t86 61.5t90 39t83 -1.5t68 -54.5q16 -25 8 -58.5t-27.5 -67t-42 -64.5t-34.5 -51q-43 -70 -91.5 -135.5t-95.5 -130.5q-23 -29 -49.5 -54.5
t-52.5 -54.5l-11 -13q-10 -12 -19 -24t-14 -22.5t5 -6.5q66 23 126 46.5t130 31.5q20 2 58 1t72 -10t56.5 -29.5t12.5 -57.5q-6 -18 -11.5 -21.5t-9.5 2t-9 14.5t-9 13q-16 16 -45 15.5t-52 -2.5z" />
    <glyph glyph-name="three" unicode="3" horiz-adv-x="587" 
d="M524 944q45 -25 43 -54.5t-29.5 -63t-71.5 -66.5t-85 -62.5t-70.5 -53t-25.5 -36.5q33 -6 66.5 -6t65.5 -6t60.5 -20.5t52.5 -47.5q20 -27 23.5 -59.5t-4.5 -66t-23.5 -64.5t-31.5 -55q-39 -55 -96.5 -102.5t-123.5 -67.5q-33 -10 -69.5 -10.5t-69.5 12.5q-6 2 -19.5 10
t-23.5 18.5t-14 21.5t10 19q8 4 26.5 0t30.5 -2q14 4 28.5 6t29.5 11q33 10 60.5 27.5t53.5 39.5q23 16 48.5 40t49 50.5t39 55t19.5 59.5q4 39 -18.5 57.5t-55 22.5t-68.5 -1t-61 -11q-12 -2 -29.5 -9.5t-36 -13.5t-34.5 -10t-29 2q-23 10 -32 33.5t10 42.5q53 51 115.5 94
t117.5 92q27 23 53.5 46.5t49.5 49.5q14 16 14 23.5t-9 9.5t-22.5 -2t-25.5 -8q-70 -25 -139.5 -54.5t-129.5 -76.5q-14 -10 -23 -21.5t-20.5 -19.5t-24 -12.5t-32.5 0.5q-35 6 -30 30.5t22 40.5q37 39 98.5 80t130 70.5t138 38t122.5 -20.5z" />
    <glyph glyph-name="four" unicode="4" horiz-adv-x="626" 
d="M420 305v6v-6zM559 492q-25 -16 -33 -38t-14 -48q-14 -59 -14 -126t-4 -128q0 -6 2 -31t2 -47.5t-6.5 -32.5t-24.5 12q-18 23 -27.5 54.5t-13.5 66.5t-4 68.5t-2 62.5v6q2 16 4 45t-8 39q-6 4 -17.5 3t-24 -5t-22.5 -8t-16 -6q-53 -12 -103.5 -8t-97.5 32
q-49 33 -67.5 90.5t-18.5 122t12.5 128t22.5 110.5q4 18 11 43t18.5 42t29 19.5t41.5 -24.5q18 -20 23.5 -47t4.5 -54.5t-6 -56t-11 -51.5q-12 -53 -23.5 -110.5t4.5 -112.5q10 -35 37 -43t58.5 -2t63.5 19t56 22q18 6 27.5 14t12.5 18.5t4 24.5t3 33q4 35 8.5 68.5
t10.5 68.5q2 14 4 47t7 66.5t13 62.5t25 35q37 18 51 -4.5t14 -66.5t-8 -100t-17 -107.5t-12.5 -88.5t7.5 -39q18 -4 31.5 -12t-13.5 -26z" />
    <glyph glyph-name="five" unicode="5" horiz-adv-x="782" 
d="M303 231q66 27 123 72t98 105q16 23 29.5 53.5t3.5 56.5q-14 35 -51 38t-66 -11q-33 -16 -66.5 -30.5t-66.5 -31.5q-33 -18 -67.5 -36.5t-73.5 -14.5q-45 4 -64.5 28.5t-22.5 58.5t5 71t18 65q12 31 17.5 47.5t-17.5 45.5q-6 8 -10 20t-3 22.5t8 16.5t24 0
q33 -10 53.5 10.5t38.5 45t40.5 43t57.5 3.5q12 -4 21.5 -11t18.5 -13t19.5 -9.5t22.5 1.5q37 10 74 22t76 23q31 8 66.5 17t72.5 15.5t73 5t66 -11.5q20 -6 26.5 -12t4.5 -11t-12.5 -9.5t-24.5 -6.5q-35 -8 -68.5 -17t-66.5 -22q-74 -25 -145.5 -61.5t-143.5 -67.5
q-31 -14 -64.5 -23t-60.5 -28q-25 -16 -37 -46t-24 -54q-14 -25 -14.5 -34t9 -10t24 5t28.5 12q41 20 82 35.5t86 26.5q27 6 63.5 6t71.5 -9.5t62.5 -30t35.5 -52.5q8 -31 -1 -62t-26.5 -59.5t-40 -53t-42.5 -45.5q-35 -37 -75 -70.5t-83 -60t-91 -45t-101 -20.5
q-27 0 -54.5 6t-50.5 18q-4 2 -19.5 12.5t-28.5 23t-18.5 24.5t7.5 20q25 -8 47 -14q18 -4 34.5 -8t20.5 -4q88 -5 172 30z" />
    <glyph glyph-name="six" unicode="6" horiz-adv-x="606" 
d="M8 319q0 -8 0 -2.5v11.5v6.5t0 -15.5zM258 137q-51 -16 -99 -12t-83 28.5t-54.5 66.5t-13.5 99q4 96 43 185.5t86 171.5q45 80 106.5 164t135.5 143q12 10 31.5 23.5t40.5 9.5q16 -4 23 -23.5t1 -36.5q-14 -41 -31.5 -75.5t-46.5 -67.5q-33 -39 -62.5 -79t-58.5 -81
q-12 -20 -25 -38.5t-26 -41.5q0 -2 -7 -14t-13 -25.5t-8 -23.5t6 -6q53 25 108.5 48t116.5 19q45 -2 81 -19t54.5 -45t16.5 -63.5t-29 -78.5q-49 -76 -128 -137.5t-165 -90.5zM115 272q0 -51 27.5 -66.5t69.5 -7t92 36t94 62.5t76 73t38 66q8 35 -19.5 45.5t-67.5 9
t-78 -10.5t-50 -13q-31 -12 -61.5 -29.5t-57 -40t-44 -51.5t-19.5 -63v-2v-9zM115 272v11v-2v-9z" />
    <glyph glyph-name="seven" unicode="7" horiz-adv-x="585" 
d="M494 895h-5h5zM596 809q-8 -41 -42 -78t-60 -67q-66 -78 -125.5 -161t-114.5 -169q-29 -41 -52.5 -84t-45.5 -88q-4 -4 -15.5 -26.5t-24 -48.5t-21.5 -46.5t-7 -20.5q-27 2 -33 26t1 58.5t23.5 75.5t35 78t33 64.5t20.5 35.5q53 96 109.5 192.5t125.5 182.5q2 2 9.5 10.5
t14.5 17.5t12 18t3 14q-2 4 -12 4t-21.5 -2t-21.5 -5.5t-14 -3.5q-53 -10 -105.5 -19t-105.5 -15q-41 -4 -84 2t-80 30q-20 14 -14 22.5t22.5 12.5t36.5 6t29 4q104 18 208.5 38t208.5 28h5q18 0 38.5 -4t36 -14.5t23.5 -26.5t4 -41z" />
    <glyph glyph-name="eight" unicode="8" horiz-adv-x="567" 
d="M381 786q-4 -2 -6 -2t-6 -2zM551 922q8 8 11 5t3 -11.5t-1 -16.5l-1 -8q2 -33 -24.5 -54.5t-44.5 -41.5q-29 -35 -60 -69t-61 -69q-18 -20 -30.5 -33.5t-15.5 -23.5t7 -18.5t39 -18.5q41 -14 74.5 -34.5t60.5 -55.5q27 -37 16.5 -75t-39 -70.5t-66.5 -59t-67 -39.5
q-43 -20 -85 -36.5t-84 -22.5t-83 3t-82 42q-8 6 -19 17.5t-20.5 25.5t-13.5 27.5t2 25.5q25 45 52.5 87t62.5 81q23 23 41 47q18 25 5 31t-36 16q-35 14 -59.5 48t-1.5 75q20 33 55 62.5t77 53.5t85 42t78 31q35 14 73.5 25.5t77.5 9.5q16 0 37 -7t37 9zM360 504
q-12 2 -28.5 9t-32.5 11t-31.5 6t-25.5 -4q-23 -16 -42.5 -39.5t-37.5 -46.5q-10 -14 -34 -39.5t-41 -53.5t-18 -50.5t33 -28.5h2h-2q-4 2 2.5 2t-0.5 -2q66 6 128.5 28.5t119.5 53.5q12 6 27.5 15.5t31 20.5t25.5 24.5t13 29.5q2 14 -8.5 25.5t-24 20t-30 12.5t-26.5 6z
M354 739l10 9q9 10 16 19t10 15t-9 4q-35 -10 -29 -9t17 5q-41 -14 -78 -31.5t-72 -37.5q-10 -6 -31.5 -19.5t-37 -28t-17.5 -27.5t29 -20q39 -8 60.5 11.5t49.5 44.5q20 16 41 32.5t41 32.5zM563 891q0 2 1 -1t1 -6t-1 -3t-1 10z" />
    <glyph glyph-name="nine" unicode="9" horiz-adv-x="608" 
d="M516 496q-16 -53 -28.5 -107.5t-24.5 -109.5q-10 -43 -20.5 -95.5t-2.5 -95.5q2 -8 7.5 -16.5t8.5 -16.5t1 -14t-17 -10q-25 -10 -39 8t-18 39q-18 57 -10 116.5t18 116.5q23 123 55.5 241t71.5 234q10 35 -2 32t-32.5 -22.5t-42 -44t-27.5 -30.5q-35 -39 -72 -76
t-76 -72q-33 -31 -72.5 -57.5t-87.5 -30.5q-51 -4 -80.5 30t-19.5 85t39 98t69 87t86 73t91 53q29 12 58.5 21.5t60.5 5.5q16 -4 43.5 -15.5t44.5 -0.5q12 8 29.5 19t35 15.5t32.5 -1t26 -27.5q10 -23 8 -53.5t-10.5 -61.5t-19.5 -60.5t-17 -52.5q-16 -51 -34 -101t-32 -103
zM426 858q4 6 -2 6t-15.5 -2t-15.5 -5t0 -1q-23 -6 -46 -18.5t-44 -26.5q-90 -66 -156 -168q-4 -6 -12 -19.5t-11 -23.5t1 -13t22 11q23 16 44.5 35.5t41.5 38.5q47 45 99.5 90t93.5 96l-3 -3t3 3zM621 928q6 -12 6 -13.5t-1 2t-2 5.5z" />
    <glyph glyph-name="colon" unicode=":" horiz-adv-x="399" 
d="M238 631q-23 -12 -42.5 -6t-29.5 21.5t-9 34.5t21 34q14 8 30.5 3t27 -17.5t12.5 -31t-10 -38.5zM184 307q-12 10 -24.5 15.5t-12.5 23.5q-2 20 18.5 40t37.5 9q12 -10 22.5 -17t14.5 -24q4 -12 -12.5 -29.5t-43.5 -17.5z" />
    <glyph glyph-name="semicolon" unicode=";" horiz-adv-x="432" 
d="M244 692q-20 -12 -40 -7t-31 20.5t-10 36t23 34.5q16 6 30.5 0t24 -19.5t11.5 -31t-8 -33.5zM61 203q10 20 31 42.5t41.5 47t35.5 50.5t17 54q0 14 -9 23.5t-9 23.5q18 4 40.5 0t35.5 -20q18 -49 8 -91t-39 -72t-70 -45t-82 -13z" />
    <glyph glyph-name="less" unicode="&#x3c;" horiz-adv-x="897" 
d="M569 760q6 2 31 13t50.5 20.5t46 10.5t20.5 -18v-4q-6 -35 -37 -62.5t-70 -50t-80 -40t-67 -31.5q-37 -18 -79 -37.5t-83 -42t-77 -50.5t-60 -62q-6 -10 9 -16.5t37.5 -10.5t44 -5t26.5 -1q49 -8 99 -16.5t99 -20.5q39 -10 80 -24.5t72 -43.5q20 -18 14 -22t-22.5 -1
t-36 10t-25.5 7q-86 23 -177 29t-179 14q-41 2 -74 19.5t-50.5 43t-13 58.5t34.5 68q57 66 144.5 110.5t165.5 83.5q39 18 77.5 37t79.5 35zM717 786q-2 -10 -1 -9t1 5v4z" />
    <glyph glyph-name="equal" unicode="=" horiz-adv-x="708" 
d="M147 604q-16 6 -27 16.5t-15.5 22.5t2 22.5t24.5 14.5q76 20 156 26.5t157 10.5q-23 -2 -22 -2h8t15.5 1t-1.5 1q35 -2 68 -4t68 -8q12 -2 29.5 -7.5t27.5 -11.5t7 -13t-32 -11q-78 -14 -157.5 -36t-157.5 -30q-39 -4 -77 -5t-73 13zM401 543q-12 0 -9 0h9.5h9.5t-10 0
q8 0 36 -2t50.5 -7.5t29.5 -13.5t-23 -20q-59 -25 -127 -42.5t-129 -27.5q-18 -4 -42 -5t-40 9q-27 16 -27 34.5t29 29.5q59 16 118 32.5t125 12.5z" />
    <glyph glyph-name="greater" unicode="&#x3e;" horiz-adv-x="847" 
d="M313 743q51 -10 121 -21t136.5 -32.5t118.5 -58.5t69 -99q-2 4 -2 -2t0 -4q-6 -35 -39 -65.5t-75 -57t-85 -48t-70 -40.5q-41 -27 -81.5 -50t-86.5 -46q-20 -10 -38.5 -21.5t-36.5 -25.5q-12 -6 -38 -21.5t-38 -15.5q-6 0 -4 10.5t7 22.5l10 24l5 11q33 49 82 90
q59 47 120 87t126 77q27 14 52.5 28.5t49.5 30.5q8 6 22.5 14.5t23 16.5t6.5 17t-23 16q-66 23 -133.5 33t-134.5 26q-53 10 -109.5 29.5t-91.5 66.5l-6 11q-6 12 -11 23t-5 19.5t12 2.5q35 -16 71.5 -27t75.5 -21zM758 532q0 -6 -2 -6q2 2 2 6z" />
    <glyph glyph-name="question" unicode="?" horiz-adv-x="679" 
d="M406 1278q4 0 8 1t8 1q-8 -2 -16 -2zM156 551q-6 100 37 183t107.5 156t136 140.5t120.5 138.5q12 18 4 29.5t-24.5 18t-37 8.5t-30.5 2q-57 2 -110.5 -8.5t-108.5 -20.5q-6 0 -19.5 -4t-27 -5t-25.5 0t-14 11q-4 8 3 15.5t17.5 13.5t20.5 9t16 5q45 18 90 25.5t95 9.5
q-6 0 -2 0h9t9 1t0 1q35 -2 78 -8t77.5 -23.5t55 -46t12.5 -78.5q-8 -45 -34.5 -89t-60.5 -86t-71 -78.5t-65 -69.5q-29 -31 -58.5 -65t-53 -69.5t-38 -76.5t-14.5 -86q0 -10 8 -34t13 -45.5t2 -31.5t-25 4q-86 56 -92 154zM209 240h4h-4zM233 190q-10 -6 -22 0.5
t-18.5 16.5t-4.5 20.5t21 12.5h4q20 -2 33.5 -19t-13.5 -31z" />
    <glyph glyph-name="at" unicode="@" horiz-adv-x="1118" 
d="M948 571v15v-15zM891 250q-39 -47 -87 -90t-103.5 -77t-117 -52.5t-124.5 -14.5q-90 -2 -161 33t-118 95.5t-66.5 139t-4.5 165.5q16 92 57 170.5t102 148.5q8 8 23.5 22.5t32 29t29 28.5t14.5 24t-17.5 6t-44 -12t-47 -16t-27.5 -4q-6 6 16.5 19.5t53.5 25.5t59.5 22.5
t32.5 10.5q59 16 118.5 26.5t123.5 5.5q121 -10 214 -72.5t134 -178.5q41 -121 13.5 -240t-105.5 -215zM274 162q41 -55 94.5 -77t111 -18.5t113.5 27t103 60.5q49 39 94.5 85t79 98t55 110.5t23.5 123.5v15q-4 72 -28.5 138.5t-77.5 117.5q-41 45 -103 63q-8 2 -29.5 8.5
t-45 10.5t-44 4t-26.5 -8l3 -8q3 -7 6 -18t5 -21.5t0 -16.5q-8 -20 -28.5 -40.5t-38.5 -31.5q-27 -12 -50.5 -17t-48.5 -26q-29 -23 -54.5 -50t-47.5 -56q-37 -45 -67.5 -104.5t-43 -124t-4.5 -128t49 -116.5zM459 16q18 -2 16 -2h-10t-13 1t7 1zM590 598l-2 2zM762 287
q-55 -2 -75.5 33.5t-25 84t0 98.5t-2.5 79q-23 -8 -42 -37t-35 -47q-25 -29 -50.5 -58.5t-54.5 -54.5q-8 -6 -19.5 -15.5t-23.5 -15.5t-24.5 -7t-24.5 7q-23 16 -38 34t-13 46v6q6 37 24.5 75t44 70.5t59.5 57.5t70 35q39 12 74 -16q18 -14 27.5 -8.5t25.5 16.5q20 12 34 4
t21 -26.5t10 -39t3 -33.5q4 -41 7 -81.5t7 -81.5q2 -20 3 -49t14 -46q2 -4 7 -9t8 -9t2 -8t-13 -4zM489 475q6 6 23.5 22.5t36 36t31 37t10.5 27.5l-2 2q-16 12 -42 -7.5t-51.5 -50t-46 -61t-24.5 -43.5q-6 -12 3 -9t22.5 13.5t25.5 20.5t14 12zM334 434v6q-2 -16 -2 -14
t2 8z" />
    <glyph glyph-name="A" unicode="A" horiz-adv-x="819" 
d="M74 -174q-8 -35 -18.5 -71t-20.5 -70q0 -4 -9.5 -23.5t-20.5 -38t-22.5 -28t-17.5 11.5q-16 70 -12 151.5t8 153.5q4 86 16.5 172t28.5 172q16 78 40 154.5t32 152.5q0 4 5 18.5t9 28t3 23.5t-13 8q-43 -8 -87 -10t-87 2q-6 0 -19.5 5t-22.5 11t-9 12.5t18 12.5
q41 10 80 17t80 18q33 8 64.5 13t45.5 40t27.5 70.5t30.5 70.5q33 68 68.5 138.5t76.5 136t90 127t109 110.5q16 16 46 41t56 14q33 -10 49.5 -24t34.5 -41q20 -29 11 -65.5t-13 -67.5q-6 -45 -12 -89t-14 -91q-12 -92 -31 -185q-4 -27 2 -38t18.5 -13t30.5 1t37 5
q88 10 179 17.5t177 -17.5q27 -8 24 -13t-19.5 -8t-36 -5t-25.5 -2q-47 -2 -93 -7.5t-94 -13.5q-94 -16 -182 -43q-20 -6 -32.5 -22.5t-18.5 -36t-9 -41t-5 -39.5q-4 -20 -8.5 -85t-6.5 -147t1 -168t18.5 -152.5t43 -99t75.5 -8.5q14 8 14 2t-7 -17t-17.5 -22.5t-18.5 -13.5
q-37 -14 -71 7.5t-52 49.5q-25 39 -35 84t-14 92.5t-4 94.5v90q-2 84 1 166t7 164q4 41 -7 52t-54 1q-45 -10 -90.5 -22.5t-90.5 -22.5q-33 -10 -61.5 -17.5t-40.5 -42.5q-12 -33 -18.5 -68.5t-12.5 -70.5q-14 -86 -24.5 -172t-22.5 -172q-10 -78 -24.5 -153.5t-32.5 -153.5
zM272 795q-6 -20 4.5 -24.5t25.5 -0.5t32.5 12.5t27.5 10.5q43 12 91 18q20 4 55 5t49 18q12 12 14 36.5t4 40.5q4 35 7.5 70t7.5 70q8 66 18 129t21 127v2q0 27 -14.5 20.5t-34 -25t-38 -41t-24.5 -28.5q-70 -82 -123 -182q-33 -59 -70 -125.5t-53 -132.5zM629 1307v2
q0 2 -1 -4.5t1 2.5v0zM543 389q0 -4 1 -25.5t1 -25.5q-2 25 -2 36v15z" />
    <glyph glyph-name="B" unicode="B" horiz-adv-x="1216" 
d="M205 1272q10 31 20.5 63.5t26.5 54t40.5 24.5t63.5 -23q27 -18 33 -49t2 -66t-14 -68.5t-17 -58.5q-4 -18 -13 -38.5t-18.5 -42t-14.5 -43t-1 -40.5q0 -6 9.5 1t20.5 17.5t21.5 20.5t12.5 12q47 51 84 111.5t84 114.5q8 8 33.5 30.5t59.5 48t72 49t71.5 35t58 3
t30.5 -45.5q6 -35 -5 -67.5t-31.5 -63t-45 -58.5t-43.5 -50q-49 -57 -103 -107.5t-114 -97.5q-33 -27 -66.5 -51.5t-66.5 -50.5q-18 -16 -15 -23.5t15.5 -10.5t29.5 -3h26q78 -2 154.5 -9.5t150.5 -31.5q160 -53 237.5 -135t92 -178.5t-25.5 -199t-115 -194.5t-176 -164.5
t-208 -109.5q-47 -16 -97 -36t-100.5 -35t-102.5 -22.5t-103 3.5q-111 20 -153 95t5 177q8 18 9 42t0 48.5t-3 48t-2 41.5q0 80 6 160q10 166 31 328q23 166 64 325.5t90 319.5zM410 1038q6 12 3 5t-3 -5q0 -8 4 -12q8 -4 34.5 18.5t57.5 53t58.5 58.5t37.5 38
q27 23 52.5 47.5t52.5 48.5q14 14 35.5 32.5t25.5 37.5q-16 10 -45 -3.5t-59.5 -36t-57 -47t-37.5 -34.5q-41 -41 -88.5 -93.5t-70.5 -107.5zM340 711q-6 0 -21.5 1t-33 1t-30.5 -2t-15 -9q-8 -25 -11.5 -49t-7.5 -49q-6 -59 -15 -119.5t-20 -119.5q-10 -57 -14 -116
l-8 -118q-2 -35 -1 -70.5t-9 -70.5q-4 -12 -18.5 -29.5t-31 -30t-35 -15.5t-30.5 13q-6 8 -11 5t-8.5 -12t-3.5 -18v-14q12 -39 37 -71q33 -43 73 -61.5t85 -18.5t90 14.5t88 36.5q96 51 185.5 109.5t168.5 130.5q47 41 90.5 93t74 108.5t43 116t0 115.5t-56.5 108.5
t-126 93.5q-53 27 -105.5 39t-105.5 15t-107.5 0t-109.5 -7z" />
    <glyph glyph-name="C" unicode="C" horiz-adv-x="927" 
d="M610 -176q-20 -31 -46.5 -61.5t-59.5 -56t-69 -43t-75 -19.5q-49 -4 -86.5 23.5t-64.5 68.5t-45.5 88t-30.5 86q-72 229 -66.5 478t76.5 476q72 233 217 428q27 35 59 75t68.5 76t77.5 61.5t88 31.5q137 16 131 -117q-4 -82 -26.5 -163.5t-34.5 -161.5
q-12 -82 -16.5 -170t-30.5 -166q-2 -6 -10.5 -21.5t-18.5 -27t-19.5 -12.5t-13.5 24q-4 35 -4 69.5t2 69.5q6 90 22.5 176t37.5 174q2 12 14 55.5t20.5 89.5t6.5 83t-27 39q-31 2 -56.5 -24t-47 -62.5t-37 -73.5t-25.5 -57q-35 -70 -67.5 -138.5t-65.5 -140.5
q-72 -152 -114 -305.5t-46 -321.5q-4 -145 19.5 -284.5t109.5 -259.5q33 -45 64 -41t59.5 35.5t53 85t45 105.5t35 97t20.5 62q29 72 51.5 144.5t52.5 141.5q14 31 30.5 59.5t39.5 53.5q2 2 11 13.5t20.5 21.5t20.5 14t9 -4t-5 -19.5t-12 -24.5t-14.5 -25.5t-9.5 -20.5
q-10 -27 -13 -53.5t-9 -53.5q-10 -47 -26.5 -94t-28.5 -94q-27 -96 -56 -200.5t-84 -188.5z" />
    <glyph glyph-name="D" unicode="D" horiz-adv-x="1275" 
d="M1038 256q-25 -82 -95.5 -171t-169.5 -167t-218 -139.5t-237.5 -91t-228 -19.5t-191.5 74q-23 18 -31 49t-6 65.5t11 66.5t22 54q35 68 76.5 122.5t95.5 107.5q12 12 24 21.5t20.5 18.5t9.5 21.5t-9 28.5q-35 57 -52 133q-29 135 -27.5 282.5t7.5 284.5q4 78 14 156
t31 156q2 10 8 25.5t10 31.5t4 30.5t-8 24.5q-6 6 5.5 16.5t30 19.5t36.5 16.5t23 7.5q14 2 27 -3t27.5 -12.5t28 -15.5t25.5 -12q70 -20 139 -56q72 -33 140.5 -72.5t130.5 -88.5q57 -45 106 -98.5t90 -112.5q8 -10 29.5 -50t45.5 -83t45.5 -77t27.5 -30q66 27 130 46.5
t134 35.5q20 4 27.5 1t5.5 -9t-10.5 -13.5t-20.5 -11.5q-35 -14 -69.5 -30.5t-71.5 -28.5q-20 -8 -56.5 -26.5t-46.5 -37.5q-14 -25 -8 -63.5t10 -65.5q6 -80 -3 -157.5t-38 -153.5zM190 766v-164t17 -162q4 -23 7 -40t9 -26t19.5 -7t38.5 18q43 29 87 55.5t91 53.5
q80 45 163 84.5t166 76.5q12 6 36 12.5t47.5 15.5t42 20.5t24.5 23.5q6 14 -1 35.5t-18.5 43t-24.5 41t-20 32.5q-86 154 -222 264t-294 180q-12 4 -30.5 14.5t-36 14.5t-30.5 0t-15 -29q-4 -41 -12.5 -79t-14.5 -79q-16 -98 -21.5 -198.5t-7.5 -200.5zM590 -86
q82 49 154.5 109.5t127 134t86 161t31.5 187.5q0 -23 1 -20t1 12.5v15.5t-2 -8v31.5t-3 48t-10 43t-22 18.5q-37 0 -82 -22.5t-79 -36.5q-94 -41 -185.5 -93.5t-181.5 -105.5q-92 -53 -176 -115.5t-156 -140.5q-27 -27 -56.5 -65.5t-53 -81.5t-33.5 -88t2 -84
q12 -37 46 -50.5t76 -13.5t84 7t68 14q98 23 187.5 57.5t175.5 85.5z" />
    <glyph glyph-name="E" unicode="E" horiz-adv-x="1028" 
d="M125 735q-41 2 -59.5 23.5t-23.5 52.5t3 63.5t23 57.5q86 139 200.5 262t247.5 217q29 20 62.5 46t70.5 44.5t75 22.5t73 -17q33 -20 59.5 -44.5t39.5 -54.5t10 -63.5t-25 -72.5q-39 -66 -92.5 -116t-94.5 -114q-6 -10 -14 -12t-16.5 2t-15.5 11.5t-11 13.5
q-8 14 -1 30.5t11 28.5q16 37 32.5 73t33.5 71q4 8 19.5 41.5t26.5 68.5t11 59.5t-29 14.5q-61 -23 -116.5 -58.5t-102.5 -76.5q-98 -86 -186 -197t-154 -223q-14 -23 -6 -25t24.5 5.5t34 17.5t23.5 14q33 18 64.5 35.5t64.5 34.5q35 16 79 35.5t85 9.5t45 -42t-16.5 -74
t-56.5 -89t-72.5 -89t-68.5 -75t-40 -43q-98 -123 -172 -272.5t-102 -308.5q-4 -27 -8.5 -60t-4.5 -66.5t6.5 -65.5t24.5 -56q18 -25 44 -31t52.5 -2t53 17.5t45.5 29.5q61 49 120.5 99.5t110.5 109.5q45 53 83 113.5t77 119.5q41 66 83 127.5t93 118.5q8 10 36.5 39
t61.5 56.5t64.5 42t48.5 -4.5q2 -2 -14.5 -16t-36 -31.5t-39 -34t-23.5 -20.5q-29 -35 -55.5 -71t-50.5 -72q-51 -76 -97.5 -153t-93.5 -155q-37 -57 -87 -126.5t-111.5 -129t-133 -99.5t-147.5 -38q-43 0 -75 20.5t-54.5 51.5t-35.5 69.5t-19 75.5q-14 86 1 172t40 166
q25 86 58.5 168t80.5 160q23 39 48.5 75.5t53.5 71.5q8 10 23.5 26.5l31 33t27.5 34t15 31.5q-8 6 -25.5 0t-36 -17t-35 -21.5t-24.5 -14.5q-29 -12 -58.5 -22.5t-60.5 -8.5z" />
    <glyph glyph-name="F" unicode="F" horiz-adv-x="811" 
d="M55 -111q0 2 -1 2t-1 3v2v-2q0 -2 1 -2.5t1 -2.5zM231 1356q14 29 38 35t46.5 -2.5t42 -28t25.5 -43.5q10 -41 29.5 -39t54.5 10q47 10 94 18.5t94 14.5q8 0 30 4t45.5 5t44 -1t24.5 -10q6 -10 -2.5 -14.5t-20.5 -7.5t-24.5 -3h-14.5q-78 -16 -155.5 -49t-153.5 -57
q-37 -14 -54.5 -24.5t-31.5 -47.5q-12 -35 -20.5 -69.5t-18.5 -69.5q-27 -84 -39 -168t-28 -170q-10 -51 1 -59.5t60 8.5q35 12 69.5 21t69.5 20q80 23 161 36t163 13q33 0 34 -6t-13.5 -14.5t-36 -15.5t-31.5 -11q-51 -23 -103.5 -40.5t-105.5 -35.5q-59 -18 -118.5 -34.5
t-119.5 -39.5q-31 -12 -44 -32.5t-17 -46t-3 -54.5t1 -55q-4 -135 -11.5 -269.5t-1.5 -269.5q2 -20 2.5 -40.5t-5 -33t-19.5 -14.5t-41 15q-29 16 -45 53t-23.5 83t-9.5 99t-1 102.5t3 91.5t2 68q0 49 6.5 106.5t-4.5 104.5q-4 10 -30.5 17.5t-57 14.5t-52 15t-15.5 21
q6 10 23.5 15t39 7t42 4t30.5 6q18 8 26.5 22.5t10.5 32t2 37v35.5q4 78 13 155t26 153q8 39 16 75.5t18 75.5q8 29 5.5 41t-33.5 17q-31 2 -34 11t7 19.5t28.5 19.5t33.5 13q25 6 37 24.5t17 43t9 49.5t14 43z" />
    <glyph glyph-name="G" unicode="G" horiz-adv-x="1169" 
d="M1315 516q0 -2 1 1t1 5q2 -2 -2 -6zM397 1233q33 49 73 95t87 77t102.5 40t120.5 -15q37 -12 50.5 -34t13.5 -48.5t-8.5 -56t-14.5 -58.5q-6 -27 -14 -58.5t-19.5 -62.5t-29 -57.5t-41.5 -42.5q-29 -18 -35 3t-2 58t13 74t12 47q2 8 9 31.5t10 47t0 41t-24 15.5
q-25 -2 -48 -19.5t-45.5 -41t-41 -48t-30.5 -40.5q-43 -59 -79 -123t-71 -129q-78 -139 -135 -290t-80 -310q-2 -12 -8 -53.5t-6 -84.5t10 -73.5t39 -24.5q31 6 55.5 40t40.5 56q23 33 45.5 65t44.5 64q2 2 17.5 26t33 50.5t27.5 49t0 24.5q-25 4 -50.5 -4t-51 -19.5
t-51 -18.5t-52.5 -3q-35 6 -30.5 20.5t25 30.5t47 29.5t34.5 17.5q35 16 70.5 28.5t72.5 22.5q25 6 50.5 9.5t48.5 17.5q25 16 45 40t40.5 39t45 16t57.5 -29q35 -35 75 -32t87 7q33 4 94 5t124.5 -9t113 -35t55.5 -72l-2 12q-2 11 -3 18t0 3t5 -33v-2q0 -2 -1 -2t-1 -2
q-4 10 -28.5 22.5t-54.5 25t-56.5 20.5t-32.5 8q-57 4 -115.5 -2t-116.5 -18q-20 -4 -39.5 -8.5t-37 -11.5t-29.5 -19.5t-19 -36.5q-29 -111 -55 -221.5t-43 -221.5q-10 -59 -15 -116.5t-3 -116.5q0 -39 10 -78t0 -78q4 0 12 8.5t15.5 13.5t11.5 3t0 -23q-4 -14 -10 -34.5
t-17 -30.5q-29 -25 -46 -7.5t-27.5 50.5t-15.5 67.5t-5 44.5q-6 90 -4 177.5t12 177.5q8 74 13.5 150.5t27.5 148.5q8 25 8 47t-8 33.5t-24.5 9.5t-40.5 -27q-49 -43 -84 -98t-68 -111q-14 -23 -39.5 -59.5t-58.5 -74.5t-70 -68.5t-72.5 -42t-67.5 5t-52 75.5
q-25 66 -25 139.5t13.5 149.5t35 147.5t43.5 135.5q49 147 110.5 286.5t147.5 268.5z" />
    <glyph glyph-name="H" unicode="H" horiz-adv-x="911" 
d="M977 467q-6 -2 -16 -2q10 0 16 2zM977 467q-6 -2 -19 -2l-2 2h5h16zM709 1309q4 16 15 21t26 -9q14 -14 12 -39t-6 -41q-23 -121 -44.5 -239.5t-35.5 -241.5q-6 -53 -17.5 -113.5t-3.5 -114.5q2 -14 14.5 -19t29 -5t34 2t27.5 2q12 0 48 1t73 -2t66.5 -13.5t29.5 -30.5
q0 2 -6 1t-10 -1q-8 0 -17.5 -1t-12.5 -1t2 0h25h3q-76 -4 -150 -9t-145 -18q-16 -2 -23.5 -20.5t-11.5 -42t-4 -46v-32.5q-4 -47 -5 -93t-6 -93q-4 -41 -5 -82t-3 -82q0 -10 -3 -36t-3 -52.5t2 -50t10 -29.5q2 -2 9.5 -6t14.5 -8.5t10 -9.5t-1 -9q-10 -10 -28.5 -10
t-30.5 4q-29 12 -40 43t-18 57q-18 84 -15 171t11 173q0 10 5.5 48t9.5 80t3 75t-14 33q-66 -6 -137 -21.5t-135 -36.5q-27 -8 -37 -25.5t-11 -40t2 -46t5 -43.5q4 -41 5 -80t11 -78q8 -29 16.5 -57.5t4.5 -59.5q-4 -23 -12.5 -47t-21.5 -39.5t-30.5 -12.5t-37.5 38
q-16 27 -18.5 63.5t-6.5 65.5q-8 41 -15.5 79t-11.5 79q-4 35 -1 69.5t-5 69.5q-6 29 -26.5 33t-44.5 6q-23 2 -43.5 2t-42.5 4q-12 2 -19.5 10t-9.5 17.5t4 16.5t20 7t39 -2t49.5 1t43 11.5t18.5 30.5q0 23 -5 45.5t-9 44.5q-4 35 -1 70t3 70q2 90 7 178t11 178
q10 113 20.5 225.5t26.5 222.5q2 27 7 71t18.5 82t37 55.5t66.5 -9.5q25 -16 39 -40.5t20.5 -52.5t5.5 -56.5t-3 -55.5q-10 -86 -25.5 -169t-26.5 -169q-16 -141 -33.5 -282.5t-27.5 -282.5q0 -10 -2 -29.5t0 -40t10 -36t25 -15.5q41 2 78.5 10.5t76.5 18.5q14 2 34 4
t41.5 5t40 9.5t28.5 16.5q16 18 17 55t5 59q6 39 12.5 77t12.5 79q16 90 33.5 178t38.5 178q10 43 19.5 90.5t25.5 90.5z" />
    <glyph glyph-name="I" unicode="I" horiz-adv-x="622" 
d="M-244 1059q47 20 99.5 25.5t99.5 15.5q74 18 148.5 33.5t148.5 33.5q27 6 39 20.5t17 33t9.5 39t16.5 40.5q20 33 56 24t48 -42q4 -10 5 -31.5t18 -25.5q25 -4 55.5 4t54.5 14q70 14 139.5 21.5t141.5 11.5q25 2 85 4t128 -2t127 -17.5t82 -43.5q-4 -10 -3 -24.5
t11 -12.5q-27 -2 -54.5 12t-49.5 22q-35 12 -70 15.5t-70 7.5q-88 6 -175 0t-175 -18q-47 -6 -97 -10.5t-97 -20.5q-33 -12 -49.5 -40t-25.5 -61.5t-12.5 -69.5t-9.5 -65q-33 -170 -75.5 -335.5t-61.5 -337.5q-6 -72 -12 -154t14 -154q6 -20 37 -23t69 1t73.5 12t50.5 10
q78 10 154.5 15.5t154.5 1.5q23 0 60.5 -3t75.5 -11.5t68.5 -25t41.5 -44.5q4 -10 6 -29.5t-6 -30.5q-2 -4 -17.5 12.5t-19.5 20.5q-41 25 -93.5 29t-99.5 6q-72 4 -140.5 -2t-139.5 -16q-18 -2 -60.5 -5.5t-85.5 -11.5t-74.5 -22.5t-29.5 -38.5q4 -37 17 -69t9 -69
q-2 -14 -9 -16t-17.5 2t-19.5 11.5t-15 11.5q-25 23 -38 49t-26 55q-10 25 -37.5 28t-60.5 -4.5t-64.5 -18.5t-50.5 -15q-39 -10 -77.5 -17.5t-79.5 -11.5q-10 0 -27.5 -1t-34 3t-27 12.5t-8.5 26.5q2 14 19.5 24.5t41 17.5t46 11t33.5 7q35 8 69.5 15t69.5 11q16 2 38.5 4
t44 8.5t39 17.5t23.5 30q10 23 0 46t-14 46q-6 33 -8 65.5t0 67.5q4 86 12 169t21 167q12 80 22 159.5t25 157.5q14 68 33.5 132.5t35.5 129.5q6 23 1 34t-15 15.5t-25.5 1t-33.5 -7.5q-47 -10 -91.5 -24.5t-87.5 -30.5q-47 -14 -95 -23.5t-95 -13.5h-30.5t-42 3t-25 8.5
t23.5 17.5zM1282 1180q2 18 -8 37q4 14 9 12t-1 -49zM1284 1180q4 0 2 -6q0 4 -2 6zM1284 1180h-2h2z" />
    <glyph glyph-name="J" unicode="J" horiz-adv-x="1134" 
d="M553 -281q-31 -49 -72 -91t-89 -70.5t-102 -41t-114 0.5q-20 8 -30.5 26.5t-14.5 41t-3 46t3 41.5q10 76 38 146.5t71 134.5q92 127 209 225q20 18 46.5 35.5t52 37t46 42t31.5 49.5q23 70 26.5 149.5t5.5 151.5q2 86 -4 173t-18 173q-4 41 -8 80t-17 78q-10 33 -24.5 48
t-32.5 18.5t-42 -3t-52 -14.5q-166 -41 -330 -94t-334 -84q-29 -6 -56.5 -8t-51.5 14q-16 10 -14.5 17.5t12 13.5t25 9t20.5 5q88 20 174 44t174 50q76 23 150.5 43.5t152.5 36.5q35 8 69.5 17.5t69.5 23.5q29 12 24 30.5t-18 43.5q-8 14 -13 29.5t-4 26.5t11 14.5t35 -5.5
q14 -4 28.5 -10t26.5 -16q8 -8 18.5 -20.5t20.5 -25t22.5 -19.5t26.5 -5q164 29 328 50.5t334 -3.5q8 0 44 -6t71.5 -17.5t60.5 -28.5t10 -42q-8 -12 -29.5 -7t-31.5 7q-41 10 -83 14t-83 9q-80 8 -161 7t-159 -12q-59 -8 -128.5 -13t-122.5 -30q-23 -10 -23 -41.5t7 -69.5
t18.5 -73t13.5 -53q14 -78 21.5 -158t5.5 -162q0 -23 -6.5 -55.5t-11.5 -68t-6 -68.5t9 -53q6 -14 25.5 -11.5t40 13t40 22.5t25.5 17q41 27 82 50t82 52q16 10 32.5 19.5t26 11.5t6.5 -8.5t-28 -36.5q-41 -45 -92 -82t-103 -72q-20 -14 -45.5 -29.5t-49 -32t-43 -37
t-30.5 -44.5q-27 -66 -36 -138.5t-29 -138.5q-23 -76 -54.5 -149.5t-72.5 -139.5zM211 -365q12 -51 45 -50t69.5 27t70.5 63.5t48 60.5q41 68 70 141.5t49 151.5q2 10 9.5 32.5t13.5 48t8 48t-6 30.5q-6 6 -43 -25.5t-82 -74.5t-83 -84t-46 -51q-55 -70 -83 -138.5
t-42 -154.5v2v6q0 -2 -1 -3t-1 -3v-2q4 -43 6 -57.5t2 -11.5t-1 16.5t-3 27.5z" />
    <glyph glyph-name="K" unicode="K" horiz-adv-x="835" 
d="M850 1034q6 -8 -10.5 -34.5t-41 -57.5t-48 -57.5t-31.5 -36.5q-41 -51 -83 -94t-95 -84q-45 -37 -98.5 -77t-100.5 -88t-79 -102.5t-32 -117.5q0 -6 -2 -20.5t-1 -27t5.5 -21.5t16.5 -5q35 8 67.5 14t67.5 15q66 16 131.5 27.5t132.5 11.5q33 0 64.5 -4.5t58.5 -24.5
q6 -4 -3 -5t-24 -1q-16 0 -38 2q-53 -18 -108.5 -29.5t-111.5 -23.5q-27 -6 -72.5 -11.5t-90.5 -17.5t-79 -32.5t-34 -55.5q0 -66 14.5 -119t42.5 -113q6 -12 3 -28.5t-12 -28.5t-23.5 -20.5t-30.5 -4.5q-29 6 -43.5 37t-24.5 54q-16 29 -26.5 60.5t-16.5 66.5
q-4 27 -1 68.5t-11 64.5q-10 14 -25.5 22t-32 15.5t-29.5 17.5t-18 31q-6 33 13.5 66.5t36.5 58.5q16 27 38.5 52t34.5 54q10 25 14.5 56.5t6.5 58.5q10 150 30.5 297t36.5 297q8 86 15.5 168t21.5 166q4 25 12.5 59.5t23.5 61t39 33.5t58 -23q33 -29 41.5 -66t3 -77
t-15.5 -82t-16 -79q-10 -72 -23.5 -142.5t-23.5 -141.5q-12 -72 -21.5 -145.5t-17.5 -145.5q0 -4 -3 -18.5t-4.5 -32t-1.5 -31.5t5 -14q8 -2 22 9t29.5 26.5t29 31t19.5 21.5q12 12 47 45t82 75t100.5 85t101.5 74.5t85 43.5t53 -6z" />
    <glyph glyph-name="L" unicode="L" horiz-adv-x="503" 
d="M274 1278q6 16 17.5 48t25 64.5t31 58.5t35.5 32q8 2 21.5 -2t27.5 -10.5t26.5 -14.5t16.5 -16q12 -23 14.5 -50.5t-2.5 -50.5q-16 -61 -46.5 -123.5t-53.5 -121.5q-47 -123 -95 -249t-90 -255t-74 -260t-44 -262q-2 -23 -5 -52.5t-2 -58.5t9 -55.5t27 -42.5
q18 -18 43.5 -14.5t51 17t49.5 31t42 27.5q55 33 109.5 63.5t113.5 57.5q23 10 52.5 22.5t61.5 22.5t63.5 13t56.5 -5q-2 -6 -16.5 -12t-32 -11.5t-35 -8.5t-23.5 -5q-31 -10 -60.5 -29.5t-58.5 -35.5q-61 -39 -123.5 -76t-121.5 -80q-18 -12 -49 -31.5t-65 -33t-67.5 -17.5
t-58.5 12q-47 31 -68.5 86.5t-24.5 124t7 144.5t26.5 147.5t33 135t26.5 108.5q29 133 62.5 264t78.5 260q23 61 43 123t45 121z" />
    <glyph glyph-name="M" unicode="M" horiz-adv-x="1243" 
d="M1124 240q6 2 8.5 -10.5t-2 -28t-13.5 -28.5t-23 -13q-33 -2 -53.5 16.5t-32 46t-15.5 58t-4 53.5q-4 82 -10 163t-10 162v47t-3 75t-12.5 62.5t-29.5 8.5q-53 -47 -91 -108.5t-69 -127.5q-29 -66 -55.5 -135t-65.5 -129q-6 -10 -15.5 -23.5t-19.5 -24.5t-23.5 -18
t-27.5 -5q-18 2 -30.5 15t-18.5 29.5t-8 36t-2 33.5q4 166 24.5 332t24.5 332q0 14 -1 29.5t-4 23.5t-10.5 6t-21.5 -20q-23 -29 -42 -61.5t-36 -65.5q-76 -137 -143 -281q-72 -141 -109 -289.5t-49 -308.5q-6 -76 -13 -152.5t-34 -148.5q-10 -29 -33.5 -55.5t-48.5 -37.5
t-44 1t-21 61q-4 80 3 163t15 161q8 96 19.5 190.5t25.5 190.5q27 180 59.5 356t75.5 355q20 84 46 164.5t61 158.5q8 18 22.5 24.5t27.5 2.5t24.5 -15.5t15.5 -27.5q12 -41 4 -89t-17 -89q-16 -86 -45.5 -171t-52.5 -173q-10 -43 -18 -87.5t-17 -87.5q-2 -12 -8 -34.5
t-12 -46t-9 -45t3 -31.5q0 2 7 17.5t17.5 33.5t19.5 35.5t11 21.5q35 82 78 156q41 70 81 141.5t91 134.5q23 29 52.5 55.5t59 36t54 -6t37.5 -72.5q10 -45 8 -92.5t-8 -95.5t-15.5 -95t-15.5 -92q-6 -47 -11 -92t-12 -92q0 -10 -5 -35t-10 -52.5t-5 -51t8 -29.5
q4 -2 26.5 36.5t50.5 88t51.5 94.5t29.5 55q14 23 37.5 65t54.5 79.5t65.5 63.5t71.5 13q23 -8 36 -35.5t19.5 -64.5t7.5 -77t0 -70.5t-3 -48t-2 -9.5q0 -80 -1.5 -163t19.5 -169q2 -10 5 -25.5t10 -27.5t17.5 -19t26.5 -1z" />
    <glyph glyph-name="N" unicode="N" horiz-adv-x="960" 
d="M969 -215q16 12 20 10t1 -11t-10 -21.5t-13 -18.5q-55 -53 -107.5 -34.5t-85.5 81.5q-37 72 -57.5 149.5t-29.5 157.5t-11 162t-4 160q-2 172 11 342t48 338q8 39 17.5 76.5t15.5 78.5q2 14 4 27.5t-1 21t-11 5.5t-23 -17q-53 -51 -96 -111.5t-84 -119.5
q-170 -262 -254 -565q-45 -154 -73.5 -307.5t-63.5 -307.5q-20 -90 -119 -119q-35 -12 -49 26t-18.5 91t-1.5 105.5t6 68.5q10 158 35.5 313.5t60.5 309.5q16 78 36.5 154.5t43.5 154.5q20 74 45.5 151.5t81.5 135.5q14 16 44.5 16t47.5 -14q23 -23 16.5 -57.5t-10.5 -61.5
q-16 -31 -24.5 -67.5t-18.5 -71.5q-14 -45 -29.5 -88t-32.5 -86q-55 -147 -100 -303t-45 -316q53 137 99 277.5t112 275.5q66 139 146.5 273.5t185.5 248.5q18 20 40.5 44t46 35.5t46 5t41.5 -45.5q14 -31 18 -67.5t0 -74.5t-13 -75t-17 -69q-39 -162 -61.5 -328t-22.5 -332
q-4 -158 24 -315q6 -31 11.5 -70t14.5 -78t25.5 -74.5t40.5 -60.5q48 -47 101 -8z" />
    <glyph glyph-name="O" unicode="O" 
d="M465 -111q-6 23 -12.5 47.5t-12.5 49.5q-4 14 -6 28.5t-6 30.5q-4 12 -20 12q-57 -4 -112.5 2.5t-107.5 34.5q-41 25 -70.5 76t-33.5 98q-2 23 -4 43.5t-4 42.5q-12 147 27.5 292t101.5 276q47 100 109.5 190t140.5 166q68 66 146.5 117t166.5 82q43 14 90 25t96.5 14.5
t96.5 -3t88 -26.5q57 -27 101 -69t77 -94t53.5 -110.5t30.5 -117.5q4 -35 8 -71t4 -71q4 -135 -15.5 -270t-60.5 -266q-20 -70 -53 -146q-20 -47 -42.5 -93t-51.5 -91q-10 -18 -22.5 -36.5t-22.5 -35.5q-37 -55 -82 -112.5t-99.5 -102.5t-119 -71.5t-137.5 -22.5
q-86 6 -149.5 52t-92.5 130zM424 145q-6 84 0 175.5t25.5 180.5t54.5 173t86 153q20 27 41 45q14 10 30.5 20.5t34.5 14.5q29 4 36 -16.5t13 -42.5q4 -8 5 -29q0 -12 -2 -18q-10 -35 -23.5 -71t-26.5 -71q-12 -31 -21 -62.5t-24 -61.5q-8 -14 -10 -29q-6 -18 -12 -36.5
t-13 -39.5q-6 -16 -11 -34.5t-11 -35.5q-6 -18 -9 -38.5t-9 -38.5q-4 -16 -6.5 -33t-2.5 -33q0 -8 6 -10q4 -4 11 0q8 4 14 8l12 8q23 18 46.5 35.5t46.5 36.5q41 35 80.5 67.5t80.5 65.5q10 8 19.5 15.5t19.5 15.5q6 2 8 -2t0 -6q-18 -25 -35.5 -49.5t-33.5 -51.5l-4 -8
t-6 -8q-10 -12 -20.5 -25.5t-20.5 -27.5q-12 -14 -24.5 -27.5t-27.5 -26.5l-24 -20t-27 -21q-23 -16 -46 -31.5t-46 -31.5q-10 -6 -18.5 -12.5t-16.5 -10.5q-8 -6 -12 -22q-4 -41 2 -79t16 -79q10 -55 56.5 -98t105.5 -41q55 0 101.5 27.5t80.5 66.5q98 104 176 231
t132.5 266.5t82 287t23.5 294.5q-4 92 -18 185q-8 41 -19.5 86t-30 87t-45 77.5t-65.5 60.5q-41 23 -96.5 38t-102.5 11q-82 -6 -157.5 -39t-143 -82t-127 -109.5t-108.5 -119.5q-61 -76 -121 -157t-103 -169q-41 -80 -55 -169t-18 -179q-2 -31 1 -61.5t7 -61.5
q6 -31 14 -53q6 -20 15.5 -39.5t19.5 -38.5q8 -16 18.5 -28.5t22.5 -24.5q25 -25 53.5 -37t61.5 -16q16 -4 30.5 -3t30.5 3q16 4 23 10q8 8 8 14q2 2 2 6z" />
    <glyph glyph-name="P" unicode="P" horiz-adv-x="1241" 
d="M1102 1481q53 -2 98 -20.5t77 -51.5t46 -79t6 -101q-8 -47 -26.5 -91t-44 -86t-54 -81t-55.5 -76q-47 -63 -95 -123.5t-102 -120.5q-16 -18 -31.5 -36.5t-31.5 -36.5q-6 -6 0 -11q2 -2 6 -2q12 0 18 2q10 4 22.5 9.5t22.5 9.5q18 10 46 14q29 4 58.5 9t57.5 12
q16 4 32.5 4t33.5 2q12 2 24.5 1t24.5 -3q4 0 15.5 -6.5t17.5 -10.5q2 0 2 -4q2 -6 -4 -10q-31 -10 -61.5 -18.5t-63.5 -12.5q-20 -2 -40 -6t-38 -8q-12 -4 -24.5 -5t-24.5 -5q-43 -6 -74 -27q-27 -16 -55.5 -27.5t-57.5 -21.5q-47 -20 -90 -51q-6 -4 -12 -9.5t-12 -9.5
q-33 -31 -65 -61.5t-60 -65.5q-6 -10 -13.5 -16t-15.5 -14q-16 -16 -31.5 -29.5t-31.5 -30.5q-10 -8 -14.5 -18.5t-6.5 -24.5q0 -18 -1 -36.5t-1 -37.5q2 -43 0 -85t0 -85q0 -20 1 -39.5t1 -39.5q2 -35 8 -70t17 -70l4 -8t6 -8q10 -6 16 -16l6 -13q6 -6 0 -16
q-18 -25 -45 -31q-12 -4 -28 4q-41 27 -61.5 68t-30 89t-10.5 99t1 101q2 23 3 45t1 41q0 8 -1 15t-1 15q0 4 -4 8.5t-8 4.5t-9 -1t-9 -1q-8 0 -17 8q0 2 -1 3t-1 3q-4 14 -18 12q-20 -6 -39 8q-8 4 -8 11q-2 10 -2 18v16q0 4 4 13q12 16 20 22q18 18 38 35.5t40 34.5
q4 4 7 6t7 6q10 10 11 21q2 12 3 24t1 25q6 111 14 217t21 217q14 104 38.5 202.5t40.5 200.5q0 2 -1 3.5t-1 3.5h-6h-6q-147 -98 -277 -226.5t-216 -285.5q-23 -39 -52 -68q-14 -14 -32 -6q-12 6 -21 14q-2 0 -6 10q0 20 4 31q10 25 19.5 48.5t23.5 45.5q31 51 74 107
q20 27 41.5 52.5t46.5 49.5q90 92 190.5 171t210.5 147q68 41 142.5 82t154.5 71.5t162 48t162 13.5zM1241 1135q18 43 26.5 97t-2 100t-46 75t-107.5 18q-98 4 -192.5 -28.5t-180.5 -73.5q-16 -8 -30.5 -14t-30.5 -15q-16 -8 -28.5 -17t-28.5 -17q-10 -4 -18.5 -10.5
t-18.5 -12.5l-4 -4q-4 -8 -2 -12q4 -4 7 -6.5t7 -6.5q20 -12 35 -41q10 -16 4 -41q-6 -23 -14.5 -41t-12.5 -41q-35 -147 -59.5 -294.5t-42.5 -296.5q0 -10 -1 -18.5t-3 -18.5q-2 -8 -2 -25q0 -12 6 -16q6 -6 16 2q14 8 26.5 15t26.5 16q37 23 75 42t77 37q29 14 45 31
q45 43 87 87t83 91q20 23 37.5 45.5t36.5 44.5q66 80 127 166.5t102 182.5z" />
    <glyph glyph-name="Q" unicode="Q" horiz-adv-x="1200" 
d="M688 -242q-49 -45 -108 -69q-41 -16 -84 -18.5t-84 16.5q-47 20 -79 58t-51.5 84t-29.5 96t-12 98q0 4 -1 6t-1 6q-6 14 -17 18q-53 23 -91 43.5t-64 77.5q-23 45 -30 96.5t-5 100.5q2 63 14 123.5t31.5 119t44 114.5t49.5 114q23 51 48.5 99t53.5 95q20 31 39 62.5
t41 60.5q43 55 94.5 106.5t109.5 93.5t123.5 71.5t137.5 39.5q94 14 169 -30.5t116 -130.5q35 -72 44 -154t2 -167t-24.5 -168t-36.5 -156l-36 -148q-18 -66 -39 -131.5t-45 -130.5q-25 -61 -52.5 -122.5t-52.5 -123.5q-8 -18 10 -31q16 -14 34 -27t34 -26q8 -6 15.5 -11
t15.5 -9q27 -16 53.5 -29.5t52.5 -30.5q25 -12 58 -26q29 -10 51 8l12 12h6q8 0 8 -6q0 -12 2 -18q0 -8 -8 -25q-6 -12 -16 -20.5t-23 -16.5q-20 -14 -51 -18q-23 0 -45 2t-45 10q-45 14 -84 39q-33 18 -64.5 36.5t-62.5 39.5q-6 6 -14 10q-10 8 -23 -4q-6 -10 -12 -18.5
t-14 -16.5q-14 -20 -31 -39t-33 -35zM389 -141q31 -66 74 -83.5t87 -2t84 57.5t66 93q8 16 -2 23q-25 20 -47 40.5t-47 37.5q-4 4 -6 4l-4 4q-16 12 -4 28q20 33 39.5 46.5t41 11.5t45 -16.5t50.5 -34.5q4 -2 9 -1t9 3q4 6 17 18q10 16 20 39q31 76 60.5 152.5t52.5 156.5
q10 47 22.5 91t24.5 91q20 78 37.5 160t27 164t6.5 164t-24 162v6q-14 47 -50 86t-83 49q-59 12 -120.5 -16.5t-106.5 -59.5q-70 -47 -127.5 -107.5t-114.5 -119.5q-25 -27 -46.5 -56.5t-43.5 -58.5q-16 -23 -27 -41q-8 -16 -16 -29.5t-19 -27.5q-18 -29 -30 -55
q-12 -29 -24.5 -55.5t-26.5 -53.5q-25 -51 -49.5 -109.5t-41 -119t-21.5 -122t11 -118.5q14 -53 45 -77.5t78 -47.5h6q8 0 8 6q4 8 4 13q2 59 14.5 115.5t28.5 113.5q29 111 73 218.5t104 203.5q23 35 46 68.5t50 66.5q25 31 45 49q6 6 19.5 14.5t28.5 14.5t28.5 8t23.5 -4
t20.5 -12t20.5 -15q14 -10 11 -24.5t-15 -20.5q-2 -2 -6 -2q-20 -4 -35.5 -16t-30.5 -29q-18 -20 -38 -55q-45 -84 -87 -166t-83 -168q-6 -16 -13.5 -30.5t-13.5 -30.5q-23 -47 -35 -91q-4 -16 -7 -30.5t-7 -28.5q-10 -39 -16.5 -76t-6.5 -75q0 -8 2 -13q0 -4 4 -8t9 -4
q2 -2 10 -2q25 2 49.5 5t48.5 9q6 2 19 2q4 0 4 -2q4 -4 -4 -8q-20 -16 -43 -28.5t-48 -22.5q-10 -4 -19 -8t-19 -11q-12 -4 -13 -18v-25q4 -41 11.5 -81.5t25.5 -77.5z" />
    <glyph glyph-name="R" unicode="R" horiz-adv-x="1007" 
d="M213 1137q8 31 23.5 81t37 102t49 96t60.5 61q10 8 29 8h12q23 -4 35 -21q8 -12 8 -16q6 -31 -4 -55q-84 -193 -143.5 -407t-106.5 -419q-12 -55 -23.5 -110.5t-21.5 -112.5q-10 -49 -12 -100t-11 -101q-8 -45 -9 -89t-3 -89q-2 -25 -2 -49.5t-2 -48.5l2 -4q6 0 10 6
q0 2 2 4q6 49 16.5 97t20.5 98q4 25 9.5 50t11.5 52q6 25 -2 47q-6 10 -5 23.5t5 23.5q10 27 30 53q16 16 21 45q25 117 80 230t119 217q6 10 10 18.5t10 18.5q82 121 169 229.5t191 210.5l25 19q29 18 51 34q55 41 119 62q29 8 39 7t39 -11q12 -4 21.5 -14.5t17.5 -20.5
q4 -4 4 -6t2 -6l6 -50q0 -12 -2 -16q-12 -47 -28.5 -89t-41.5 -83q-31 -51 -67.5 -98t-73.5 -94q-37 -45 -70.5 -91.5t-72.5 -89.5q-104 -123 -228.5 -241.5t-244.5 -231.5q-10 -6 -17 -16q-12 -12 4 -27q2 -2 11 -6q27 -12 52 -25.5t52 -25.5q57 -27 102 -55q31 -16 62 -34
t63 -34q113 -59 227.5 -86t241.5 -33q29 -2 54.5 5.5t52.5 4.5q-86 -55 -180.5 -63t-188.5 13.5t-185 62.5t-171 82q-51 27 -101.5 54.5t-103.5 53.5q-4 2 -10 3t-13 5q-4 0 -9 -2t-5 -6q-10 -35 -16 -69.5t-13 -69.5l-12 -94t-14 -94q-4 -33 -11.5 -66t-15.5 -66
q-4 -12 -5 -24t-3 -25q-2 -27 -18 -51q-14 -25 -37 -31q-16 -4 -32.5 -10t-33.5 -10q-8 -2 -16 2t-12 14q-6 8 -7 17q-23 104 -18.5 213.5t8.5 214.5q8 125 19.5 237.5t28 224t41 226.5t59.5 248q14 53 28.5 106.5t30.5 106.5zM324 408q0 -2 2 -5q2 -6 10 -2q4 4 7 6.5
t7 6.5q4 2 5 3t5 3q31 14 60 40.5t55.5 57.5t51 62.5t46.5 56.5q82 92 161 186.5t149 196.5q29 39 54.5 79t47.5 81q10 14 18.5 28.5t14.5 30.5q8 16 13 34.5t9 35.5v6t-6 10q-16 6 -28 -2q-117 -66 -217.5 -159t-180.5 -201q-72 -94 -127 -195q-20 -37 -39.5 -73t-35.5 -74
q-8 -20 -17.5 -40t-17.5 -40q-25 -47 -35 -92q-4 -10 -6 -20.5t-6 -20.5z" />
    <glyph glyph-name="S" unicode="S" horiz-adv-x="1103" 
d="M664 883q156 -96 226.5 -235.5t66 -290t-76 -297t-196.5 -259.5q-55 -51 -120.5 -100t-137.5 -83t-149.5 -46t-157.5 10q-78 20 -133.5 70.5t-81.5 126.5q-2 4 -2 12q-4 29 -8.5 54.5t-4.5 54.5q2 29 7.5 56.5t13.5 53.5q35 121 89 230.5t122.5 210t148.5 193.5t164 183
q4 4 7 9.5t8 9.5q4 8 -3 10q-4 6 -10 6q-33 16 -63 25q-37 10 -81 25.5t-84 38t-73 53t-45 73.5q-16 53 6.5 98.5t63.5 81t91 64.5t87 47q33 18 65 33q43 23 88.5 36t92.5 23q51 8 110 2q12 0 29 -8q8 -2 14 -12q8 -14 11 -29v-24q0 -27 -29 -35q-8 -4 -29 -4q-18 0 -37 -7
q-4 0 -6 -1t-6 -1q-61 0 -120.5 -23.5t-114.5 -47.5q-53 -23 -102.5 -53.5t-90.5 -73.5q-6 -8 -13 -15.5t-12 -17.5q-4 -6 -3 -15.5t5 -13.5t9.5 -8t11.5 -8q4 -4 10 -5t10 -5q37 -16 74 -31.5t74 -28.5q20 -6 38.5 -13t37.5 -11q16 -4 29.5 -10.5t29.5 -10.5q20 -8 39 4
q8 6 15 11.5t16 11.5q10 6 18 11t19 9q25 12 53 29q23 12 44 23.5t44 21.5q8 4 10 6q12 10 26.5 15.5t28.5 9.5q23 6 45.5 10t45.5 0q-4 -4 -6.5 -7t-6.5 -5q-16 -10 -31.5 -19.5t-31.5 -19.5q-29 -18 -57.5 -39t-57.5 -43q-33 -25 -70 -61q-2 -2 -6 -11q-4 -10 2 -16
q4 -2 5.5 -4t5.5 -4zM610 -127q53 53 102.5 118.5t84 139.5t51 151.5t6.5 157.5q-10 63 -30.5 127t-61.5 113q-12 14 -17 18q-8 8 -15 15.5t-17 13.5q-35 27 -72 47.5t-78 38.5q-2 2 -4 2t-6 2q-8 0 -12 -2q-4 -4 -7.5 -5t-7.5 -5q-47 -43 -87 -92t-81 -99
q-41 -51 -80.5 -103t-80.5 -105q-35 -47 -71 -97.5t-66.5 -102.5t-54 -107.5t-36.5 -114.5q-8 -39 -4 -83t18.5 -85t39 -77t59.5 -61q53 -39 118.5 -36.5t121.5 24.5q59 25 114.5 60.5t102.5 78.5q40 35 71 68z" />
    <glyph glyph-name="T" unicode="T" horiz-adv-x="720" 
d="M1325 1430q-96 -6 -197 -29q-106 -25 -208.5 -46.5t-206.5 -56.5q-14 -6 -43 -12t-56.5 -15t-47 -22.5t-19.5 -34.5q4 -59 5 -114.5t-3 -114.5q-8 -125 -21.5 -248t-27.5 -248q-14 -121 -29.5 -237.5t-13.5 -239.5q0 -59 4 -115.5t8 -115.5q4 -45 10 -102.5t33 -94.5
q14 -20 8 -33.5t-21.5 -19.5t-35 -5t-33.5 11q-41 29 -67.5 74t-40.5 92q-35 123 -47.5 254t-9.5 269.5t15.5 285.5t28.5 303q8 74 17.5 148.5t25.5 148.5q0 2 4 17.5t6.5 31t0 26.5t-12.5 9q-37 -8 -73.5 -18.5t-73.5 -20.5q-70 -16 -136.5 -40.5t-133 -50.5t-132 -52.5
t-135.5 -44.5q-29 -8 -56.5 -15.5t-53.5 -17.5q-23 -10 -54.5 -21.5t-56.5 0.5q-16 8 -15 16.5t9 14.5t20.5 11.5t18.5 9.5q35 20 69.5 37.5t71.5 33.5q137 59 276.5 111.5t280.5 99.5q29 10 59.5 18.5t61.5 16.5q8 2 23.5 4t31 6t28.5 11.5t17 17.5q4 14 10.5 47t16.5 43
q6 4 18.5 5t26.5 1t26.5 -3t18.5 -7q4 -4 7 -13.5t7 -19.5t9.5 -17t11.5 -7q39 8 76 16t75 16q72 14 141.5 24.5t141.5 23.5q59 12 127 21t137.5 11t136 -6t121.5 -31q0 -2 -25.5 -2t-57 1t-60.5 2.5t-37 1.5z" />
    <glyph glyph-name="U" unicode="U" horiz-adv-x="1073" 
d="M829 1016q-72 -154 -117.5 -311.5t-97.5 -317.5q-23 -74 -48 -153.5t-58 -156.5t-74 -147.5t-94 -128.5q-29 -31 -63.5 -47t-68.5 -14t-64.5 22.5t-49.5 63.5q-35 82 -38 181t-3 190q-4 338 62 669q16 80 34.5 160t34.5 160q6 31 17.5 68.5t1.5 68.5q-4 16 6 26.5
t27.5 15.5t35 6t27.5 1q37 2 56.5 -22.5t28.5 -60.5t10 -72.5t1 -61.5q0 -86 -16.5 -167t-38.5 -163q-41 -160 -85 -315.5t-56 -321.5q-6 -72 -6 -143.5t24 -138.5q2 -10 8 -24.5t14.5 -26t19.5 -13.5t24 13q27 31 42 69.5t27 75.5q59 158 114.5 315.5t117.5 313.5
q59 150 127.5 295t154.5 284q12 20 27.5 53t35 65t42 56.5t51.5 28.5q35 6 43 -29.5t2 -85t-17.5 -96.5t-13.5 -65q-29 -168 -63.5 -334t-57.5 -334q-10 -80 -19 -162t-10 -163t9 -161.5t35 -158.5q4 -12 8 -24.5t10 -21.5t15.5 -14.5t23.5 0.5q8 4 9 -3t-4 -17t-13 -19.5
t-18 -9.5q-39 -4 -63 21.5t-38 62.5t-20 77t-11 67q-10 76 -10 150.5t5 150t12.5 150.5t13.5 151q12 135 44 271t60 271q8 41 17.5 79t17.5 79q2 6 6 25.5t5 36t-3 21.5t-18 -15q-47 -66 -81 -143.5t-69 -151.5z" />
    <glyph glyph-name="V" unicode="V" horiz-adv-x="815" 
d="M303 -285q-66 12 -108.5 64.5t-68.5 128.5t-38 166t-16 179t-4 169v133q-4 174 5 345t36 343q2 10 7 54t13 93.5t16.5 88.5t18.5 39q12 0 26.5 5t27.5 8t24.5 1t21.5 -16q20 -33 26.5 -70t6.5 -74q0 -166 -6 -329.5t-12 -329.5q-6 -164 -17.5 -329t12.5 -327
q2 -14 8.5 -45.5t17.5 -64.5t26.5 -58.5t35.5 -27.5q14 0 24.5 13t18 32.5t12.5 38t7 28.5q29 104 48.5 211t45.5 211q41 156 93.5 309.5t117.5 301.5q29 59 60.5 121.5t72.5 115.5q4 6 14.5 15.5t19.5 14.5t11 2t-10 -22q-18 -29 -33.5 -61.5t-32.5 -65.5
q-68 -147 -129 -300.5t-94 -313.5q-16 -80 -26.5 -161t-22.5 -160.5t-32.5 -157.5t-57.5 -152q-12 -27 -26.5 -58.5t-33 -57t-44 -41t-62.5 -9.5z" />
    <glyph glyph-name="W" unicode="W" horiz-adv-x="1249" 
d="M53 129v-8v-2v10zM1124 989q-16 -88 -27.5 -177t-15.5 -181q-2 -72 1 -151t0 -157.5t-19 -153.5t-57 -136q-14 -23 -37 -47.5t-48.5 -41t-54 -20.5t-55.5 15q-29 20 -46 53t-28.5 70.5t-16.5 76.5t-9 70q-10 84 -13.5 168t-4.5 167l-2 166t-9 167q-2 23 -2 49t-12 47
q-6 6 -18.5 -6.5t-25 -30.5t-22.5 -35.5t-12 -19.5q-35 -57 -58.5 -114.5t-46.5 -117.5q-53 -135 -78.5 -275.5t-48.5 -283.5q-12 -70 -21 -140.5t-36 -135.5q-12 -31 -29.5 -50.5t-37 -36t-42 -30.5t-42.5 -35q-29 -25 -47.5 -8.5t-29 47.5t-15.5 64.5t-5 46.5
q-2 76 -1 152.5t1 154.5v2q6 334 43 661q18 162 45 325t86 316q6 14 15.5 40t24 47.5t33.5 36t46 7.5q12 -4 18.5 -15t9.5 -25.5t3 -30t4 -23.5q6 -18 7 -42.5t-2 -49.5t-9 -49.5t-10 -42.5q-39 -160 -67 -321.5t-56 -325.5q-27 -154 -41.5 -305.5t-18.5 -309.5v-85t2 -85
q0 -20 4.5 -25t9.5 -1t9 14t8 23q25 86 38 176t30 178q29 143 67.5 282.5t98.5 274.5q10 23 31.5 67t52 91t65.5 90t72 64.5t72.5 13t68.5 -61.5q18 -31 23.5 -68.5t3.5 -77.5t-6.5 -80t-6.5 -73q-6 -92 -8 -181t0 -181q2 -72 9.5 -155t41.5 -146q14 -27 36 -31t36 29
q18 43 21.5 89t7.5 91q14 154 28.5 306.5t49.5 301.5q18 80 35.5 160t39.5 157q8 31 17.5 62t25.5 59q10 14 17.5 15.5t10.5 -7t3 -20.5t-4 -23q-29 -61 -42.5 -129.5t-27.5 -138.5z" />
    <glyph glyph-name="X" unicode="X" horiz-adv-x="772" 
d="M498 516q-25 -41 -46.5 -84t-43.5 -86q-10 -20 -9.5 -42.5t9 -46.5t18.5 -45.5t18 -39.5q18 -37 43 -76t55.5 -71.5t67.5 -55t82 -26.5q14 -2 28.5 0t24.5 12q4 4 11.5 19.5t15.5 15.5q12 -2 7 -18.5t-17 -36t-25.5 -37t-15.5 -19.5q-37 -31 -76 -35t-77 10.5t-71.5 40
t-58.5 56.5q-51 59 -92 133q-2 4 -7 15.5t-11 20.5t-14.5 13t-14.5 -8q-12 -18 -21.5 -37.5t-19.5 -40.5q-39 -88 -71.5 -175t-59.5 -179q-6 -20 -15.5 -40t-5.5 -42q0 -4 1.5 -11.5t-1 -13.5t-5.5 -7t-11 7q-16 14 -27.5 24.5t-20.5 22t-14 26.5t-8 38v10q4 68 30 132.5
t54 125.5q35 74 73 146.5t81 142.5q6 10 3 28.5t-10 39t-15.5 39t-10.5 28.5q-12 39 -21 77t-20 79q-20 84 -39.5 167t-33.5 169q-14 78 -23.5 156.5t-19.5 156.5q-2 12 -9.5 54t-13.5 88t-7 84t9 42q82 29 127 -7t62 -118q14 -86 20 -171t16 -171q8 -78 15.5 -156.5
t17.5 -156.5q4 -39 9 -76t14 -74q2 -6 5 -25.5t9 -34.5t14.5 -20.5t20.5 13.5q78 137 159.5 272t159.5 273q41 68 78 136t76 138q16 27 30.5 52.5t28.5 52.5q2 2 7.5 13t12.5 20.5t14 13.5t11 -9q10 -25 2 -58.5t-25.5 -69t-37 -67.5t-31.5 -54q-41 -76 -81 -150t-81 -147
q-51 -92 -101 -182.5t-101 -182.5z" />
    <glyph glyph-name="Y" unicode="Y" horiz-adv-x="1136" 
d="M883 705l-9.5 -38t-16.5 -70t-19.5 -86t-18.5 -84t-14 -63.5t-4 -25.5q10 -2 33.5 18.5t49 47t48 52t31.5 33.5q6 6 22 24.5t39 42.5t47.5 48.5t46 44t39 29.5t23.5 6q12 -10 -5.5 -42t-52.5 -76t-80 -93t-86 -93t-73.5 -77t-40.5 -43q-47 -53 -97.5 -100t-85.5 -113
q-29 -51 -53 -103.5t-51 -105.5q-35 -66 -69.5 -124t-82.5 -115q-10 -12 -33.5 -44t-51 -62t-55 -49t-48.5 -9q-37 16 -43 50t7.5 76t40 88t56 88t56 73.5t39.5 48.5q45 59 94 113.5t100 107.5q53 53 75 126t46 144q49 141 82 288.5t49 297.5q4 41 8 80t9 80q2 20 -7.5 18
t-20.5 -12t-21.5 -23.5t-12.5 -15.5q-41 -61 -75.5 -131t-69.5 -135q-63 -127 -131 -253t-156 -239q-18 -23 -41 -44t-50.5 -35.5t-57 -18.5t-60.5 8t-48 41t-25.5 64.5t-10.5 71.5t-2 63q-8 154 14.5 307t81.5 295q4 8 10.5 27.5t15.5 39t19.5 35t22.5 17.5q41 4 62.5 -0.5
t27.5 -49.5q10 -74 -8.5 -145.5t-30.5 -144.5q-16 -86 -35.5 -171t-36.5 -171q-2 -10 -5 -52.5t-2 -86.5t10.5 -72.5t31.5 -8.5q27 20 47.5 54t38 71t31.5 74t31 66q37 74 73.5 148.5t73.5 148.5t77 149.5t93 140.5q12 14 37 43t52.5 53.5t57 38t54.5 -0.5q31 -18 44 -50
t16 -69t-1 -74t-10 -68zM514 -84v0v10q-6 4 -33.5 -24.5t-60.5 -67.5t-61.5 -73.5t-34.5 -43.5q-20 -29 -40 -56.5t-36 -59.5q0 -2 -5 -15.5t-8.5 -28t-3.5 -23.5t11 -5q27 12 50 34.5t43.5 50.5t38 56.5t34.5 53.5q29 47 55 95t51 97z" />
    <glyph glyph-name="Z" unicode="Z" horiz-adv-x="927" 
d="M741 -160q-102 4 -210.5 -12t-206.5 -51q-74 -29 -143.5 -67t-143.5 -60q-29 -10 -61.5 -9t-47.5 35q-16 41 -9 58.5t28 52.5q78 135 168 265t176 263q90 139 189.5 269.5t199.5 263.5q53 68 99 137.5t93 140.5q8 12 33 46t45.5 71t25.5 66.5t-28 33.5q-72 6 -145.5 -14
t-142 -58t-128 -90.5t-98.5 -107.5q-20 -29 -33.5 -62.5t-29 -67.5t-37 -62.5t-55.5 -42.5q-29 -12 -53.5 -13.5t-51.5 21.5q-33 27 -32 40t26 48q90 135 211 242.5t268 179.5q53 27 113.5 49t122.5 27q31 2 61.5 -7.5t55 -29t40 -47t17.5 -60.5q2 -25 2 -16.5t-2 16.5
q2 -53 -12.5 -105.5t-39 -101.5t-55 -95t-57.5 -87q-66 -94 -140.5 -179t-146.5 -175q-137 -180 -267 -359.5t-245 -375.5q-20 -33 -21 -44.5t11 -10.5t32.5 11.5t43.5 20.5q53 25 108.5 47.5t112.5 38.5q45 12 103.5 26.5t118 21.5t116.5 4t102 -25q25 -12 41.5 -28.5
t11.5 -45.5q0 -2 -5 -12.5t-11 -19.5t-11 -12t-7 9q-6 39 -35 44t-64 5z" />
    <glyph glyph-name="bracketleft" unicode="[" horiz-adv-x="468" 
d="M252 1257q12 0 46 4.5t72 5.5t68.5 -3t34.5 -21q2 -8 -25.5 -12t-63.5 -9t-66.5 -10.5t-36.5 -13.5q-14 -16 -9.5 -47t2.5 -51l-18 -135q-10 -68 -22.5 -135.5t-22.5 -135.5q-12 -70 -22.5 -137.5t-14.5 -136.5q-4 -74 -1 -146.5t-3 -144.5q-4 -33 -10 -62.5t2 -62.5
q2 -8 14 -8t26.5 3t28 7t17.5 4q25 4 57.5 6t56.5 -8q18 -8 23.5 -16t0.5 -15.5t-17.5 -11.5t-26.5 -6q-55 -6 -107.5 -21.5t-109.5 -19.5q-41 -2 -63.5 37t-32 101.5t-9.5 139t4.5 147.5t10.5 127t8 79q10 133 26.5 264t45.5 260q4 25 14 53.5t6 55.5q0 8 -9 11t-19.5 5
t-18.5 5t-8 16q0 12 8 16t19.5 6t22.5 4t17 12q6 12 20.5 13.5t30 -0.5t30 -7.5t24.5 -5.5z" />
    <glyph glyph-name="backslash" unicode="\" horiz-adv-x="638" 
d="M229 625q-29 100 -56.5 200.5t-59.5 198.5q-4 12 -20.5 71.5t-33.5 127.5q-20 78 -45 174q20 -2 36 -13.5t27 -28t19 -36t17 -33.5q23 -47 45 -95t41 -97q35 -86 61.5 -171t50.5 -173q53 -195 96.5 -389.5t79.5 -393.5q-2 4 -3 0t3 0q-8 -16 -20 -8t-24.5 24.5t-22.5 36
t-12 25.5q-20 41 -35 85t-27 87q-33 102 -60.5 204t-56.5 204z" />
    <glyph glyph-name="bracketright" unicode="]" horiz-adv-x="438" 
d="M166 -102q10 2 18.5 53t13.5 129t8 170t5 176t3 146.5t1 82.5q4 131 8 260t15 259q2 27 -14.5 33.5t-40 5.5t-50.5 -8t-45 -7q-35 -2 -27.5 11.5t25.5 23.5q23 12 48.5 19.5t49.5 15.5q23 8 51.5 15t55 7t48 -10t32.5 -39q12 -35 17 -93t6 -130t-2 -152t-8 -157.5
t-11 -147t-11 -123.5q-6 -68 -15 -134t-15 -134q-6 -57 -3 -119.5t-20 -116.5q-6 -12 -5 -20t2 -14t0 -14.5t-11 -20.5q-16 -23 -27.5 -37t-44.5 -4q-27 8 -55.5 5t-58 -9t-58 -7t-53.5 11q-10 4 -2 12t20.5 15.5t25.5 13.5t15 6q27 8 53.5 15.5t55.5 11.5z" />
    <glyph glyph-name="underscore" unicode="_" horiz-adv-x="817" 
d="M598 315q25 -4 28 -8t-4.5 -8t-21.5 -9t-25 -9q-41 -12 -107.5 -24.5t-139 -18t-140 -2t-108.5 19.5q-14 6 -24.5 15.5t-13.5 17.5t4 14t30 8q82 10 167 20.5t167 6.5q47 -2 94 -9.5t94 -13.5z" />
    <glyph glyph-name="a" unicode="a" horiz-adv-x="542" 
d="M143 803q29 6 54.5 0t54.5 -2q23 2 36 31.5t26.5 61.5t32 52.5t50.5 3.5q12 -6 19.5 -19t19.5 -18q20 -2 29 -24q10 -29 -6.5 -67t-24.5 -66q-43 -152 -61 -307q2 8 2 14t2 12q-2 -8 -2 -14t-2 -12q-4 -39 -10.5 -82t-10.5 -86t-2 -85t15 -81q2 -6 9 -16.5t14 -20.5
t12.5 -19.5t2.5 -11.5q-23 -20 -47 -18t-41 24q-10 14 -16 36t-8 44.5t-3 45t-1 40.5v162q0 31 4 77t7 89t3 74.5t-6 31.5l-66 -112q-16 -31 -32.5 -61.5t-32.5 -61.5q-12 -25 -27.5 -50.5t-35 -46t-45 -33t-56.5 -9.5q-51 4 -74.5 31.5t-25.5 69.5t12 91t34.5 95t44 86
t40.5 61q23 29 50 55.5t62 34.5zM229 735q-2 -4 0 0t0 0q6 14 -4 14.5t-23.5 -6t-26.5 -14.5t-15 -10q-18 -20 -32.5 -44t-25.5 -50q-10 -29 -19 -58.5t-17 -60.5q-6 -31 -2 -38t13 0t20.5 22.5t21.5 31.5q29 53 59.5 105.5t50.5 107.5zM373 449v-11v11z" />
    <glyph glyph-name="b" unicode="b" horiz-adv-x="448" 
d="M25 160q-18 29 -28.5 66.5t-15 77.5t-4.5 79v72q-2 76 6.5 163t29 173t53 165.5t77.5 143.5q12 14 24.5 14t25 -8t21.5 -21.5t13 -23.5q16 -33 9 -68t-15 -69q-18 -88 -41.5 -177.5t-34.5 -181.5q-2 -20 3.5 -24t14.5 0t20.5 12t21.5 14q14 8 30.5 17.5t34 14.5t35 4
t33.5 -15q27 -27 22.5 -66t-25 -80t-48 -77.5t-45.5 -55.5q-10 -10 -40 -41.5t-65 -62.5t-67.5 -47t-44.5 2zM174 500q-39 -37 -49 -81t-6 -97q2 -35 11 -41.5t22.5 2t29 27t29.5 34.5q33 37 64.5 85t33.5 101q0 33 -17.5 35t-40 -9t-45 -29.5t-32.5 -26.5zM-23 455
q0 -29 -1 -27t-1 13.5t1 19.5t1 -6z" />
    <glyph glyph-name="c" unicode="c" horiz-adv-x="516" 
d="M-25 174q-35 45 -47 100.5t-9 113.5t17.5 114.5t32.5 105.5q39 104 105 197q31 43 59.5 63.5t81.5 16.5q14 0 43 -4t53.5 -14.5t36.5 -28t-8 -45.5q-18 -25 -36.5 -23t-38 11.5t-40 14.5t-41.5 -16q-37 -37 -64.5 -89t-46 -109.5t-28.5 -116.5t-14 -109q-2 -20 -2 -54
t9 -64.5t28.5 -46t54.5 1.5q43 20 76.5 62t62.5 79q31 41 61.5 88t63.5 91t70 84t82 69q-2 -2 -3.5 -3t3.5 3q8 4 14 2q-59 -98 -119.5 -194.5t-126.5 -190.5q-25 -37 -64.5 -79t-84.5 -66.5t-92.5 -20.5t-88.5 57z" />
    <glyph glyph-name="d" unicode="d" horiz-adv-x="630" 
d="M375 1204q16 -16 37.5 -21t33.5 -22q8 -12 9.5 -28.5t-1.5 -34t-9.5 -33.5t-8.5 -29q-41 -164 -81 -328.5t-48 -334.5q-2 -35 -3 -75t1 -81t8 -80t19 -71q4 -10 13 -1t19.5 25t18.5 32.5t8 18.5q18 39 34.5 79t33.5 81q31 68 57.5 138.5t67.5 135.5q2 6 11 20.5t19.5 28
t21.5 19.5t21 -2q2 -2 -5 -14.5t-16 -25.5t-19.5 -26.5t-12.5 -19.5q-27 -61 -49.5 -124.5t-46.5 -125.5q-29 -72 -55.5 -152.5t-71.5 -142.5q-8 -12 -18.5 -24.5t-23.5 -21.5t-27.5 -11t-30.5 6q-29 16 -37 52t-13 65q-23 106 -28.5 215.5t-1.5 218.5l2 35
q-27 -57 -46.5 -116.5t-39.5 -119.5q-8 -27 -18.5 -51.5t-26 -43.5t-38 -29.5t-52.5 -8.5q-39 2 -59.5 21.5t-29 48t-8.5 62.5t2 67q6 74 36 140.5t77 123.5q14 16 37.5 41t48.5 20q6 -2 17.5 -7t23.5 -10t21.5 -4t13.5 11q27 80 49 159t53 157q2 8 17.5 42.5t34 71.5
t36 64.5t23.5 19.5zM129 582q4 8 -1 17t-15 -1q-14 -10 -24.5 -23.5t-20.5 -29.5q-33 -45 -48.5 -91t-19.5 -100q-2 -8 -2 -6q-2 -37 4 -44t15.5 4t20.5 31.5t17 37.5q20 51 35.5 102.5t38.5 102.5zM0 354q0 2 0 -1t-2 -5q2 2 2 6z" />
    <glyph glyph-name="e" unicode="e" horiz-adv-x="499" 
d="M254 776v6v-6zM76 94q-59 4 -92 48t-45.5 102.5t-11.5 121t10 103.5q10 47 27.5 102.5t44 107.5t60 97t76.5 72q16 10 41 17t49.5 5t45 -12t30.5 -33q8 -20 2 -50t-20 -59.5t-30.5 -57t-29.5 -42.5q-16 -20 -37.5 -39.5t-43.5 -31.5q-10 -4 -22.5 -4t-25 2t-23.5 2
t-18 -6q-12 -8 -19 -27.5t-10 -44.5t-3 -50.5v-45.5v-27q0 -39 3 -89t34 -81q18 -18 38.5 -12t39 24.5t35 40t24.5 33.5q33 45 64.5 97.5t66.5 102.5t74 95t86 78q2 2 10 8t16 10t16.5 5t12.5 -5q2 -4 -5 -12t-16.5 -18.5t-18.5 -18.5t-11 -10q-35 -43 -57.5 -90t-51.5 -94
q-25 -41 -55.5 -96.5t-69.5 -105.5t-86 -83t-104 -29zM74 631q-6 -16 4 -29.5t26 -11.5q20 2 37 19.5t29 31.5q29 29 51.5 62.5t32.5 72.5v6q0 20 -9 27.5t-22.5 6.5t-29 -9t-25.5 -21q-29 -35 -53.5 -73.5t-40.5 -81.5zM31 344v27v-27z" />
    <glyph glyph-name="f" unicode="f" horiz-adv-x="471" 
d="M33 205q0 10 0 9v-5v-7t0 3zM-51 258v2v-2zM-18 575q47 281 180 535q16 31 29.5 47.5t52.5 13.5q25 -2 63.5 -9t54.5 -25q18 -20 6 -38t-16 -38q-6 -39 -15 -47t-46 16q-12 8 -30.5 -19.5t-40 -74.5t-42 -105.5t-38 -112.5t-30 -95t-14.5 -52q-4 -10 -8 -24.5t-5 -25.5
t5 -16t25 1q33 10 64.5 19.5t64.5 19.5q66 18 125 44.5t120 49.5q16 6 17.5 1t-5.5 -14.5t-15.5 -18.5t-10.5 -9q-29 -23 -56.5 -37t-58.5 -31q-63 -31 -129.5 -54t-134.5 -46q-25 -10 -26.5 -25.5t6.5 -35t22.5 -40t20.5 -36.5q25 -55 18.5 -113.5t-22.5 -113.5
q-8 -25 -25.5 -42.5t-37 -22.5t-40 4t-33.5 36q-25 49 -26.5 105.5t-1.5 111.5v2q0 20 4 46t-6 44q-4 8 -16.5 14.5t-24.5 12.5t-20.5 14t-4.5 21q6 23 29.5 28.5t40.5 12.5q10 4 16 20t8 35.5t3.5 38t3.5 28.5zM70 168q2 27 1 56.5t-16 54.5q-8 14 -13 4.5t-7 -25.5
t-2 -33.5v-19.5q0 -27 -1 -52.5t9 -50.5q4 -12 9 -5t9 22.5t7.5 31t3.5 17.5z" />
    <glyph glyph-name="g" unicode="g" horiz-adv-x="671" 
d="M205 705v-3v3zM821 446q-4 10 0 1t0 -1zM205 707v-2v2v0zM248 762q23 8 44 35.5t40 42.5q25 18 53.5 27.5t56 5t50 -20.5t36.5 -47q6 -12 13.5 -56t15.5 -91.5t16.5 -84t14.5 -36.5q35 2 68.5 1t64.5 -10.5t56.5 -28t43.5 -53.5q10 -16 4 -34q-29 10 -50 31.5t-56 27.5
q-33 6 -69 4t-68 -12q-10 -4 -15.5 -14.5t-7.5 -22.5t-2 -25.5v-21.5q-4 -37 -14.5 -75t-20.5 -73q-45 -141 -120.5 -273t-178.5 -241q-51 -53 -115.5 -102t-138.5 -66q-29 -6 -59.5 -5t-58 10.5t-49 29t-29.5 49.5q-18 68 -3 140.5t49 142.5t79 132.5t86 111.5
q47 57 105 112.5t122 96.5q59 39 120.5 64.5t121.5 58.5q12 6 17 26.5t6 45t0 47t-1 34.5q0 41 -4 80t-18 78q-10 31 -33 25.5t-46.5 -27t-45 -48t-27.5 -36.5q-23 -33 -36 -70t-34 -69q-20 -33 -40.5 -64t-43.5 -61q-16 -23 -36.5 -48.5t-45 -45t-53 -30t-59.5 2.5
q-37 14 -48 46t-7 70.5t18 75.5t27 60q68 119 172 186q18 12 34.5 10t33 -8t33 -11t32.5 1zM205 707q6 8 -2 9t-20.5 -2t-25 -9.5t-14.5 -10.5q-35 -41 -71 -94q-10 -16 -26.5 -42t-30 -53.5t-20.5 -56t-1 -49.5q2 -6 20.5 13.5t41 47t43 54.5t24.5 33q25 37 42 78t40 82z
M453 399q2 6 3 14.5t-1 4.5q2 14 -13.5 11t-36 -12t-39 -19.5t-20.5 -12.5q-29 -16 -58.5 -33.5t-54.5 -40.5q-59 -49 -113 -101t-102 -116q-45 -59 -81.5 -124.5t-65.5 -137.5q-16 -41 -29.5 -100.5t4.5 -106.5q16 -41 48 -43t72 18.5t83 57.5t80 76t63.5 71.5t36.5 44.5
q90 123 147.5 270.5t78.5 297.5q0 -6 -1 -10.5t-1 -8.5zM829 408q2 -2 2 -5q-4 4 -6 9h2h-2z" />
    <glyph glyph-name="h" unicode="h" horiz-adv-x="462" 
d="M45 188q-33 -25 -50.5 -9t-26.5 48.5t-10 68.5t-1 50q2 90 14.5 179t28.5 177q20 98 43 197.5t57 192.5q12 33 39 31.5t51 -23.5q16 -16 19.5 -38t-0.5 -45.5t-11.5 -47t-11.5 -41.5q-4 -12 -16 -68.5t-25.5 -119t-20.5 -112.5t-1 -53q14 -4 28.5 19.5t31 51.5t37 48.5
t44.5 12.5q18 -6 28.5 -21.5t15.5 -36t5 -41v-37.5q0 -31 15 -69q4 -10 21.5 -26.5t12.5 -26.5q-4 -14 -16 -11.5t-24.5 12t-22.5 20.5t-12 15q-14 25 -18.5 51.5t-4.5 55.5q2 45 -7 49t-23.5 -13.5t-29 -44t-22.5 -42.5q-23 -47 -43 -97.5t-37 -101.5q-8 -23 -10 -43
t-6 -39.5t-13.5 -38.5t-27.5 -33z" />
    <glyph glyph-name="i" unicode="i" horiz-adv-x="321" 
d="M-16 139q-8 6 -20.5 35t-22 61.5t-13.5 58t4 25.5q0 57 9.5 112.5t21.5 109.5q16 59 40 111.5t46 107.5q14 35 27.5 40t24 -7.5t17.5 -35t7 -44.5q2 -57 -9.5 -101.5t-27.5 -97.5t-27.5 -106.5t-15.5 -106.5q0 -6 -2 -19.5t-2 -28.5t3 -27.5t11 -14.5q8 -4 16.5 6
t15.5 23.5t12 27t7 17.5q25 49 48.5 98t52.5 96q6 8 22.5 34t38 53.5t41 48t31.5 16.5q2 0 -10.5 -30t-33 -75t-45 -98t-47 -100t-38.5 -83t-21 -44q-10 -18 -28.5 -36t-42 -28t-47 -11t-43.5 13zM88 977q-4 16 16.5 35.5t32.5 25.5q8 6 25.5 -5t28 -28.5t7.5 -34t-34 -20.5
q4 2 -3 2t3 -2q-14 2 -43 5.5t-33 21.5z" />
    <glyph glyph-name="j" unicode="j" horiz-adv-x="468" 
d="M102 584q2 -8 9.5 -42t16.5 -71t17.5 -66.5t12.5 -27.5q29 8 56.5 27.5t55 44t52 49t47.5 43.5q25 20 49 39.5t47 40.5q2 2 11 6t17.5 6t11.5 0t-5 -15q-39 -51 -79 -100t-87 -90q-16 -14 -46 -33.5t-59.5 -42t-51 -46t-21.5 -46.5q2 -72 -8.5 -145.5t-30.5 -145.5
q-14 -49 -37 -101t-52.5 -99.5t-68.5 -86t-86 -63.5q-111 -57 -178.5 -59t-100 33.5t-31.5 99t26.5 135.5t73.5 142.5t112 123.5q49 41 97 80t101 74q27 18 37 44.5t11.5 57.5t-4 62.5t-9.5 60.5q-4 35 -9 67.5t-9 67.5q0 8 -4 22.5t-6.5 30t-2.5 30t7 20.5q18 23 38.5 10.5
t37 -40.5t27.5 -57.5t15 -39.5zM6 119q0 4 2 16t2 25.5t-2 24t-10 8.5q-23 -6 -46.5 -24.5t-41.5 -33.5q-49 -35 -93 -75t-81 -87q-23 -29 -48.5 -65.5t-44 -77.5t-23.5 -84t13 -80q20 -43 58.5 -44t76 18.5t71.5 51.5t48 54q57 82 84 181.5t35 191.5zM6 119q0 6 1 12
t-1 -12zM-47 852q-16 6 -23.5 22.5t19.5 24.5q12 2 20 -5t11.5 -17.5t-2 -18.5t-21.5 -6h-4zM-43 852h-2h2zM-45 852h-2h2z" />
    <glyph glyph-name="k" unicode="k" horiz-adv-x="616" 
d="M51 92q0 6 0 3v-7v-7t0 1v10zM47 -31q-18 -23 -47 -7.5t-41 32.5q-23 27 -33 66.5t-12 83.5t1 87t7 76q16 166 57 327t91 318l46 148t50 147q6 12 17.5 54t28.5 84t37.5 68t43.5 7q18 -12 21 -46t-1 -72.5t-12 -75.5t-10 -56q-16 -84 -37 -162.5t-43 -158.5
q-2 -8 -11.5 -41t-18.5 -69t-16 -64.5t-3 -26.5q29 10 57.5 33.5t54.5 42.5q35 25 68 48.5t66 47.5q10 6 23 7t23.5 -4t15.5 -14t-1 -24q-10 -23 -32.5 -47t-41.5 -39q-59 -47 -120.5 -92t-124.5 -86q-29 -20 -37.5 -38.5t-16.5 -51.5q-2 -8 12.5 -8t34 3t37 8t21.5 5
q90 16 181 22.5t183 -7.5q2 0 16.5 -4.5t29 -10.5t22.5 -12t-2 -10q-20 -8 -52 -4t-55 0q-84 -14 -166 -23.5t-165 -17.5q-25 -4 -48.5 -8.5t-48.5 -8.5q-10 -2 -16 -13t-10 -24.5t-5.5 -28t-3.5 -22.5q-10 -55 -7 -108.5t-3 -106.5v-10q0 -12 2 -29.5t2 -34t-2 -30
t-6 -19.5z" />
    <glyph glyph-name="l" unicode="l" horiz-adv-x="432" 
d="M334 567q35 37 69 60q10 6 23.5 7t21 -1t6.5 -8.5t-20 -12.5q-23 -8 -38 -26.5t-27.5 -40t-22.5 -45t-22 -39.5q-27 -37 -47.5 -81t-42 -86t-49 -78t-70.5 -56q-66 -31 -99.5 -0.5t-44 96.5t-4.5 153t19.5 168.5t28 144t18.5 81.5q16 57 30.5 111.5t34.5 109.5
q10 18 19.5 40.5t25.5 39.5q14 16 37 4t23 -31q2 -53 -5.5 -107.5t-19.5 -107.5t-25.5 -106.5t-25.5 -104.5q-14 -59 -23.5 -117.5t-15.5 -117.5q-2 -16 -6 -40t-7 -48.5t-1 -46t12 -35.5q12 -14 30.5 3t38 45t35 55.5t19.5 35.5q29 47 57.5 94t67.5 88z" />
    <glyph glyph-name="m" unicode="m" horiz-adv-x="782" 
d="M647 528q0 6 1 2t1 -9v-5zM326 463q-8 -23 -10.5 -43.5t0.5 -31.5t14.5 -6t31.5 36q29 43 53.5 89t53.5 91q10 16 22.5 37.5t29 40t35.5 29t44 4.5t36 -29t13 -49.5t0 -55t-2 -47.5q4 -33 -1 -64.5t1 -62.5q10 -35 41 -51q2 -2 9.5 -5t11.5 -6t4 -7t-13 -8
q-37 -10 -68.5 14t-41.5 59q-2 6 -7 34t-10.5 58.5t-10.5 55t-7 24.5q-6 2 -19.5 -17.5t-26.5 -44t-24.5 -47t-15.5 -28.5q-10 -18 -25.5 -40.5t-34 -43t-40 -35t-43.5 -16.5q-53 -4 -70.5 27.5t-17.5 78.5q0 27 4 51.5t8 49.5q2 10 8 27.5t11 37t8.5 37t-3.5 27.5
q-2 2 -13 -11.5t-24.5 -33t-23.5 -36.5t-12 -22q-23 -43 -36 -93t-22 -97q-8 -53 -23.5 -105.5t-29.5 -103.5q-10 -37 -41 -61.5t-72 -16.5t-54 53.5t-12 100.5t9 108.5t12 77.5q18 121 45 240t74 229q10 27 22.5 50.5t22.5 48.5q14 31 28.5 37t49.5 8q18 2 22.5 -23
t0.5 -55.5t-11.5 -60t-9.5 -38.5q-18 -53 -32.5 -109t-26.5 -112q-4 -16 -12.5 -41.5t-14.5 -53.5t-9 -53.5t5 -39.5q10 4 17.5 30.5t11.5 36.5q12 29 22 60t27 59q23 43 50.5 84t68.5 66q23 12 44 10t37.5 -15.5t23.5 -34t1 -44.5q-12 -53 -28.5 -105.5t-34.5 -103.5z" />
    <glyph glyph-name="n" unicode="n" horiz-adv-x="399" 
d="M-47 375q4 104 24.5 212.5t61.5 205.5q6 14 21.5 23t33 11t31.5 -6t20 -26q4 -12 -4 -35t-18 -45.5t-17.5 -42t0.5 -27.5l41 45q16 16 29.5 31.5t18.5 19.5q27 18 44 15.5t27 -19t15.5 -40t5.5 -44.5q0 -4 2 -35.5t7 -66.5t11 -61.5t12 -22.5q-20 -16 -36.5 0t-26.5 43
t-16.5 54.5t-6.5 35.5v40t-4 40t-14 19t-33 -23q-37 -41 -56.5 -86t-35.5 -96q-8 -25 -12 -51.5t-10.5 -54.5t-13.5 -52.5t-21 -44.5q-23 -33 -38 -31t-24.5 20.5t-13.5 45t-4 45.5q2 14 1 11t-1 -7v-4v4z" />
    <glyph glyph-name="o" unicode="o" horiz-adv-x="337" 
d="M61 190q-49 2 -73.5 37t-33.5 82t-7 97.5t6 80.5q6 35 16.5 90.5t28.5 107.5t47 92t72 46q29 4 40 -8t13 -33.5t-1 -46t-1 -45.5q4 -49 19.5 -96t19.5 -96q0 -35 -3 -85.5t-17.5 -99.5t-42 -84.5t-74.5 -38.5h-9zM76 541q-8 -41 -10.5 -85t2.5 -85q4 -45 14 -55.5
t31 40.5q16 37 18 78t2 82q0 33 -1 75t-15 71q-10 -4 -17.5 -19.5t-11.5 -35t-7 -39t-5 -27.5zM70 190h-4h4zM66 190h-5h5z" />
    <glyph glyph-name="p" unicode="p" horiz-adv-x="448" 
d="M20 0q-33 12 -49 52t-22 95.5t-4 120t8 126t14 112.5t15 82q4 18 11 63t20.5 89t33 77t47.5 29q37 -6 45 -32t4 -58q0 -4 -3 -21.5t-5 -36t-2 -33t6 -10.5q29 12 48.5 39t48.5 37q33 12 60.5 1t39.5 -44q12 -31 7 -64.5t-19.5 -66.5t-34 -63.5t-35.5 -53.5
q-23 -29 -44.5 -54.5t-45.5 -49.5q-27 -27 -60 -43q-27 -14 -28.5 -29.5t-3.5 -42.5q-2 -35 -2 -76t10 -75q6 -16 5 -33t-8 -27t-22 -14t-35 4zM76 354q-6 -37 8 -33.5t34.5 21.5t40 43t25.5 33q18 27 38 56.5t36 61t27.5 65.5t11.5 67v8q-4 33 -20.5 27.5t-38 -26t-41 -46
t-27.5 -35.5q-45 -59 -63.5 -114.5t-30.5 -127.5zM297 668v8v-8z" />
    <glyph glyph-name="q" unicode="q" horiz-adv-x="763" 
d="M334 358q12 -2 24.5 4.5t24.5 15.5t23.5 18.5t21.5 15.5q35 23 67.5 44t67.5 44q8 6 46 29.5t80 48t77 43t39 12.5q4 -4 -33 -34t-83 -64.5t-87 -63.5t-47 -33q-39 -29 -77 -56.5t-79 -51.5q-18 -10 -35.5 -20.5t-26.5 -22t-5 -22.5t30 -25q59 -31 90 -78t41.5 -103.5
t2 -119t-26.5 -124t-45 -116.5t-53 -98q-16 -25 -42 -57.5t-56.5 -57.5t-66.5 -34t-69 13q-37 25 -53 65t-20.5 87t0 94t8.5 84q14 92 31.5 180t39.5 181q12 49 23.5 100t30.5 98q2 6 11 34t18.5 58.5t15.5 55t2 28.5q-4 2 -27.5 -24.5t-51.5 -59t-53.5 -62.5t-31.5 -36
q-18 -18 -42 -29.5t-47.5 -13.5t-46 8.5t-36.5 38.5q-14 25 -14 55.5t8 62.5t21.5 61.5t25.5 52.5q37 66 87 88t124 0q16 -6 32.5 -17.5t20.5 -29.5q2 -8 12.5 1t23.5 23.5t23.5 27.5t12.5 17q12 16 31.5 44t42 49.5t48 29.5t52.5 -14q23 -18 20.5 -48t-15.5 -61.5
t-29.5 -60.5t-24.5 -47q-10 -25 -23.5 -55.5t-25 -62.5t-19.5 -60.5t-8 -49.5q0 -2 2 -2t-2 2zM104 567q4 25 0 33t-12 5t-19.5 -15t-21.5 -25q-23 -35 -41 -75.5t-22 -81.5v-11q2 -20 10 -21t19.5 6t22.5 19.5t17 20.5q16 18 24.5 34.5t12.5 33t5 35.5t5 42zM428 86
q-10 43 -42 68.5t-73 42.5q-23 8 -36 -6.5t-21 -38t-12 -49t-6 -40.5q-23 -102 -46.5 -203.5t-29.5 -205.5v0v-11v-5v16q0 -6 2 -30.5t8 -50.5t15.5 -42t25.5 -6q39 25 65.5 67.5t49.5 83.5q20 43 43.5 94.5t41 104.5t22.5 107.5t-7 103.5zM-12 397v11v-11z" />
    <glyph glyph-name="r" unicode="r" horiz-adv-x="366" 
d="M-27 344q2 100 19.5 199.5t46.5 195.5q6 14 12 35t17.5 35t27 19.5t37.5 -9.5q6 -4 6 -29.5t-3 -53t-6 -48.5l-3 -22q14 2 24.5 14t20.5 22q41 41 96 48q16 0 38 -5.5t26 -23.5q0 -4 1 -15.5t0 -22.5t-5 -19.5t-13 -8.5q-4 0 -7 8.5t-6 17.5t-6 18.5t-5 11.5
q-4 8 -14.5 5t-22.5 -9.5t-22.5 -14.5t-12.5 -10q-43 -37 -66.5 -90t-35.5 -107q-10 -47 -13.5 -94t-17.5 -92q-8 -27 -32.5 -33t-49.5 -4q-14 0 -20.5 10.5t-9.5 22.5t-2 25.5t1 23.5z" />
    <glyph glyph-name="s" unicode="s" horiz-adv-x="491" 
d="M162 813h-2h2zM315 -35q-53 -53 -139 -108.5t-181 -86t-187.5 -21.5t-155.5 85q-31 37 -29 84t21.5 95t50.5 91t55 74q66 80 149 147.5t171 120.5q18 12 37.5 21.5t35.5 26.5q6 6 0 11t-16 10t-19.5 8t-11.5 3q-39 16 -79 32.5t-56 59.5q-20 47 -6 83t48 59.5t77 37
t80 15.5h4q55 -4 61 -23.5t-43 -50.5q-10 -6 -32.5 -19t-45 -29.5t-38 -34t-11.5 -33.5q2 -14 23.5 -26.5t48.5 -24t52.5 -19.5t37.5 -14q10 -6 39 -3t58.5 8t53 8t25.5 -3q4 -10 -12 -18.5t-36.5 -16.5t-34 -17.5t-3.5 -19.5q39 -41 72 -83t55 -95q18 -45 14 -91t-23 -90
t-49 -83t-61 -70zM-317 -88q-10 -35 1 -56.5t33.5 -31.5t51 -11t55.5 5q63 16 119.5 47t111.5 65q45 29 96.5 67t93.5 84t69.5 99t27.5 113q-2 18 -9 42.5t-20.5 48.5t-32 41t-38.5 21q-23 4 -49.5 -14t-42.5 -31q-35 -23 -69 -47t-67 -51q-47 -35 -98 -78t-98 -93
t-84 -106.5t-51 -113.5zM164 813h-2h2z" />
    <glyph glyph-name="t" unicode="t" horiz-adv-x="468" 
d="M-340 840q-6 2 -14 8t-13.5 14t-4.5 15.5t14 11.5q51 18 108 24q63 10 125 21.5t125 23.5q25 4 60.5 7.5t56.5 19.5q18 16 30.5 51t22.5 58q8 18 20.5 41.5t34.5 27.5q20 4 32.5 -17.5t14.5 -37.5q0 -10 -2 -24.5t-5 -29t-2 -27.5t7 -19q4 -4 18.5 -3t32 4t34 6t22.5 3
q59 6 127.5 10t136.5 0t131.5 -21.5t114.5 -56.5q10 -10 12 -20q-20 -2 -44 15.5t-44 21.5q-33 8 -66.5 11t-68.5 3q-70 -2 -140.5 -11t-138.5 -24q-25 -4 -55.5 -7t-60 -9t-54 -20.5t-32.5 -41.5q-23 -72 -43.5 -143.5t-36.5 -144.5q-16 -68 -26.5 -136.5t-6.5 -138.5
q2 -23 8 -57.5t18.5 -59t32 -28.5t47.5 35q43 59 79 125.5t75 132.5q18 31 37.5 62.5t42.5 59.5q6 8 15 22.5t19.5 30t21.5 28t22 14.5q10 -8 1 -32t-26.5 -51.5t-34 -52t-22.5 -34.5q-29 -59 -60.5 -117.5t-62.5 -118.5q-25 -47 -52.5 -99t-74.5 -85q-49 -33 -93 -18.5
t-71 65.5t-35 109.5t-7 120t10.5 122t19.5 115.5q10 63 24.5 125.5t34.5 126.5q6 18 4 26.5t-9 8.5t-19.5 -4.5t-26.5 -6.5q-31 -6 -62.5 -11t-62.5 -11q-47 -10 -107.5 -17t-107.5 9zM887 950q-8 6 -8 5t3 -2t5 -3t0 0zM903 922q-4 -2 -4 6q10 0 4 -6zM899 928v2v-2z" />
    <glyph glyph-name="u" unicode="u" horiz-adv-x="657" 
d="M432 528q0 -12 -1 -49t4 -69.5t16.5 -46t35.5 25.5q37 59 71 126t87 114q8 8 19.5 16t17.5 10t7 -4t-7 -24q-16 -29 -26.5 -59.5t-26.5 -59.5q-12 -23 -27.5 -57.5t-37 -67.5t-48.5 -57.5t-57 -24.5q-37 0 -54.5 21.5t-25.5 52.5t-8 64.5v58.5q-2 37 -1 74.5t-5 74.5
q-2 18 -10.5 17.5t-17.5 -10t-17.5 -20.5t-10.5 -13q-45 -66 -85 -130.5t-79 -132.5q-10 -18 -27.5 -53t-40 -66.5t-48 -54t-54.5 -18.5q-33 6 -46 42t-13 87t10.5 112.5t23.5 118t26.5 101.5t19.5 63q4 10 17.5 48t31.5 76t37.5 66.5t38.5 20.5q35 -16 42 -46t-1 -65.5
t-22.5 -71.5t-22.5 -61q-23 -72 -39.5 -146.5t-24.5 -150.5q-4 -35 6.5 -33.5t24.5 27.5q16 35 34.5 68t37.5 67q33 59 74.5 124t103.5 100q41 25 62.5 6t29.5 -54.5t7 -75.5t-1 -61v15v-5v-11t0 1z" />
    <glyph glyph-name="v" unicode="v" horiz-adv-x="382" 
d="M88 362q0 -10 -1 -32.5t1 -40t8 -18.5t19 30q23 53 42 103.5t40 103.5q14 39 29.5 85t32.5 90t40 85t53 72q8 8 10.5 2t-1 -17.5t-6.5 -22.5l-3 -11q-10 -25 -20 -48.5t-21 -46.5q-23 -49 -41 -99t-34 -101q-10 -33 -19.5 -77t-22 -87t-33 -79t-55.5 -54
q-47 -23 -74.5 -11.5t-43 41t-21.5 69.5t-6 75q2 6 2 13t-2 3q6 82 16.5 164t32.5 160q6 23 11.5 42t14.5 31.5t24.5 15.5t43.5 -7q33 -12 37 -44t0 -61q-14 -84 -30.5 -163t-22.5 -165zM-39 373v16v-16z" />
    <glyph glyph-name="w" unicode="w" horiz-adv-x="638" 
d="M287 502q-2 10 -7.5 6t-10.5 -13.5t-8 -18.5l-3 -9q-8 -23 -15 -44.5t-18 -43.5q-20 -49 -39.5 -102.5t-48.5 -98.5q-10 -16 -29.5 -29.5t-41 -19.5t-44 -4t-38.5 18q-29 31 -29 82v92v2q0 18 5 76t17.5 130.5t31 150.5t42 137t53 90t66.5 10q14 -10 20.5 -26.5
t5.5 -34.5t-5.5 -36.5t-6.5 -31.5q-8 -47 -17 -94t-20 -94q-10 -45 -19 -90t-17 -90q-2 -4 -3.5 -27.5t-3.5 -48.5q-2 -31 -6 -66q12 6 23.5 30t21 51.5t15.5 54t12 39.5q6 18 15.5 44.5t20.5 53t26.5 48t35.5 28.5q31 10 47.5 1.5t25.5 -25.5t13 -40.5t6 -44.5
q0 -6 4.5 -37t10.5 -63.5t14 -55t19 -12.5q29 31 45 76t23 95t8 100.5t-3 89.5q-2 18 -5 35.5t-13 33.5q-2 2 -10.5 7t-16.5 11.5t-12 11.5t2 7q49 20 74.5 -10.5t36.5 -73.5q25 -98 13.5 -198.5t-65.5 -186.5q-23 -37 -60.5 -45t-72.5 23q-37 33 -46 84t-19 96zM-45 317
q0 -2 0 7.5v16.5t0 5v-27v-2z" />
    <glyph glyph-name="x" unicode="x" horiz-adv-x="530" 
d="M-127 176q-6 0 -22.5 -1t-32 2t-24.5 8t1 18q16 23 30.5 23.5t37.5 9.5q25 10 46 39.5t36 50.5q18 27 39.5 51t38.5 53q6 12 6 30.5t-4.5 40t-8.5 41t-6 33.5q-6 80 -18 158q-2 18 -7 31.5t-5 24t6 16.5t28 10q-4 -2 2.5 -2h10.5q31 -4 50 -20.5t31.5 -39t18.5 -50
t10 -54.5q4 -25 12.5 -26.5t17.5 8.5t19.5 25.5t18.5 25.5q23 27 45 53.5t47 52.5q27 27 54.5 50.5t58.5 46.5q4 4 16 10t21.5 9t11.5 -1t-13 -20q-23 -23 -46 -42.5t-44 -43.5q-18 -27 -35.5 -54.5t-37.5 -52.5q-37 -49 -76 -106q-16 -23 -40 -53.5t-24 -63.5q0 -18 1 -58
t7.5 -81t21.5 -72t46 -33q20 -2 54 31t73 81t78 105.5t70.5 105.5t51 79.5t21.5 31.5q10 -8 -3 -41.5t-33.5 -72.5t-42 -75t-25.5 -46q-31 -63 -73 -132t-101 -110q-33 -23 -62.5 -23.5t-56.5 11.5t-48.5 36.5t-35.5 53.5q-4 6 -9 21.5t-11.5 31t-15.5 22.5t-17 -5
q-20 -27 -40 -53.5t-46 -49.5q-14 -14 -34 -29.5t-40 -19.5z" />
    <glyph glyph-name="y" unicode="y" horiz-adv-x="659" 
d="M684 647q-2 2 1 1t-1 -1zM399 150q-20 -72 -42.5 -142.5t-54.5 -137.5t-76 -124t-107 -102q-25 -16 -55.5 -29.5t-63.5 -17t-61.5 6t-49.5 40.5q-31 45 -25.5 100t17.5 102q41 141 127 264t201 216q23 18 52.5 34.5t57 36t47 43t19.5 54.5q0 16 1 57t-3 78t-18.5 55
t-42.5 -12q-57 -59 -99.5 -131t-89.5 -140q-14 -20 -32.5 -47.5t-41 -50t-49 -36t-57.5 -5.5q-41 10 -50 52t-2 92.5t22.5 98.5t25.5 70q6 10 14 29t18.5 36t23.5 29.5t30 10.5q33 -4 41 -28.5t4 -51.5q-2 -10 -15.5 -45t-27.5 -75t-21.5 -73.5t2.5 -39.5q10 -4 39 33.5
t61 87t59.5 94.5t35.5 57q16 25 36.5 50.5t45 44t54.5 22.5t63 -17q16 -10 24 -25.5t11.5 -35t3.5 -38.5v-34q0 -4 -1 -23.5t-1 -40t3 -35.5t11 -11q37 14 70.5 38.5t62.5 49.5q4 4 16.5 15t25.5 23.5t26.5 19.5t19.5 5q12 -4 3 -21.5t-13 -21.5q-20 -35 -50 -61.5
t-61 -48.5q-25 -18 -56.5 -36t-53.5 -40q-18 -23 -18.5 -58.5t-4.5 -62.5q-6 -37 -13.5 -74.5t-17.5 -72.5zM-20 -375q27 0 55 16.5t53 40t45.5 50t34.5 47.5q84 125 134 271.5t69 293.5q-2 -20 -2 -22.5t0 3t1 12.5l1 7q2 14 -21.5 2t-54.5 -32.5t-57.5 -42t-32.5 -25.5
q-49 -45 -90 -91t-76 -104q-47 -72 -83 -158t-40 -172q-4 -35 9.5 -65.5t54.5 -30.5z" />
    <glyph glyph-name="z" unicode="z" horiz-adv-x="800" 
d="M238 465q14 12 16 19.5t-2 13.5t-11.5 14t-13.5 20q-12 25 -12 54.5t4 54.5q2 23 14.5 48.5t24.5 52t22.5 50t8.5 42.5q-45 -49 -93.5 -106.5t-66.5 -123.5q-6 -29 -33.5 -41t-56.5 -9t-50.5 18.5t-17.5 43.5q6 31 23.5 62t40 61.5t47 58t45.5 50.5q20 23 46 51.5
t56.5 54t62.5 44t64 20.5q37 2 55.5 -15.5t26.5 -44t6 -57.5t-8 -53q-18 -72 -51 -136.5t-57 -133.5q-4 -14 7 -14.5t27.5 3.5t32 11.5t17.5 7.5q6 2 20 10t28.5 14t27 6t16.5 -10q4 -8 18.5 -15t31.5 -12.5t33.5 -10.5t26.5 -11q37 -23 47.5 -56.5t12.5 -74.5
q2 -74 -15.5 -145.5t-47 -140t-66.5 -133t-74 -126.5q-35 -59 -80 -119.5t-100 -112.5t-120 -88t-136 -46q-59 -8 -96 12t-57.5 59t-28 91.5t-5.5 104.5t10.5 100t18.5 81q47 154 143.5 277t217.5 225zM367 485q-74 -55 -140 -120q-59 -59 -109 -125t-91 -140l18 33l-6 -11
t-12.5 -22.5t0.5 0.5q-76 -137 -101 -284q-4 -25 -8 -67t0 -82t20.5 -72.5t51.5 -38.5q76 -16 145.5 23.5t129 104t106.5 139.5t75 128q39 72 65 147.5t46 153.5q10 39 17.5 78t9.5 80q4 59 -12.5 78.5t-75.5 15.5q-29 -2 -64.5 -4.5t-64.5 -14.5z" />
    <glyph glyph-name="braceleft" unicode="{" horiz-adv-x="497" 
d="M106 258q10 39 20.5 76t20.5 74q4 14 3.5 19t-6 7t-13.5 2t-16 4q-57 23 -68.5 51.5t2.5 59.5t45 64.5t59.5 67.5t44 67.5t1.5 64.5q-16 33 -32.5 63.5t-29 63.5t-18.5 66.5t0 70.5q8 57 50 111.5t87 89.5q8 6 38 20.5t62.5 23.5t57 7t22.5 -28q-2 -20 -29.5 -33
t-41.5 -23q-27 -23 -44.5 -46t-33.5 -52q-18 -29 -33.5 -57.5t-23 -59.5t-4.5 -61.5t24 -63.5q14 -23 30.5 -46t31 -48t23.5 -51.5t7 -54.5q-2 -29 -17.5 -53.5t-36 -45t-44 -39t-43.5 -37.5q-10 -10 -8 -17t11 -13t19 -12.5t17 -12.5q23 -23 21.5 -49.5t-7.5 -54.5
q-16 -70 -34.5 -133.5t-8.5 -135.5q2 -27 15.5 -59.5t35 -60t50 -44t61.5 -10.5q8 2 21.5 7.5t27.5 9.5t27.5 5t21.5 -5t-1 -15.5t-25.5 -16.5t-32 -13t-17.5 -6q-31 -14 -64.5 -13.5t-66.5 13t-61.5 33t-48.5 44.5q-49 59 -56.5 136t8.5 149zM115 440q2 0 -5 3t5 -3z" />
    <glyph glyph-name="bar" unicode="|" horiz-adv-x="366" 
d="M66 59q-10 113 -9.5 227.5t10 231.5t24.5 233.5t32 235.5q2 12 6 61.5t12.5 103.5t18.5 94t24 34q33 -12 46.5 -43t15.5 -66.5t-2 -72.5t-4 -64q-4 -84 -20.5 -166t-26.5 -163q-12 -92 -19.5 -186.5t-15.5 -186.5q-4 -47 -7.5 -95.5t-9.5 -95.5q-6 -43 -5 -90t-9 -88
q-4 -16 -16.5 -9t-16.5 13q-14 18 -20 43.5t-8 48.5z" />
    <glyph glyph-name="braceright" unicode="}" horiz-adv-x="428" 
d="M389 604q-4 -29 -18.5 -53.5t-31.5 -47t-34.5 -46t-23.5 -49.5q-8 -33 2 -65t20 -60q10 -37 17.5 -74t7.5 -76q0 -61 -19.5 -122.5t-72.5 -100.5q-18 -14 -39 -21.5t-43 -11.5q-18 -4 -55.5 -8t-53.5 6q-6 4 -16.5 11.5t-17.5 16.5t-11 18t0 20q6 10 20.5 15t32 8t34.5 5
t28 6q27 8 50 26.5t40.5 43.5t27 52.5t9.5 56.5q0 -16 0 -14.5v8v10.5t0 -4q0 29 -6.5 56.5t-15.5 55t-17 56t-8 57.5q-2 61 20.5 109.5t58.5 95.5q6 8 1 17t-15 17.5t-20.5 15.5t-14.5 13q-23 27 -34 59.5t-15 65.5q-10 66 2 127.5t35 122.5q4 12 16.5 42t20.5 61.5t7 59
t-19 36.5q-27 12 -55.5 2.5t-55.5 -4.5q-6 0 -16.5 6t-17.5 13t-9 14.5t8 13.5q55 29 110.5 26.5t97.5 -30t63.5 -76.5t9.5 -115q-12 -63 -24.5 -126.5t-18.5 -127.5q-2 -29 -4 -62.5t8 -60.5q6 -16 16 -24t19.5 -15.5t15.5 -19t4 -31.5z" />
    <glyph glyph-name="exclamdown" unicode="&#xa1;" horiz-adv-x="329" 
d="M102 424q18 125 50 246t45 248q2 25 0 57.5t-13 56.5q-4 8 5.5 10t20.5 -1t22.5 -7t15.5 -8q41 -45 48 -134t-4 -191.5t-33.5 -202t-41.5 -162.5q-8 -33 -15 -63.5t-14 -65.5q-2 -10 -11 -14.5t-21.5 -3.5t-23.5 6.5t-15 11.5q-29 47 -26 107.5t11 109.5zM252 1227h2h-2
q-12 2 -21.5 11t-13.5 20.5t-1 21.5t15 16q12 4 25.5 -5t20 -22.5t2 -26.5t-24.5 -15h-2z" />
    <glyph glyph-name="cent" unicode="&#xa2;" horiz-adv-x="507" 
d="M63 373v-2v2zM63 371v-2v2zM354 287q-12 -12 -21 -19.5t-15.5 -12.5t-9.5 -11t-3 -19q0 -6 6 -28.5t13.5 -47t12.5 -46t3 -25.5q-6 -10 -16.5 1t-21.5 28.5t-19.5 34t-8.5 20.5q-10 29 -15 44t-36 19q-72 8 -112.5 38t-47.5 106q2 -6 2.5 3t-2.5 1q6 59 19.5 112.5
t42.5 106.5q8 18 27.5 47t42 56.5t48 48t50.5 22.5q6 2 10 23.5t9 50t9.5 57.5t8.5 41q6 16 12 13t11 -14t9.5 -25.5t4.5 -18.5q0 -8 -4.5 -25.5t-7.5 -36t-3 -35t6 -22.5l25 -2t49.5 -9t33.5 -18.5t-24 -27.5q-31 -16 -51 -29.5t-32.5 -31t-18.5 -41t-10 -60.5
q-2 -8 -6.5 -48t-8.5 -84t-6 -79t4 -31q8 6 30 35t44.5 61.5t43 60.5t28.5 28q25 2 13.5 -29t-36 -71t-51.5 -73.5t-31 -37.5zM246 281q12 16 6 50t-2 54q0 4 1 26.5t1 48v47t-2 23.5q-6 6 -19.5 -18.5t-27 -61t-23.5 -78.5t-6 -71q4 -27 32 -31.5t40 11.5zM250 385
q0 -8 0 -3v10v6t0 -13z" />
    <glyph glyph-name="sterling" unicode="&#xa3;" horiz-adv-x="768" 
d="M459 543q2 0 4 1t6 1h9t-19 -2zM498 719q-23 -33 -42.5 -65.5t-37.5 -67.5q-20 -37 -6 -42t47 -1q-4 0 1 0t9 2h44t58.5 -2t50 -6.5t19.5 -12.5q-2 -10 -39 -19t-81 -17.5t-85 -13.5t-51 -7q-23 -4 -39 -26.5t-28.5 -52.5t-21.5 -59.5t-15 -47.5q-10 -29 -17.5 -58.5
t-15.5 -60.5q-6 -23 0 -28t17 -2t24.5 10.5t21.5 13.5q59 35 123 60.5t131 35.5q10 2 24.5 4t30 2t27.5 -5t19 -17q2 -4 -11.5 -8.5t-31 -7.5t-34 -6t-18.5 -3q-68 -14 -125 -37.5t-114 -60.5q-18 -12 -45 -27.5t-55.5 -25t-54 -6.5t-42.5 30q-18 31 -19 60.5t6 58
t20.5 58.5t23.5 58q10 25 21.5 48.5t15.5 52.5q2 6 -10.5 10t-30 5t-32.5 2t-21 5q-10 6 -16.5 21.5t16.5 13.5q27 -2 67.5 4t63.5 23q18 16 29.5 43.5t23.5 50.5q16 29 35.5 58.5t36.5 58.5q14 27 33.5 56.5t41 59t46 55t49.5 44.5q20 14 40.5 9t42.5 3q25 10 59 5t56 -15
q8 -4 19.5 -12.5t18.5 -18.5t8 -21.5t-13 -19.5q-29 -16 -53.5 -3t-46.5 28q-18 12 -45 -8.5t-51.5 -52t-45 -63.5t-26.5 -42z" />
    <glyph glyph-name="copyright" unicode="&#xa9;" horiz-adv-x="880" 
d="M739 1235q20 -20 30.5 -46t14.5 -52q4 -45 -3 -96.5t-25.5 -101.5t-44 -95t-58.5 -78q-70 -68 -163 -90.5t-185 10.5q-100 35 -143 119t-8 186q41 117 132 200t199 132q25 12 61 2t52 -33q16 -20 6 -30.5t-31 0.5q-14 8 -37.5 -4.5t-48 -31t-47 -38t-30.5 -27.5
q-29 -27 -67 -76t-64.5 -105t-32.5 -111.5t30 -92.5q37 -35 89.5 -30.5t105.5 29t99 59t71 61.5q37 39 65.5 98.5t28.5 112.5q4 63 -22 113q-2 2 -10.5 11t-17.5 18t-17.5 14.5t-10.5 3.5q6 6 17.5 3t25 -9.5t24.5 -13.5t15 -11zM504 1171q0 2 4 2t-4 -2zM516 1100
q-16 -8 -34.5 -44t-28 -75t-5 -68.5t30.5 -25.5q14 2 26.5 12t23 20.5l20.5 20.5t22 16q8 2 4 -9t-13 -26.5l-18 -31t-14 -17.5q-25 -23 -55.5 -29.5t-56 2.5t-42 32.5t-16.5 62.5q2 41 17.5 82t36.5 76q8 16 18 30.5t21 30.5q2 2 10 6t17 7.5t16.5 4.5t7.5 -6q23 2 51.5 -5
t26.5 -40q-4 -39 -31 -59q-10 -8 -16.5 -3t-10.5 13t-5 12z" />
    <glyph glyph-name="questiondown" unicode="&#xbf;" horiz-adv-x="784" 
d="M397 188q-8 0 -16 -2q4 0 8 1t8 1zM647 915q6 -102 -37 -184t-107.5 -154.5t-136 -140t-120.5 -139.5q-12 -18 -4 -29.5t24.5 -17.5t37 -8t30.5 -2q57 -2 110.5 8t108.5 20q6 0 19.5 4t26.5 5.5t24.5 -1t15.5 -10.5q2 -8 -4 -15t-16.5 -13.5t-20.5 -9.5t-16 -5
q-45 -18 -90.5 -25.5t-94.5 -9.5q6 0 2 0h-9t-9 -1t0 -1q-35 2 -78 8.5t-78 24t-56.5 46t-10.5 77.5q8 45 34.5 89t60.5 86t70.5 79t65.5 70q29 31 58.5 64.5t53 69.5t38 75.5t14.5 87.5q0 10 -8 33.5t-13.5 45t-2.5 31.5t26 -4q86 -56 92 -154zM594 1227h-4h4zM569 1276
q10 6 22.5 0t18.5 -16.5t4 -20.5t-20 -12h-4q-10 0 -19.5 5t-14.5 12t-3 15.5t16 16.5z" />
    <glyph glyph-name="Agrave" unicode="&#xc0;" horiz-adv-x="819" 
d="M74 -174q-8 -35 -18.5 -71t-20.5 -70q0 -4 -9.5 -23.5t-20.5 -38t-22.5 -28t-17.5 11.5q-16 70 -12 151.5t8 153.5q4 86 16.5 172t28.5 172q16 78 40 154.5t32 152.5q0 4 5 18.5t9 28t3 23.5t-13 8q-43 -8 -87 -10t-87 2q-6 0 -19.5 5t-22.5 11t-9 12.5t18 12.5
q41 10 80 17t80 18q33 8 64.5 13t45.5 40t27.5 70.5t30.5 70.5q33 68 68.5 138.5t76.5 136t90 127t109 110.5q16 16 46 41t56 14q33 -10 49.5 -24t34.5 -41q20 -29 11 -65.5t-13 -67.5q-6 -45 -12 -89t-14 -91q-12 -92 -31 -185q-4 -27 2 -38t18.5 -13t30.5 1t37 5
q88 10 179 17.5t177 -17.5q27 -8 24 -13t-19.5 -8t-36 -5t-25.5 -2q-47 -2 -93 -7.5t-94 -13.5q-94 -16 -182 -43q-20 -6 -32.5 -22.5t-18.5 -36t-9 -41t-5 -39.5q-4 -20 -8.5 -85t-6.5 -147t1 -168t18.5 -152.5t43 -99t75.5 -8.5q14 8 14 2t-7 -17t-17.5 -22.5t-18.5 -13.5
q-37 -14 -71 7.5t-52 49.5q-25 39 -35 84t-14 92.5t-4 94.5v90q-2 84 1 166t7 164q4 41 -7 52t-54 1q-45 -10 -90.5 -22.5t-90.5 -22.5q-33 -10 -61.5 -17.5t-40.5 -42.5q-12 -33 -18.5 -68.5t-12.5 -70.5q-14 -86 -24.5 -172t-22.5 -172q-10 -78 -24.5 -153.5t-32.5 -153.5
zM272 795q-6 -20 4.5 -24.5t25.5 -0.5t32.5 12.5t27.5 10.5q43 12 91 18q20 4 55 5t49 18q12 12 14 36.5t4 40.5q4 35 7.5 70t7.5 70q8 66 18 129t21 127v2q0 27 -14.5 20.5t-34 -25t-38 -41t-24.5 -28.5q-70 -82 -123 -182q-33 -59 -70 -125.5t-53 -132.5zM629 1307v2
q0 2 -1 -4.5t1 2.5v0zM543 389q0 -4 1 -25.5t1 -25.5q-2 25 -2 36v15zM612 1724q10 -2 4 -1t-4 1zM582 1698q-16 16 -17.5 23.5t6 9.5t19.5 -1.5t22 -5.5q35 -6 59.5 -18t49.5 -35q12 -12 18 -27.5t4 -25.5t-13 -13t-32 7q-65 31 -116 86z" />
    <glyph glyph-name="Aacute" unicode="&#xc1;" horiz-adv-x="819" 
d="M74 -174q-8 -35 -18.5 -71t-20.5 -70q0 -4 -9.5 -23.5t-20.5 -38t-22.5 -28t-17.5 11.5q-16 70 -12 151.5t8 153.5q4 86 16.5 172t28.5 172q16 78 40 154.5t32 152.5q0 4 5 18.5t9 28t3 23.5t-13 8q-43 -8 -87 -10t-87 2q-6 0 -19.5 5t-22.5 11t-9 12.5t18 12.5
q41 10 80 17t80 18q33 8 64.5 13t45.5 40t27.5 70.5t30.5 70.5q33 68 68.5 138.5t76.5 136t90 127t109 110.5q16 16 46 41t56 14q33 -10 49.5 -24t34.5 -41q20 -29 11 -65.5t-13 -67.5q-6 -45 -12 -89t-14 -91q-12 -92 -31 -185q-4 -27 2 -38t18.5 -13t30.5 1t37 5
q88 10 179 17.5t177 -17.5q27 -8 24 -13t-19.5 -8t-36 -5t-25.5 -2q-47 -2 -93 -7.5t-94 -13.5q-94 -16 -182 -43q-20 -6 -32.5 -22.5t-18.5 -36t-9 -41t-5 -39.5q-4 -20 -8.5 -85t-6.5 -147t1 -168t18.5 -152.5t43 -99t75.5 -8.5q14 8 14 2t-7 -17t-17.5 -22.5t-18.5 -13.5
q-37 -14 -71 7.5t-52 49.5q-25 39 -35 84t-14 92.5t-4 94.5v90q-2 84 1 166t7 164q4 41 -7 52t-54 1q-45 -10 -90.5 -22.5t-90.5 -22.5q-33 -10 -61.5 -17.5t-40.5 -42.5q-12 -33 -18.5 -68.5t-12.5 -70.5q-14 -86 -24.5 -172t-22.5 -172q-10 -78 -24.5 -153.5t-32.5 -153.5
zM272 795q-6 -20 4.5 -24.5t25.5 -0.5t32.5 12.5t27.5 10.5q43 12 91 18q20 4 55 5t49 18q12 12 14 36.5t4 40.5q4 35 7.5 70t7.5 70q8 66 18 129t21 127v2q0 27 -14.5 20.5t-34 -25t-38 -41t-24.5 -28.5q-70 -82 -123 -182q-33 -59 -70 -125.5t-53 -132.5zM629 1307v2
q0 2 -1 -4.5t1 2.5v0zM543 389q0 -4 1 -25.5t1 -25.5q-2 25 -2 36v15zM575 1567q-2 0 -4 2zM571 1569h-2h2zM631 1642q8 6 24.5 20.5t35 27t36.5 20.5t29 2q10 -4 3 -18.5t-19.5 -30.5t-26 -30.5t-17.5 -16.5q-23 -25 -54.5 -40t-66.5 -9h-4q-2 0 -3 1t1 1q-14 4 -8 15
t20.5 23.5t30 21.5t19.5 13z" />
    <glyph glyph-name="Acircumflex" unicode="&#xc2;" horiz-adv-x="819" 
d="M74 -174q-8 -35 -18.5 -71t-20.5 -70q0 -4 -9.5 -23.5t-20.5 -38t-22.5 -28t-17.5 11.5q-16 70 -12 151.5t8 153.5q4 86 16.5 172t28.5 172q16 78 40 154.5t32 152.5q0 4 5 18.5t9 28t3 23.5t-13 8q-43 -8 -87 -10t-87 2q-6 0 -19.5 5t-22.5 11t-9 12.5t18 12.5
q41 10 80 17t80 18q33 8 64.5 13t45.5 40t27.5 70.5t30.5 70.5q33 68 68.5 138.5t76.5 136t90 127t109 110.5q16 16 46 41t56 14q33 -10 49.5 -24t34.5 -41q20 -29 11 -65.5t-13 -67.5q-6 -45 -12 -89t-14 -91q-12 -92 -31 -185q-4 -27 2 -38t18.5 -13t30.5 1t37 5
q88 10 179 17.5t177 -17.5q27 -8 24 -13t-19.5 -8t-36 -5t-25.5 -2q-47 -2 -93 -7.5t-94 -13.5q-94 -16 -182 -43q-20 -6 -32.5 -22.5t-18.5 -36t-9 -41t-5 -39.5q-4 -20 -8.5 -85t-6.5 -147t1 -168t18.5 -152.5t43 -99t75.5 -8.5q14 8 14 2t-7 -17t-17.5 -22.5t-18.5 -13.5
q-37 -14 -71 7.5t-52 49.5q-25 39 -35 84t-14 92.5t-4 94.5v90q-2 84 1 166t7 164q4 41 -7 52t-54 1q-45 -10 -90.5 -22.5t-90.5 -22.5q-33 -10 -61.5 -17.5t-40.5 -42.5q-12 -33 -18.5 -68.5t-12.5 -70.5q-14 -86 -24.5 -172t-22.5 -172q-10 -78 -24.5 -153.5t-32.5 -153.5
zM272 795q-6 -20 4.5 -24.5t25.5 -0.5t32.5 12.5t27.5 10.5q43 12 91 18q20 4 55 5t49 18q12 12 14 36.5t4 40.5q4 35 7.5 70t7.5 70q8 66 18 129t21 127v2q0 27 -14.5 20.5t-34 -25t-38 -41t-24.5 -28.5q-70 -82 -123 -182q-33 -59 -70 -125.5t-53 -132.5zM629 1307v2
q0 2 -1 -4.5t1 2.5v0zM543 389q0 -4 1 -25.5t1 -25.5q-2 25 -2 36v15zM758 1567q-2 -8 -11.5 -2t-20.5 18t-20.5 24.5t-11.5 14.5q-12 23 -20 14.5t-21 -24.5q-16 -23 -32.5 -47.5t-40.5 -40.5q-18 -14 -39 -1t-6 36q8 14 27.5 45.5t43 62.5t49 51.5t47.5 14.5
q23 -6 35.5 -25.5t17.5 -44.5t5 -50.5t-2 -43.5v-2z" />
    <glyph glyph-name="Atilde" unicode="&#xc3;" horiz-adv-x="819" 
d="M74 -174q-8 -35 -18.5 -71t-20.5 -70q0 -4 -9.5 -23.5t-20.5 -38t-22.5 -28t-17.5 11.5q-16 70 -12 151.5t8 153.5q4 86 16.5 172t28.5 172q16 78 40 154.5t32 152.5q0 4 5 18.5t9 28t3 23.5t-13 8q-43 -8 -87 -10t-87 2q-6 0 -19.5 5t-22.5 11t-9 12.5t18 12.5
q41 10 80 17t80 18q33 8 64.5 13t45.5 40t27.5 70.5t30.5 70.5q33 68 68.5 138.5t76.5 136t90 127t109 110.5q16 16 46 41t56 14q33 -10 49.5 -24t34.5 -41q20 -29 11 -65.5t-13 -67.5q-6 -45 -12 -89t-14 -91q-12 -92 -31 -185q-4 -27 2 -38t18.5 -13t30.5 1t37 5
q88 10 179 17.5t177 -17.5q27 -8 24 -13t-19.5 -8t-36 -5t-25.5 -2q-47 -2 -93 -7.5t-94 -13.5q-94 -16 -182 -43q-20 -6 -32.5 -22.5t-18.5 -36t-9 -41t-5 -39.5q-4 -20 -8.5 -85t-6.5 -147t1 -168t18.5 -152.5t43 -99t75.5 -8.5q14 8 14 2t-7 -17t-17.5 -22.5t-18.5 -13.5
q-37 -14 -71 7.5t-52 49.5q-25 39 -35 84t-14 92.5t-4 94.5v90q-2 84 1 166t7 164q4 41 -7 52t-54 1q-45 -10 -90.5 -22.5t-90.5 -22.5q-33 -10 -61.5 -17.5t-40.5 -42.5q-12 -33 -18.5 -68.5t-12.5 -70.5q-14 -86 -24.5 -172t-22.5 -172q-10 -78 -24.5 -153.5t-32.5 -153.5
zM272 795q-6 -20 4.5 -24.5t25.5 -0.5t32.5 12.5t27.5 10.5q43 12 91 18q20 4 55 5t49 18q12 12 14 36.5t4 40.5q4 35 7.5 70t7.5 70q8 66 18 129t21 127v2q0 27 -14.5 20.5t-34 -25t-38 -41t-24.5 -28.5q-70 -82 -123 -182q-33 -59 -70 -125.5t-53 -132.5zM629 1307v2
q0 2 -1 -4.5t1 2.5v0zM543 389q0 -4 1 -25.5t1 -25.5q-2 25 -2 36v15zM545 1575q-8 18 6 33.5t35.5 28t44 18.5t35.5 4q16 -4 23 -15.5t13 -23.5q4 -10 12.5 -5t16.5 13t16.5 14.5t14.5 -0.5q12 -14 8 -31.5t-14 -31.5q-18 -23 -38 -17.5t-40 19.5q-18 12 -29.5 21.5
t-32.5 -9.5q-4 -4 -14 -10t-21.5 -11t-21.5 -6t-14 9zM666 1659h2h-2zM666 1659q-12 2 -8 1t8 -1z" />
    <glyph glyph-name="Adieresis" unicode="&#xc4;" horiz-adv-x="792" 
d="M74 -174q-8 -35 -18.5 -71t-20.5 -70q0 -4 -9.5 -23.5t-20.5 -38t-22.5 -28t-17.5 11.5q-16 70 -12 151.5t8 153.5q4 86 16.5 172t28.5 172q16 78 40 154.5t32 152.5q0 4 5 18.5t9 28t3 23.5t-13 8q-43 -8 -87 -10t-87 2q-6 0 -19.5 5t-22.5 11t-9 12.5t18 12.5
q41 10 80 17t80 18q33 8 64.5 13t45.5 40t27.5 70.5t30.5 70.5q33 68 68.5 138.5t76.5 136t90 127t109 110.5q16 16 46 41t56 14q33 -10 49.5 -24t34.5 -41q20 -29 11 -65.5t-13 -67.5q-6 -45 -12 -89t-14 -91q-12 -92 -31 -185q-4 -27 2 -38t18.5 -13t30.5 1t37 5
q88 10 179 17.5t177 -17.5q27 -8 24 -13t-19.5 -8t-36 -5t-25.5 -2q-47 -2 -93 -7.5t-94 -13.5q-94 -16 -182 -43q-20 -6 -32.5 -22.5t-18.5 -36t-9 -41t-5 -39.5q-4 -20 -8.5 -85t-6.5 -147t1 -168t18.5 -152.5t43 -99t75.5 -8.5q14 8 14 2t-7 -17t-17.5 -22.5t-18.5 -13.5
q-37 -14 -71 7.5t-52 49.5q-25 39 -35 84t-14 92.5t-4 94.5v90q-2 84 1 166t7 164q4 41 -7 52t-54 1q-45 -10 -90.5 -22.5t-90.5 -22.5q-33 -10 -61.5 -17.5t-40.5 -42.5q-12 -33 -18.5 -68.5t-12.5 -70.5q-14 -86 -24.5 -172t-22.5 -172q-10 -78 -24.5 -153.5t-32.5 -153.5
zM272 795q-6 -20 4.5 -24.5t25.5 -0.5t32.5 12.5t27.5 10.5q43 12 91 18q20 4 55 5t49 18q12 12 14 36.5t4 40.5q4 35 7.5 70t7.5 70q8 66 18 129t21 127v2q0 27 -14.5 20.5t-34 -25t-38 -41t-24.5 -28.5q-70 -82 -123 -182q-33 -59 -70 -125.5t-53 -132.5zM629 1307v2
q0 2 -1 -4.5t1 2.5v0zM543 389q0 -4 1 -25.5t1 -25.5q-2 25 -2 36v15zM690 1597q6 25 20.5 36.5t30 8t28.5 -16.5t17 -38q0 2 -1 -1t1 1q-6 -16 -24.5 -24.5t-35.5 -8.5t-29.5 10t-6.5 33zM561 1561q-4 0 -14 1t-19.5 4t-14.5 8t-1 15q18 39 61 56q12 4 18.5 -2.5t9.5 -17.5
t4 -22.5t-1 -17.5q-4 -16 -17.5 -20t-25.5 -4z" />
    <glyph glyph-name="Aring" unicode="&#xc5;" horiz-adv-x="819" 
d="M74 -174q-8 -35 -18.5 -71t-20.5 -70q0 -4 -9.5 -23.5t-20.5 -38t-22.5 -28t-17.5 11.5q-16 70 -12 151.5t8 153.5q4 86 16.5 172t28.5 172q16 78 40 154.5t32 152.5q0 4 5 18.5t9 28t3 23.5t-13 8q-43 -8 -87 -10t-87 2q-6 0 -19.5 5t-22.5 11t-9 12.5t18 12.5
q41 10 80 17t80 18q33 8 64.5 13t45.5 40t27.5 70.5t30.5 70.5q33 68 68.5 138.5t76.5 136t90 127t109 110.5q16 16 46 41t56 14q33 -10 49.5 -24t34.5 -41q20 -29 11 -65.5t-13 -67.5q-6 -45 -12 -89t-14 -91q-12 -92 -31 -185q-4 -27 2 -38t18.5 -13t30.5 1t37 5
q88 10 179 17.5t177 -17.5q27 -8 24 -13t-19.5 -8t-36 -5t-25.5 -2q-47 -2 -93 -7.5t-94 -13.5q-94 -16 -182 -43q-20 -6 -32.5 -22.5t-18.5 -36t-9 -41t-5 -39.5q-4 -20 -8.5 -85t-6.5 -147t1 -168t18.5 -152.5t43 -99t75.5 -8.5q14 8 14 2t-7 -17t-17.5 -22.5t-18.5 -13.5
q-37 -14 -71 7.5t-52 49.5q-25 39 -35 84t-14 92.5t-4 94.5v90q-2 84 1 166t7 164q4 41 -7 52t-54 1q-45 -10 -90.5 -22.5t-90.5 -22.5q-33 -10 -61.5 -17.5t-40.5 -42.5q-12 -33 -18.5 -68.5t-12.5 -70.5q-14 -86 -24.5 -172t-22.5 -172q-10 -78 -24.5 -153.5t-32.5 -153.5
zM272 795q-6 -20 4.5 -24.5t25.5 -0.5t32.5 12.5t27.5 10.5q43 12 91 18q20 4 55 5t49 18q12 12 14 36.5t4 40.5q4 35 7.5 70t7.5 70q8 66 18 129t21 127v2q0 27 -14.5 20.5t-34 -25t-38 -41t-24.5 -28.5q-70 -82 -123 -182q-33 -59 -70 -125.5t-53 -132.5zM629 1307v2
q0 2 -1 -4.5t1 2.5v0zM543 389q0 -4 1 -25.5t1 -25.5q-2 25 -2 36v15zM754 1606v-7v7zM754 1606q2 -43 -19.5 -69t-49.5 -29t-53.5 16.5t-27.5 64.5q-2 33 9.5 63.5t48.5 35.5q47 4 67.5 -18.5t24.5 -63.5zM688 1606l-6 6q-14 -10 -4 -25q4 -8 5 2.5t5 16.5zM754 1593v6v-6z
M752 1608l2 -2z" />
    <glyph glyph-name="AE" unicode="&#xc6;" horiz-adv-x="1540" 
d="M74 -174q-8 -35 -18.5 -71t-20.5 -70q0 -4 -9.5 -23.5t-20.5 -38t-22.5 -28t-17.5 11.5q-16 70 -12 151.5t8 153.5q4 86 16.5 172t28.5 172q16 78 40 154.5t32 152.5q0 4 5 18.5t9 28t3 23.5t-13 8q-43 -8 -87 -10t-87 2q-6 0 -19.5 5t-22.5 11t-9 12.5t18 12.5l160 35
q33 8 64.5 13t45.5 40t27.5 70.5t30.5 70.5q33 68 68.5 138.5t76.5 136t90 127t109 110.5q16 16 46 41t56 14q33 -10 49.5 -24t34.5 -41q20 -29 11 -65.5t-13 -67.5l-22 -152q137 166 313 291q29 20 62.5 46t70.5 44.5t75 22.5t73 -17q33 -20 59.5 -44.5t39.5 -54.5
t10 -63.5t-26 -72.5q-39 -66 -92 -116t-94 -114q-6 -10 -14 -12t-16.5 2t-15.5 11.5t-11 13.5q-8 14 -1 30.5t11 28.5q16 37 32.5 73t33.5 71q4 8 19 41.5t26.5 68.5t11.5 59.5t-29 14.5q-61 -23 -116.5 -58.5t-102.5 -76.5q-98 -86 -186 -197t-154 -223q-14 -23 -6 -25
t24.5 5.5t34 17.5t23.5 14q33 18 64.5 35.5t64.5 34.5q35 16 79 35.5t85 9.5q47 -12 45 -51t-33 -93q12 -2 24.5 -4t24.5 -6q27 -8 24 -13t-19.5 -8t-36 -5t-25.5 -2h-17q-27 -37 -57.5 -75t-59 -69t-51 -54.5t-28.5 -31.5q-72 -92 -132.5 -196.5t-99.5 -219.5
q4 -55 13.5 -102t26 -78t39 -42t55.5 5q14 8 14 2t-7 -17t-17.5 -22.5t-18.5 -13.5q-37 -14 -71 7.5t-52 49.5q-8 12 -14 23.5t-11 26.5v-4q-4 -27 -8 -60t-4 -66.5t6 -65.5t25 -56q18 -25 44 -31t52.5 -2t53 17.5t44.5 29.5q61 49 121 99.5t111 109.5q45 53 83 113.5
t77 119.5q41 66 83 127.5t93 118.5q8 10 36.5 39t61.5 56.5t64.5 42t48.5 -4.5q2 -2 -14.5 -16t-36 -31.5t-39 -34t-23.5 -20.5q-29 -35 -55.5 -71t-50.5 -72q-51 -76 -97.5 -153t-93.5 -155q-37 -57 -87 -126.5t-111.5 -129t-133 -99.5t-147.5 -38q-43 0 -75 20.5
t-54.5 51.5t-35.5 69.5t-19 75.5q-14 86 1 172t39 166l13 41v78q-2 14 -2 22.5v14.5q0 -4 1 -10.5t1 -10.5q-2 78 1 157t7 157q4 41 -7 52t-54 1l-181 -45q-33 -10 -61.5 -17.5t-40.5 -42.5q-12 -33 -18.5 -68.5t-12.5 -70.5q-14 -86 -24.5 -172t-22.5 -172
q-10 -78 -24.5 -153.5t-32.5 -153.5zM629 1309q0 27 -14.5 20.5t-34 -25t-38 -41t-24.5 -28.5q-70 -82 -123 -182q-33 -59 -69.5 -126t-53.5 -132q-6 -20 4.5 -24.5t25.5 -0.5t32.5 12.5t27.5 10.5q43 12 91 18q16 4 44.5 5t47.5 9q0 29 7 56.5t21 50.5q0 2 5 6l12 113
q8 63 17 126.5t20 125.5v4q0 2 2 2zM627 631q-4 -20 -8.5 -72.5t-6.5 -122.5q12 29 27.5 55.5t32.5 55.5q23 39 48 75.5t54 71.5q8 10 22.5 24.5t29 30t26.5 32t16 30.5l-63 -12q-16 -10 -31.5 -19.5t-23.5 -13.5q-23 -10 -48.5 -19.5t-50.5 -11.5q-12 -23 -16 -52t-8 -52z
" />
    <glyph glyph-name="Ccedilla" unicode="&#xc7;" horiz-adv-x="927" 
d="M610 -176q-20 -31 -46.5 -61.5t-59.5 -56t-69 -43t-75 -19.5q-49 -4 -86.5 23.5t-64.5 68.5t-45.5 88t-30.5 86q-72 229 -66.5 478t76.5 476q72 233 217 428q27 35 59 75t68.5 76t77.5 61.5t88 31.5q137 16 131 -117q-4 -82 -26.5 -163.5t-34.5 -161.5
q-12 -82 -16.5 -170t-30.5 -166q-2 -6 -10.5 -21.5t-18.5 -27t-19.5 -12.5t-13.5 24q-4 35 -4 69.5t2 69.5q6 90 22.5 176t37.5 174q2 12 14 55.5t20.5 89.5t6.5 83t-27 39q-31 2 -56.5 -24t-47 -62.5t-37 -73.5t-25.5 -57q-35 -70 -67.5 -138.5t-65.5 -140.5
q-72 -152 -114 -305.5t-46 -321.5q-4 -145 19.5 -284.5t109.5 -259.5q33 -45 64 -41t59.5 35.5t53 85t45 105.5t35 97t20.5 62q29 72 51.5 144.5t52.5 141.5q14 31 30.5 59.5t39.5 53.5q2 2 11 13.5t20.5 21.5t20.5 14t9 -4t-5 -19.5t-12 -24.5t-14.5 -25.5t-9.5 -20.5
q-10 -27 -13 -53.5t-9 -53.5q-10 -47 -26.5 -94t-28.5 -94q-27 -96 -56 -200.5t-84 -188.5zM399 -457v-2v2zM483 -645q39 -25 26 -57.5t-50 -58t-82 -38t-70 3.5q-12 8 -6 21.5t21.5 27t33 24.5t23.5 15q10 6 24.5 15.5t18.5 19.5q2 4 -8.5 7t-22.5 5.5t-24.5 4.5t-14.5 4
q-41 23 -48 64.5t9 80.5q14 39 43 74q14 16 27.5 3t15.5 -28v-2q-4 -35 -19 -67.5t-22 -67.5q-2 -10 15.5 -17t39 -13.5t43 -11.5t27.5 -9z" />
    <glyph glyph-name="Egrave" unicode="&#xc8;" horiz-adv-x="1028" 
d="M125 735q-41 2 -59.5 23.5t-23.5 52.5t3 63.5t23 57.5q86 139 200.5 262t247.5 217q29 20 62.5 46t70.5 44.5t75 22.5t73 -17q33 -20 59.5 -44.5t39.5 -54.5t10 -63.5t-25 -72.5q-39 -66 -92.5 -116t-94.5 -114q-6 -10 -14 -12t-16.5 2t-15.5 11.5t-11 13.5
q-8 14 -1 30.5t11 28.5q16 37 32.5 73t33.5 71q4 8 19.5 41.5t26.5 68.5t11 59.5t-29 14.5q-61 -23 -116.5 -58.5t-102.5 -76.5q-98 -86 -186 -197t-154 -223q-14 -23 -6 -25t24.5 5.5t34 17.5t23.5 14q33 18 64.5 35.5t64.5 34.5q35 16 79 35.5t85 9.5t45 -42t-16.5 -74
t-56.5 -89t-72.5 -89t-68.5 -75t-40 -43q-98 -123 -172 -272.5t-102 -308.5q-4 -27 -8.5 -60t-4.5 -66.5t6.5 -65.5t24.5 -56q18 -25 44 -31t52.5 -2t53 17.5t45.5 29.5q61 49 120.5 99.5t110.5 109.5q45 53 83 113.5t77 119.5q41 66 83 127.5t93 118.5q8 10 36.5 39
t61.5 56.5t64.5 42t48.5 -4.5q2 -2 -14.5 -16t-36 -31.5t-39 -34t-23.5 -20.5q-29 -35 -55.5 -71t-50.5 -72q-51 -76 -97.5 -153t-93.5 -155q-37 -57 -87 -126.5t-111.5 -129t-133 -99.5t-147.5 -38q-43 0 -75 20.5t-54.5 51.5t-35.5 69.5t-19 75.5q-14 86 1 172t40 166
q25 86 58.5 168t80.5 160q23 39 48.5 75.5t53.5 71.5q8 10 23.5 26.5l31 33t27.5 34t15 31.5q-8 6 -25.5 0t-36 -17t-35 -21.5t-24.5 -14.5q-29 -12 -58.5 -22.5t-60.5 -8.5zM612 1765q10 -2 4 -1t-4 1zM582 1739q-16 16 -17.5 23t6 9.5t19.5 -1t22 -5.5q35 -6 59.5 -18
t49.5 -35q12 -12 18 -27.5t4 -25.5t-13 -13.5t-32 7.5q-65 31 -116 86z" />
    <glyph glyph-name="Eacute" unicode="&#xc9;" horiz-adv-x="1028" 
d="M125 735q-41 2 -59.5 23.5t-23.5 52.5t3 63.5t23 57.5q86 139 200.5 262t247.5 217q29 20 62.5 46t70.5 44.5t75 22.5t73 -17q33 -20 59.5 -44.5t39.5 -54.5t10 -63.5t-25 -72.5q-39 -66 -92.5 -116t-94.5 -114q-6 -10 -14 -12t-16.5 2t-15.5 11.5t-11 13.5
q-8 14 -1 30.5t11 28.5q16 37 32.5 73t33.5 71q4 8 19.5 41.5t26.5 68.5t11 59.5t-29 14.5q-61 -23 -116.5 -58.5t-102.5 -76.5q-98 -86 -186 -197t-154 -223q-14 -23 -6 -25t24.5 5.5t34 17.5t23.5 14q33 18 64.5 35.5t64.5 34.5q35 16 79 35.5t85 9.5t45 -42t-16.5 -74
t-56.5 -89t-72.5 -89t-68.5 -75t-40 -43q-98 -123 -172 -272.5t-102 -308.5q-4 -27 -8.5 -60t-4.5 -66.5t6.5 -65.5t24.5 -56q18 -25 44 -31t52.5 -2t53 17.5t45.5 29.5q61 49 120.5 99.5t110.5 109.5q45 53 83 113.5t77 119.5q41 66 83 127.5t93 118.5q8 10 36.5 39
t61.5 56.5t64.5 42t48.5 -4.5q2 -2 -14.5 -16t-36 -31.5t-39 -34t-23.5 -20.5q-29 -35 -55.5 -71t-50.5 -72q-51 -76 -97.5 -153t-93.5 -155q-37 -57 -87 -126.5t-111.5 -129t-133 -99.5t-147.5 -38q-43 0 -75 20.5t-54.5 51.5t-35.5 69.5t-19 75.5q-14 86 1 172t40 166
q25 86 58.5 168t80.5 160q23 39 48.5 75.5t53.5 71.5q8 10 23.5 26.5l31 33t27.5 34t15 31.5q-8 6 -25.5 0t-36 -17t-35 -21.5t-24.5 -14.5q-29 -12 -58.5 -22.5t-60.5 -8.5zM655 1616q-2 0 -4 2zM651 1618h-2h2zM711 1692q8 6 24.5 20t34.5 26.5t36.5 20.5t29.5 2
q10 -4 2.5 -18t-19.5 -30.5t-25.5 -31t-17.5 -16.5q-23 -25 -54.5 -40t-66.5 -9h-4q-2 0 -3 1t1 1q-14 4 -8 15.5t20.5 23.5t30 21.5t19.5 13.5z" />
    <glyph glyph-name="Ecircumflex" unicode="&#xca;" horiz-adv-x="1028" 
d="M125 735q-41 2 -59.5 23.5t-23.5 52.5t3 63.5t23 57.5q86 139 200.5 262t247.5 217q29 20 62.5 46t70.5 44.5t75 22.5t73 -17q33 -20 59.5 -44.5t39.5 -54.5t10 -63.5t-25 -72.5q-39 -66 -92.5 -116t-94.5 -114q-6 -10 -14 -12t-16.5 2t-15.5 11.5t-11 13.5
q-8 14 -1 30.5t11 28.5q16 37 32.5 73t33.5 71q4 8 19.5 41.5t26.5 68.5t11 59.5t-29 14.5q-61 -23 -116.5 -58.5t-102.5 -76.5q-98 -86 -186 -197t-154 -223q-14 -23 -6 -25t24.5 5.5t34 17.5t23.5 14q33 18 64.5 35.5t64.5 34.5q35 16 79 35.5t85 9.5t45 -42t-16.5 -74
t-56.5 -89t-72.5 -89t-68.5 -75t-40 -43q-98 -123 -172 -272.5t-102 -308.5q-4 -27 -8.5 -60t-4.5 -66.5t6.5 -65.5t24.5 -56q18 -25 44 -31t52.5 -2t53 17.5t45.5 29.5q61 49 120.5 99.5t110.5 109.5q45 53 83 113.5t77 119.5q41 66 83 127.5t93 118.5q8 10 36.5 39
t61.5 56.5t64.5 42t48.5 -4.5q2 -2 -14.5 -16t-36 -31.5t-39 -34t-23.5 -20.5q-29 -35 -55.5 -71t-50.5 -72q-51 -76 -97.5 -153t-93.5 -155q-37 -57 -87 -126.5t-111.5 -129t-133 -99.5t-147.5 -38q-43 0 -75 20.5t-54.5 51.5t-35.5 69.5t-19 75.5q-14 86 1 172t40 166
q25 86 58.5 168t80.5 160q23 39 48.5 75.5t53.5 71.5q8 10 23.5 26.5l31 33t27.5 34t15 31.5q-8 6 -25.5 0t-36 -17t-35 -21.5t-24.5 -14.5q-29 -12 -58.5 -22.5t-60.5 -8.5zM813 1614q-2 -8 -11 -2t-20.5 18t-20.5 24.5t-11 14.5q-12 23 -20.5 14.5t-20.5 -24.5
q-16 -23 -33 -47.5t-41 -40.5q-18 -14 -39 -1t-6 36q8 14 27.5 45.5t43 62.5t49 51.5t48.5 14.5t35 -25.5t17 -44t5 -50.5t-2 -44v-2z" />
    <glyph glyph-name="Edieresis" unicode="&#xcb;" horiz-adv-x="1028" 
d="M125 735q-41 2 -59.5 23.5t-23.5 52.5t3 63.5t23 57.5q86 139 200.5 262t247.5 217q29 20 62.5 46t70.5 44.5t75 22.5t73 -17q33 -20 59.5 -44.5t39.5 -54.5t10 -63.5t-25 -72.5q-39 -66 -92.5 -116t-94.5 -114q-6 -10 -14 -12t-16.5 2t-15.5 11.5t-11 13.5
q-8 14 -1 30.5t11 28.5q16 37 32.5 73t33.5 71q4 8 19.5 41.5t26.5 68.5t11 59.5t-29 14.5q-61 -23 -116.5 -58.5t-102.5 -76.5q-98 -86 -186 -197t-154 -223q-14 -23 -6 -25t24.5 5.5t34 17.5t23.5 14q33 18 64.5 35.5t64.5 34.5q35 16 79 35.5t85 9.5t45 -42t-16.5 -74
t-56.5 -89t-72.5 -89t-68.5 -75t-40 -43q-98 -123 -172 -272.5t-102 -308.5q-4 -27 -8.5 -60t-4.5 -66.5t6.5 -65.5t24.5 -56q18 -25 44 -31t52.5 -2t53 17.5t45.5 29.5q61 49 120.5 99.5t110.5 109.5q45 53 83 113.5t77 119.5q41 66 83 127.5t93 118.5q8 10 36.5 39
t61.5 56.5t64.5 42t48.5 -4.5q2 -2 -14.5 -16t-36 -31.5t-39 -34t-23.5 -20.5q-29 -35 -55.5 -71t-50.5 -72q-51 -76 -97.5 -153t-93.5 -155q-37 -57 -87 -126.5t-111.5 -129t-133 -99.5t-147.5 -38q-43 0 -75 20.5t-54.5 51.5t-35.5 69.5t-19 75.5q-14 86 1 172t40 166
q25 86 58.5 168t80.5 160q23 39 48.5 75.5t53.5 71.5q8 10 23.5 26.5l31 33t27.5 34t15 31.5q-8 6 -25.5 0t-36 -17t-35 -21.5t-24.5 -14.5q-29 -12 -58.5 -22.5t-60.5 -8.5zM795 1649q6 25 20 36t29.5 8t29 -16.5t17.5 -38.5q0 2 -1 -1t1 1q-6 -16 -24.5 -24t-36 -8
t-29.5 10t-6 33zM666 1612q-4 0 -14.5 1t-19.5 4t-14.5 8t-1.5 15q18 39 62 56q12 4 18 -2t9.5 -17.5t4.5 -23t-1 -17.5q-4 -16 -17.5 -20t-25.5 -4z" />
    <glyph glyph-name="Igrave" unicode="&#xcc;" horiz-adv-x="622" 
d="M-244 1059q47 20 99.5 25.5t99.5 15.5q74 18 148.5 33.5t148.5 33.5q27 6 39 20.5t17 33t9.5 39t16.5 40.5q20 33 56 24t48 -42q4 -10 5 -31.5t18 -25.5q25 -4 55.5 4t54.5 14q70 14 139.5 21.5t141.5 11.5q25 2 85 4t128 -2t127 -17.5t82 -43.5q-4 -10 -3 -24.5
t11 -12.5q-27 -2 -54.5 12t-49.5 22q-35 12 -70 15.5t-70 7.5q-88 6 -175 0t-175 -18q-47 -6 -97 -10.5t-97 -20.5q-33 -12 -49.5 -40t-25.5 -61.5t-12.5 -69.5t-9.5 -65q-33 -170 -75.5 -335.5t-61.5 -337.5q-6 -72 -12 -154t14 -154q6 -20 37 -23t69 1t73.5 12t50.5 10
q78 10 154.5 15.5t154.5 1.5q23 0 60.5 -3t75.5 -11.5t68.5 -25t41.5 -44.5q4 -10 6 -29.5t-6 -30.5q-2 -4 -17.5 12.5t-19.5 20.5q-41 25 -93.5 29t-99.5 6q-72 4 -140.5 -2t-139.5 -16q-18 -2 -60.5 -5.5t-85.5 -11.5t-74.5 -22.5t-29.5 -38.5q4 -37 17 -69t9 -69
q-2 -14 -9 -16t-17.5 2t-19.5 11.5t-15 11.5q-25 23 -38 49t-26 55q-10 25 -37.5 28t-60.5 -4.5t-64.5 -18.5t-50.5 -15q-39 -10 -77.5 -17.5t-79.5 -11.5q-10 0 -27.5 -1t-34 3t-27 12.5t-8.5 26.5q2 14 19.5 24.5t41 17.5t46 11t33.5 7q35 8 69.5 15t69.5 11q16 2 38.5 4
t44 8.5t39 17.5t23.5 30q10 23 0 46t-14 46q-6 33 -8 65.5t0 67.5q4 86 12 169t21 167q12 80 22 159.5t25 157.5q14 68 33.5 132.5t35.5 129.5q6 23 1 34t-15 15.5t-25.5 1t-33.5 -7.5q-47 -10 -91.5 -24.5t-87.5 -30.5q-47 -14 -95 -23.5t-95 -13.5h-30.5t-42 3t-25 8.5
t23.5 17.5zM1282 1180q2 18 -8 37q4 14 9 12t-1 -49zM1284 1180q4 0 2 -6q0 4 -2 6zM1284 1180h-2h2zM360 1538q10 -2 4 -1t-4 1zM330 1511q-16 16 -17.5 23.5t6 9.5t19.5 -1t22 -5q35 -6 59.5 -18.5t49.5 -34.5q12 -12 18.5 -27.5t4 -26t-13.5 -13.5t-32 7q-65 31 -116 86z
" />
    <glyph glyph-name="Iacute" unicode="&#xcd;" horiz-adv-x="622" 
d="M-244 1059q47 20 99.5 25.5t99.5 15.5q74 18 148.5 33.5t148.5 33.5q27 6 39 20.5t17 33t9.5 39t16.5 40.5q20 33 56 24t48 -42q4 -10 5 -31.5t18 -25.5q25 -4 55.5 4t54.5 14q70 14 139.5 21.5t141.5 11.5q25 2 85 4t128 -2t127 -17.5t82 -43.5q-4 -10 -3 -24.5
t11 -12.5q-27 -2 -54.5 12t-49.5 22q-35 12 -70 15.5t-70 7.5q-88 6 -175 0t-175 -18q-47 -6 -97 -10.5t-97 -20.5q-33 -12 -49.5 -40t-25.5 -61.5t-12.5 -69.5t-9.5 -65q-33 -170 -75.5 -335.5t-61.5 -337.5q-6 -72 -12 -154t14 -154q6 -20 37 -23t69 1t73.5 12t50.5 10
q78 10 154.5 15.5t154.5 1.5q23 0 60.5 -3t75.5 -11.5t68.5 -25t41.5 -44.5q4 -10 6 -29.5t-6 -30.5q-2 -4 -17.5 12.5t-19.5 20.5q-41 25 -93.5 29t-99.5 6q-72 4 -140.5 -2t-139.5 -16q-18 -2 -60.5 -5.5t-85.5 -11.5t-74.5 -22.5t-29.5 -38.5q4 -37 17 -69t9 -69
q-2 -14 -9 -16t-17.5 2t-19.5 11.5t-15 11.5q-25 23 -38 49t-26 55q-10 25 -37.5 28t-60.5 -4.5t-64.5 -18.5t-50.5 -15q-39 -10 -77.5 -17.5t-79.5 -11.5q-10 0 -27.5 -1t-34 3t-27 12.5t-8.5 26.5q2 14 19.5 24.5t41 17.5t46 11t33.5 7q35 8 69.5 15t69.5 11q16 2 38.5 4
t44 8.5t39 17.5t23.5 30q10 23 0 46t-14 46q-6 33 -8 65.5t0 67.5q4 86 12 169t21 167q12 80 22 159.5t25 157.5q14 68 33.5 132.5t35.5 129.5q6 23 1 34t-15 15.5t-25.5 1t-33.5 -7.5q-47 -10 -91.5 -24.5t-87.5 -30.5q-47 -14 -95 -23.5t-95 -13.5h-30.5t-42 3t-25 8.5
t23.5 17.5zM1282 1180q2 18 -8 37q4 14 9 12t-1 -49zM1284 1180q4 0 2 -6q0 4 -2 6zM1284 1180h-2h2zM322 1399q-2 0 -5 2zM317 1401h-2h2zM377 1475q8 6 24.5 20t35 26.5t37 20.5t28.5 2q10 -4 3 -18.5t-19.5 -30.5t-26 -30.5t-17.5 -16.5q-23 -25 -54.5 -40t-65.5 -9h-5
q-2 0 -3 1t1 1q-14 4 -8 15t20.5 23.5t30 22t19.5 13.5z" />
    <glyph glyph-name="Icircumflex" unicode="&#xce;" horiz-adv-x="622" 
d="M-244 1059q47 20 99.5 25.5t99.5 15.5q74 18 148.5 33.5t148.5 33.5q27 6 39 20.5t17 33t9.5 39t16.5 40.5q20 33 56 24t48 -42q4 -10 5 -31.5t18 -25.5q25 -4 55.5 4t54.5 14q70 14 139.5 21.5t141.5 11.5q25 2 85 4t128 -2t127 -17.5t82 -43.5q-4 -10 -3 -24.5
t11 -12.5q-27 -2 -54.5 12t-49.5 22q-35 12 -70 15.5t-70 7.5q-88 6 -175 0t-175 -18q-47 -6 -97 -10.5t-97 -20.5q-33 -12 -49.5 -40t-25.5 -61.5t-12.5 -69.5t-9.5 -65q-33 -170 -75.5 -335.5t-61.5 -337.5q-6 -72 -12 -154t14 -154q6 -20 37 -23t69 1t73.5 12t50.5 10
q78 10 154.5 15.5t154.5 1.5q23 0 60.5 -3t75.5 -11.5t68.5 -25t41.5 -44.5q4 -10 6 -29.5t-6 -30.5q-2 -4 -17.5 12.5t-19.5 20.5q-41 25 -93.5 29t-99.5 6q-72 4 -140.5 -2t-139.5 -16q-18 -2 -60.5 -5.5t-85.5 -11.5t-74.5 -22.5t-29.5 -38.5q4 -37 17 -69t9 -69
q-2 -14 -9 -16t-17.5 2t-19.5 11.5t-15 11.5q-25 23 -38 49t-26 55q-10 25 -37.5 28t-60.5 -4.5t-64.5 -18.5t-50.5 -15q-39 -10 -77.5 -17.5t-79.5 -11.5q-10 0 -27.5 -1t-34 3t-27 12.5t-8.5 26.5q2 14 19.5 24.5t41 17.5t46 11t33.5 7q35 8 69.5 15t69.5 11q16 2 38.5 4
t44 8.5t39 17.5t23.5 30q10 23 0 46t-14 46q-6 33 -8 65.5t0 67.5q4 86 12 169t21 167q12 80 22 159.5t25 157.5q14 68 33.5 132.5t35.5 129.5q6 23 1 34t-15 15.5t-25.5 1t-33.5 -7.5q-47 -10 -91.5 -24.5t-87.5 -30.5q-47 -14 -95 -23.5t-95 -13.5h-30.5t-42 3t-25 8.5
t23.5 17.5zM1282 1180q2 18 -8 37q4 14 9 12t-1 -49zM1284 1180q4 0 2 -6q0 4 -2 6zM1284 1180h-2h2zM502 1440q-2 -8 -11.5 -2t-20.5 18t-20.5 24.5t-11.5 14.5q-12 23 -20 14.5t-21 -24.5q-16 -23 -32.5 -47.5t-40.5 -40.5q-18 -14 -39 -1t-6 36q8 14 27.5 45.5t43 62.5
t49 51.5t47.5 14.5q23 -6 35.5 -25.5t17.5 -44.5t5 -50.5t-2 -43.5v-2z" />
    <glyph glyph-name="Idieresis" unicode="&#xcf;" horiz-adv-x="622" 
d="M-244 1059q47 20 99.5 25.5t99.5 15.5q74 18 148.5 33.5t148.5 33.5q27 6 39 20.5t17 33t9.5 39t16.5 40.5q20 33 56 24t48 -42q4 -10 5 -31.5t18 -25.5q25 -4 55.5 4t54.5 14q70 14 139.5 21.5t141.5 11.5q25 2 85 4t128 -2t127 -17.5t82 -43.5q-4 -10 -3 -24.5
t11 -12.5q-27 -2 -54.5 12t-49.5 22q-35 12 -70 15.5t-70 7.5q-88 6 -175 0t-175 -18q-47 -6 -97 -10.5t-97 -20.5q-33 -12 -49.5 -40t-25.5 -61.5t-12.5 -69.5t-9.5 -65q-33 -170 -75.5 -335.5t-61.5 -337.5q-6 -72 -12 -154t14 -154q6 -20 37 -23t69 1t73.5 12t50.5 10
q78 10 154.5 15.5t154.5 1.5q23 0 60.5 -3t75.5 -11.5t68.5 -25t41.5 -44.5q4 -10 6 -29.5t-6 -30.5q-2 -4 -17.5 12.5t-19.5 20.5q-41 25 -93.5 29t-99.5 6q-72 4 -140.5 -2t-139.5 -16q-18 -2 -60.5 -5.5t-85.5 -11.5t-74.5 -22.5t-29.5 -38.5q4 -37 17 -69t9 -69
q-2 -14 -9 -16t-17.5 2t-19.5 11.5t-15 11.5q-25 23 -38 49t-26 55q-10 25 -37.5 28t-60.5 -4.5t-64.5 -18.5t-50.5 -15q-39 -10 -77.5 -17.5t-79.5 -11.5q-10 0 -27.5 -1t-34 3t-27 12.5t-8.5 26.5q2 14 19.5 24.5t41 17.5t46 11t33.5 7q35 8 69.5 15t69.5 11q16 2 38.5 4
t44 8.5t39 17.5t23.5 30q10 23 0 46t-14 46q-6 33 -8 65.5t0 67.5q4 86 12 169t21 167q12 80 22 159.5t25 157.5q14 68 33.5 132.5t35.5 129.5q6 23 1 34t-15 15.5t-25.5 1t-33.5 -7.5q-47 -10 -91.5 -24.5t-87.5 -30.5q-47 -14 -95 -23.5t-95 -13.5h-30.5t-42 3t-25 8.5
t23.5 17.5zM1282 1180q2 18 -8 37q4 14 9 12t-1 -49zM1284 1180q4 0 2 -6q0 4 -2 6zM1284 1180h-2h2zM457 1470q6 25 20.5 36.5t29.5 8t28.5 -16.5t17.5 -38q0 2 -1 -1t1 1q-6 -16 -24.5 -24.5t-36 -8.5t-29.5 10t-6 33zM328 1434q-4 0 -14.5 1t-19.5 4t-14.5 8t-0.5 15
q18 39 61 56q12 4 18.5 -2.5t9.5 -17.5t4 -22.5t-1 -17.5q-4 -16 -17.5 -20t-25.5 -4z" />
    <glyph glyph-name="Ntilde" unicode="&#xd1;" horiz-adv-x="960" 
d="M969 -215q16 12 20 10t1 -11t-10 -21.5t-13 -18.5q-55 -53 -107.5 -34.5t-85.5 81.5q-37 72 -57.5 149.5t-29.5 157.5t-11 162t-4 160q-2 172 11 342t48 338q8 39 17.5 76.5t15.5 78.5q2 14 4 27.5t-1 21t-11 5.5t-23 -17q-53 -51 -96 -111.5t-84 -119.5
q-170 -262 -254 -565q-45 -154 -73.5 -307.5t-63.5 -307.5q-20 -90 -119 -119q-35 -12 -49 26t-18.5 91t-1.5 105.5t6 68.5q10 158 35.5 313.5t60.5 309.5q16 78 36.5 154.5t43.5 154.5q20 74 45.5 151.5t81.5 135.5q14 16 44.5 16t47.5 -14q23 -23 16.5 -57.5t-10.5 -61.5
q-16 -31 -24.5 -67.5t-18.5 -71.5q-14 -45 -29.5 -88t-32.5 -86q-55 -147 -100 -303t-45 -316q53 137 99 277.5t112 275.5q66 139 146.5 273.5t185.5 248.5q18 20 40.5 44t46 35.5t46 5t41.5 -45.5q14 -31 18 -67.5t0 -74.5t-13 -75t-17 -69q-39 -162 -61.5 -328t-22.5 -332
q-4 -158 24 -315q6 -31 11.5 -70t14.5 -78t25.5 -74.5t40.5 -60.5q48 -47 101 -8zM504 1450q-8 18 6 33.5t35.5 28t44 18.5t35.5 4q16 -4 23 -15.5t14 -23.5q4 -10 12 -5t16 13t16.5 14.5t14.5 0.5q12 -14 8 -32t-14 -32q-18 -23 -38 -17.5t-40 19.5q-18 12 -29.5 21.5
t-32.5 -9.5q-4 -4 -14 -10t-21.5 -11t-21.5 -6t-14 9zM625 1534h2h-2zM625 1534q-12 2 -8 1t8 -1z" />
    <glyph glyph-name="Ograve" unicode="&#xd2;" 
d="M465 -111q-6 23 -12.5 47.5t-12.5 49.5q-4 14 -6 28.5t-6 30.5q-4 12 -20 12q-57 -4 -112.5 2.5t-107.5 34.5q-41 25 -70.5 76t-33.5 98q-2 23 -4 43.5t-4 42.5q-12 147 27.5 292t101.5 276q47 100 109.5 190t140.5 166q68 66 146.5 117t166.5 82q43 14 90 25t96.5 14.5
t96.5 -3t88 -26.5q57 -27 101 -69t77 -94t53.5 -110.5t30.5 -117.5q4 -35 8 -71t4 -71q4 -135 -15.5 -270t-60.5 -266q-20 -70 -53 -146q-20 -47 -42.5 -93t-51.5 -91q-10 -18 -22.5 -36.5t-22.5 -35.5q-37 -55 -82 -112.5t-99.5 -102.5t-119 -71.5t-137.5 -22.5
q-86 6 -149.5 52t-92.5 130zM424 145q-6 84 0 175.5t25.5 180.5t54.5 173t86 153q20 27 41 45q14 10 30.5 20.5t34.5 14.5q29 4 36 -16.5t13 -42.5q4 -8 5 -29q0 -12 -2 -18q-10 -35 -23.5 -71t-26.5 -71q-12 -31 -21 -62.5t-24 -61.5q-8 -14 -10 -29q-6 -18 -12 -36.5
t-13 -39.5q-6 -16 -11 -34.5t-11 -35.5q-6 -18 -9 -38.5t-9 -38.5q-4 -16 -6.5 -33t-2.5 -33q0 -8 6 -10q4 -4 11 0q8 4 14 8l12 8q23 18 46.5 35.5t46.5 36.5q41 35 80.5 67.5t80.5 65.5q10 8 19.5 15.5t19.5 15.5q6 2 8 -2t0 -6q-18 -25 -35.5 -49.5t-33.5 -51.5l-4 -8
t-6 -8q-10 -12 -20.5 -25.5t-20.5 -27.5q-12 -14 -24.5 -27.5t-27.5 -26.5l-24 -20t-27 -21q-23 -16 -46 -31.5t-46 -31.5q-10 -6 -18.5 -12.5t-16.5 -10.5q-8 -6 -12 -22q-4 -41 2 -79t16 -79q10 -55 56.5 -98t105.5 -41q55 0 101.5 27.5t80.5 66.5q98 104 176 231
t132.5 266.5t82 287t23.5 294.5q-4 92 -18 185q-8 41 -19.5 86t-30 87t-45 77.5t-65.5 60.5q-41 23 -96.5 38t-102.5 11q-82 -6 -157.5 -39t-143 -82t-127 -109.5t-108.5 -119.5q-61 -76 -121 -157t-103 -169q-41 -80 -55 -169t-18 -179q-2 -31 1 -61.5t7 -61.5
q6 -31 14 -53q6 -20 15.5 -39.5t19.5 -38.5q8 -16 18.5 -28.5t22.5 -24.5q25 -25 53.5 -37t61.5 -16q16 -4 30.5 -3t30.5 3q16 4 23 10q8 8 8 14q2 2 2 6zM907 1724q10 -2 4 -1t-4 1zM877 1698q-16 16 -17.5 23.5t5.5 9.5t19.5 -1.5t22.5 -5.5q35 -6 59.5 -18t49.5 -35
q12 -12 18 -27.5t4 -25.5t-13 -13t-32 7q-65 31 -116 86z" />
    <glyph glyph-name="Oacute" unicode="&#xd3;" 
d="M465 -111q-6 23 -12.5 47.5t-12.5 49.5q-4 14 -6 28.5t-6 30.5q-4 12 -20 12q-57 -4 -112.5 2.5t-107.5 34.5q-41 25 -70.5 76t-33.5 98q-2 23 -4 43.5t-4 42.5q-12 147 27.5 292t101.5 276q47 100 109.5 190t140.5 166q68 66 146.5 117t166.5 82q43 14 90 25t96.5 14.5
t96.5 -3t88 -26.5q57 -27 101 -69t77 -94t53.5 -110.5t30.5 -117.5q4 -35 8 -71t4 -71q4 -135 -15.5 -270t-60.5 -266q-20 -70 -53 -146q-20 -47 -42.5 -93t-51.5 -91q-10 -18 -22.5 -36.5t-22.5 -35.5q-37 -55 -82 -112.5t-99.5 -102.5t-119 -71.5t-137.5 -22.5
q-86 6 -149.5 52t-92.5 130zM424 145q-6 84 0 175.5t25.5 180.5t54.5 173t86 153q20 27 41 45q14 10 30.5 20.5t34.5 14.5q29 4 36 -16.5t13 -42.5q4 -8 5 -29q0 -12 -2 -18q-10 -35 -23.5 -71t-26.5 -71q-12 -31 -21 -62.5t-24 -61.5q-8 -14 -10 -29q-6 -18 -12 -36.5
t-13 -39.5q-6 -16 -11 -34.5t-11 -35.5q-6 -18 -9 -38.5t-9 -38.5q-4 -16 -6.5 -33t-2.5 -33q0 -8 6 -10q4 -4 11 0q8 4 14 8l12 8q23 18 46.5 35.5t46.5 36.5q41 35 80.5 67.5t80.5 65.5q10 8 19.5 15.5t19.5 15.5q6 2 8 -2t0 -6q-18 -25 -35.5 -49.5t-33.5 -51.5l-4 -8
t-6 -8q-10 -12 -20.5 -25.5t-20.5 -27.5q-12 -14 -24.5 -27.5t-27.5 -26.5l-24 -20t-27 -21q-23 -16 -46 -31.5t-46 -31.5q-10 -6 -18.5 -12.5t-16.5 -10.5q-8 -6 -12 -22q-4 -41 2 -79t16 -79q10 -55 56.5 -98t105.5 -41q55 0 101.5 27.5t80.5 66.5q98 104 176 231
t132.5 266.5t82 287t23.5 294.5q-4 92 -18 185q-8 41 -19.5 86t-30 87t-45 77.5t-65.5 60.5q-41 23 -96.5 38t-102.5 11q-82 -6 -157.5 -39t-143 -82t-127 -109.5t-108.5 -119.5q-61 -76 -121 -157t-103 -169q-41 -80 -55 -169t-18 -179q-2 -31 1 -61.5t7 -61.5
q6 -31 14 -53q6 -20 15.5 -39.5t19.5 -38.5q8 -16 18.5 -28.5t22.5 -24.5q25 -25 53.5 -37t61.5 -16q16 -4 30.5 -3t30.5 3q16 4 23 10q8 8 8 14q2 2 2 6zM883 1599q-2 0 -4 3zM879 1602h-2h2zM938 1675q8 6 24.5 20.5t35 27t37 20.5t28.5 2q10 -4 3 -18.5t-19.5 -31
t-25.5 -30.5t-17 -16q-23 -25 -54.5 -40.5t-66.5 -9.5h-4q-2 0 -3.5 1.5t1.5 1.5q-14 4 -8.5 15t20 23.5t30 21.5t19.5 13z" />
    <glyph glyph-name="Ocircumflex" unicode="&#xd4;" 
d="M465 -111q-6 23 -12.5 47.5t-12.5 49.5q-4 14 -6 28.5t-6 30.5q-4 12 -20 12q-57 -4 -112.5 2.5t-107.5 34.5q-41 25 -70.5 76t-33.5 98q-2 23 -4 43.5t-4 42.5q-12 147 27.5 292t101.5 276q47 100 109.5 190t140.5 166q68 66 146.5 117t166.5 82q43 14 90 25t96.5 14.5
t96.5 -3t88 -26.5q57 -27 101 -69t77 -94t53.5 -110.5t30.5 -117.5q4 -35 8 -71t4 -71q4 -135 -15.5 -270t-60.5 -266q-20 -70 -53 -146q-20 -47 -42.5 -93t-51.5 -91q-10 -18 -22.5 -36.5t-22.5 -35.5q-37 -55 -82 -112.5t-99.5 -102.5t-119 -71.5t-137.5 -22.5
q-86 6 -149.5 52t-92.5 130zM424 145q-6 84 0 175.5t25.5 180.5t54.5 173t86 153q20 27 41 45q14 10 30.5 20.5t34.5 14.5q29 4 36 -16.5t13 -42.5q4 -8 5 -29q0 -12 -2 -18q-10 -35 -23.5 -71t-26.5 -71q-12 -31 -21 -62.5t-24 -61.5q-8 -14 -10 -29q-6 -18 -12 -36.5
t-13 -39.5q-6 -16 -11 -34.5t-11 -35.5q-6 -18 -9 -38.5t-9 -38.5q-4 -16 -6.5 -33t-2.5 -33q0 -8 6 -10q4 -4 11 0q8 4 14 8l12 8q23 18 46.5 35.5t46.5 36.5q41 35 80.5 67.5t80.5 65.5q10 8 19.5 15.5t19.5 15.5q6 2 8 -2t0 -6q-18 -25 -35.5 -49.5t-33.5 -51.5l-4 -8
t-6 -8q-10 -12 -20.5 -25.5t-20.5 -27.5q-12 -14 -24.5 -27.5t-27.5 -26.5l-24 -20t-27 -21q-23 -16 -46 -31.5t-46 -31.5q-10 -6 -18.5 -12.5t-16.5 -10.5q-8 -6 -12 -22q-4 -41 2 -79t16 -79q10 -55 56.5 -98t105.5 -41q55 0 101.5 27.5t80.5 66.5q98 104 176 231
t132.5 266.5t82 287t23.5 294.5q-4 92 -18 185q-8 41 -19.5 86t-30 87t-45 77.5t-65.5 60.5q-41 23 -96.5 38t-102.5 11q-82 -6 -157.5 -39t-143 -82t-127 -109.5t-108.5 -119.5q-61 -76 -121 -157t-103 -169q-41 -80 -55 -169t-18 -179q-2 -31 1 -61.5t7 -61.5
q6 -31 14 -53q6 -20 15.5 -39.5t19.5 -38.5q8 -16 18.5 -28.5t22.5 -24.5q25 -25 53.5 -37t61.5 -16q16 -4 30.5 -3t30.5 3q16 4 23 10q8 8 8 14q2 2 2 6zM1090 1632q-2 -8 -11.5 -2t-20.5 18.5t-20.5 25t-11.5 14.5q-12 23 -20.5 14.5t-20.5 -25.5q-16 -23 -32.5 -47
t-41.5 -41q-18 -14 -38.5 -0.5t-6.5 35.5q8 14 27.5 46t43.5 62.5t49.5 51t47.5 14.5q23 -6 35 -25.5t17.5 -44t5.5 -50t-2 -44.5v-2z" />
    <glyph glyph-name="Otilde" unicode="&#xd5;" 
d="M465 -111q-6 23 -12.5 47.5t-12.5 49.5q-4 14 -6 28.5t-6 30.5q-4 12 -20 12q-57 -4 -112.5 2.5t-107.5 34.5q-41 25 -70.5 76t-33.5 98q-2 23 -4 43.5t-4 42.5q-12 147 27.5 292t101.5 276q47 100 109.5 190t140.5 166q68 66 146.5 117t166.5 82q43 14 90 25t96.5 14.5
t96.5 -3t88 -26.5q57 -27 101 -69t77 -94t53.5 -110.5t30.5 -117.5q4 -35 8 -71t4 -71q4 -135 -15.5 -270t-60.5 -266q-20 -70 -53 -146q-20 -47 -42.5 -93t-51.5 -91q-10 -18 -22.5 -36.5t-22.5 -35.5q-37 -55 -82 -112.5t-99.5 -102.5t-119 -71.5t-137.5 -22.5
q-86 6 -149.5 52t-92.5 130zM424 145q-6 84 0 175.5t25.5 180.5t54.5 173t86 153q20 27 41 45q14 10 30.5 20.5t34.5 14.5q29 4 36 -16.5t13 -42.5q4 -8 5 -29q0 -12 -2 -18q-10 -35 -23.5 -71t-26.5 -71q-12 -31 -21 -62.5t-24 -61.5q-8 -14 -10 -29q-6 -18 -12 -36.5
t-13 -39.5q-6 -16 -11 -34.5t-11 -35.5q-6 -18 -9 -38.5t-9 -38.5q-4 -16 -6.5 -33t-2.5 -33q0 -8 6 -10q4 -4 11 0q8 4 14 8l12 8q23 18 46.5 35.5t46.5 36.5q41 35 80.5 67.5t80.5 65.5q10 8 19.5 15.5t19.5 15.5q6 2 8 -2t0 -6q-18 -25 -35.5 -49.5t-33.5 -51.5l-4 -8
t-6 -8q-10 -12 -20.5 -25.5t-20.5 -27.5q-12 -14 -24.5 -27.5t-27.5 -26.5l-24 -20t-27 -21q-23 -16 -46 -31.5t-46 -31.5q-10 -6 -18.5 -12.5t-16.5 -10.5q-8 -6 -12 -22q-4 -41 2 -79t16 -79q10 -55 56.5 -98t105.5 -41q55 0 101.5 27.5t80.5 66.5q98 104 176 231
t132.5 266.5t82 287t23.5 294.5q-4 92 -18 185q-8 41 -19.5 86t-30 87t-45 77.5t-65.5 60.5q-41 23 -96.5 38t-102.5 11q-82 -6 -157.5 -39t-143 -82t-127 -109.5t-108.5 -119.5q-61 -76 -121 -157t-103 -169q-41 -80 -55 -169t-18 -179q-2 -31 1 -61.5t7 -61.5
q6 -31 14 -53q6 -20 15.5 -39.5t19.5 -38.5q8 -16 18.5 -28.5t22.5 -24.5q25 -25 53.5 -37t61.5 -16q16 -4 30.5 -3t30.5 3q16 4 23 10q8 8 8 14q2 2 2 6zM846 1608q-8 18 6 33.5t35.5 27.5t44 18.5t35.5 4.5q16 -4 23 -15.5t14 -23.5q4 -10 12 -5t16 13t16.5 14t14.5 0
q12 -14 8 -31.5t-14 -31.5q-18 -23 -38 -18t-40 20q-18 12 -29.5 21.5t-31.5 -9.5q-4 -4 -14.5 -10t-22 -11.5t-21.5 -6t-14 9.5zM967 1692h2h-2zM967 1692q-12 2 -8 1t8 -1z" />
    <glyph glyph-name="Odieresis" unicode="&#xd6;" 
d="M465 -111q-6 23 -12.5 47.5t-12.5 49.5q-4 14 -6 28.5t-6 30.5q-4 12 -20 12q-57 -4 -112.5 2.5t-107.5 34.5q-41 25 -70.5 76t-33.5 98q-2 23 -4 43.5t-4 42.5q-12 147 27.5 292t101.5 276q47 100 109.5 190t140.5 166q68 66 146.5 117t166.5 82q43 14 90 25t96.5 14.5
t96.5 -3t88 -26.5q57 -27 101 -69t77 -94t53.5 -110.5t30.5 -117.5q4 -35 8 -71t4 -71q4 -135 -15.5 -270t-60.5 -266q-20 -70 -53 -146q-20 -47 -42.5 -93t-51.5 -91q-10 -18 -22.5 -36.5t-22.5 -35.5q-37 -55 -82 -112.5t-99.5 -102.5t-119 -71.5t-137.5 -22.5
q-86 6 -149.5 52t-92.5 130zM424 145q-6 84 0 175.5t25.5 180.5t54.5 173t86 153q20 27 41 45q14 10 30.5 20.5t34.5 14.5q29 4 36 -16.5t13 -42.5q4 -8 5 -29q0 -12 -2 -18q-10 -35 -23.5 -71t-26.5 -71q-12 -31 -21 -62.5t-24 -61.5q-8 -14 -10 -29q-6 -18 -12 -36.5
t-13 -39.5q-6 -16 -11 -34.5t-11 -35.5q-6 -18 -9 -38.5t-9 -38.5q-4 -16 -6.5 -33t-2.5 -33q0 -8 6 -10q4 -4 11 0q8 4 14 8l12 8q23 18 46.5 35.5t46.5 36.5q41 35 80.5 67.5t80.5 65.5q10 8 19.5 15.5t19.5 15.5q6 2 8 -2t0 -6q-18 -25 -35.5 -49.5t-33.5 -51.5l-4 -8
t-6 -8q-10 -12 -20.5 -25.5t-20.5 -27.5q-12 -14 -24.5 -27.5t-27.5 -26.5l-24 -20t-27 -21q-23 -16 -46 -31.5t-46 -31.5q-10 -6 -18.5 -12.5t-16.5 -10.5q-8 -6 -12 -22q-4 -41 2 -79t16 -79q10 -55 56.5 -98t105.5 -41q55 0 101.5 27.5t80.5 66.5q98 104 176 231
t132.5 266.5t82 287t23.5 294.5q-4 92 -18 185q-8 41 -19.5 86t-30 87t-45 77.5t-65.5 60.5q-41 23 -96.5 38t-102.5 11q-82 -6 -157.5 -39t-143 -82t-127 -109.5t-108.5 -119.5q-61 -76 -121 -157t-103 -169q-41 -80 -55 -169t-18 -179q-2 -31 1 -61.5t7 -61.5
q6 -31 14 -53q6 -20 15.5 -39.5t19.5 -38.5q8 -16 18.5 -28.5t22.5 -24.5q25 -25 53.5 -37t61.5 -16q16 -4 30.5 -3t30.5 3q16 4 23 10q8 8 8 14q2 2 2 6zM1028 1649q6 25 20.5 36t30 8t28.5 -16.5t17 -38.5q0 2 -1 -1t1 1q-6 -16 -24.5 -24t-35.5 -8t-29.5 10t-6.5 33z
M899 1612q-4 0 -14.5 1t-19.5 4t-14 8t-1 15q18 39 61 56q12 4 18.5 -2t9.5 -17.5t4 -23t-1 -17.5q-4 -16 -17.5 -20t-25.5 -4z" />
    <glyph glyph-name="Oslash" unicode="&#xd8;" 
d="M1204 1503q23 4 27 -19.5t0 -58.5q72 -63 112.5 -150t57.5 -179q4 -35 8 -71t4 -71q4 -135 -15.5 -270t-60.5 -266q-20 -70 -53 -146q-20 -47 -42.5 -93t-51.5 -91l-45 -72q-37 -55 -82 -112.5t-99.5 -102.5t-119 -71.5t-137.5 -22.5q-14 2 -27.5 3t-26.5 5
q-8 -41 -11 -81t-13 -78q-2 -10 -10.5 -5t-17.5 16t-16 22.5t-7 15.5q-12 25 -14.5 52.5t-2.5 53.5v8v18.5t2 18.5q-72 49 -98 133l-25 97l-12 59q-4 12 -20 12q-57 -4 -112.5 2.5t-107.5 34.5q-41 25 -70.5 76t-33.5 98l-8 86q-12 147 27.5 292t101.5 276q47 100 109.5 190
t140.5 166q68 66 146.5 117t166.5 82q43 14 90 25t96.5 14.5t96.5 -3t88 -26.5q10 -4 19 -10.5t20 -12.5q4 16 10 26.5t16 12.5zM424 145q-6 84 0 175.5t25.5 180.5t54.5 173t86 153q20 27 41 45q14 10 30.5 20.5t34.5 14.5q29 4 36 -16.5t13 -42.5q4 -8 5 -29q0 -12 -2 -18
q-10 -35 -23.5 -71t-26.5 -71q-12 -31 -21 -62.5t-24 -61.5q-8 -14 -10 -29l-25 -76l-22 -70q-6 -18 -9 -38.5t-9 -38.5q-4 -16 -6.5 -33t-2.5 -33q0 -8 6 -10q4 -4 11 0l26 16l93 72l2 2q39 119 80.5 235.5t89.5 233.5q53 131 111.5 259t117.5 257l53 123l10 31q-4 4 -10 7
t-10 7q-41 23 -96.5 38t-102.5 11q-82 -6 -157.5 -39t-143 -82t-127 -109.5t-108.5 -119.5q-61 -76 -121 -157t-103 -169q-41 -80 -55 -169t-18 -179q-2 -31 1 -61.5t7 -61.5q6 -31 14 -53q6 -20 15.5 -39.5t19.5 -38.5q8 -16 18.5 -28.5t22.5 -24.5q25 -25 53.5 -37
t61.5 -16q16 -4 30.5 -3t30.5 3q16 4 23 10q8 8 8 14q2 2 2 6zM1309 1139q-10 59 -29.5 122.5t-56.5 116.5q-6 -29 -11.5 -49t-9.5 -26q-82 -217 -167 -430.5t-158 -434.5l28 21q6 2 8 -2t0 -6q-16 -20 -30.5 -40t-28.5 -42q-10 -29 -18.5 -58.5t-16.5 -58.5
q-35 -115 -69.5 -231.5t-73.5 -229.5q20 -10 55 -10q55 0 101.5 27.5t80.5 66.5q98 104 176 231t132.5 266.5t82 287t23.5 294.5q-4 93 -18 185zM569 -80q2 -16 11 -35q16 72 38.5 142.5t45.5 140.5l-66 -45l-35 -23q-8 -6 -12 -22q-4 -41 2 -79t16 -79z" />
    <glyph glyph-name="Ugrave" unicode="&#xd9;" horiz-adv-x="1073" 
d="M829 1016q-72 -154 -117.5 -311.5t-97.5 -317.5q-23 -74 -48 -153.5t-58 -156.5t-74 -147.5t-94 -128.5q-29 -31 -63.5 -47t-68.5 -14t-64.5 22.5t-49.5 63.5q-35 82 -38 181t-3 190q-4 338 62 669q16 80 34.5 160t34.5 160q6 31 17.5 68.5t1.5 68.5q-4 16 6 26.5
t27.5 15.5t35 6t27.5 1q37 2 56.5 -22.5t28.5 -60.5t10 -72.5t1 -61.5q0 -86 -16.5 -167t-38.5 -163q-41 -160 -85 -315.5t-56 -321.5q-6 -72 -6 -143.5t24 -138.5q2 -10 8 -24.5t14.5 -26t19.5 -13.5t24 13q27 31 42 69.5t27 75.5q59 158 114.5 315.5t117.5 313.5
q59 150 127.5 295t154.5 284q12 20 27.5 53t35 65t42 56.5t51.5 28.5q35 6 43 -29.5t2 -85t-17.5 -96.5t-13.5 -65q-29 -168 -63.5 -334t-57.5 -334q-10 -80 -19 -162t-10 -163t9 -161.5t35 -158.5q4 -12 8 -24.5t10 -21.5t15.5 -14.5t23.5 0.5q8 4 9 -3t-4 -17t-13 -19.5
t-18 -9.5q-39 -4 -63 21.5t-38 62.5t-20 77t-11 67q-10 76 -10 150.5t5 150t12.5 150.5t13.5 151q12 135 44 271t60 271q8 41 17.5 79t17.5 79q2 6 6 25.5t5 36t-3 21.5t-18 -15q-47 -66 -81 -143.5t-69 -151.5zM600 1567q10 -2 4 -1t-4 1zM569 1540q-16 16 -17 23.5t6 9.5
t19.5 -1t22.5 -5q35 -6 59.5 -18.5t49.5 -35.5q12 -12 18 -27.5t4 -25.5t-13 -13t-32 7q-66 31 -117 86z" />
    <glyph glyph-name="Uacute" unicode="&#xda;" horiz-adv-x="1073" 
d="M829 1016q-72 -154 -117.5 -311.5t-97.5 -317.5q-23 -74 -48 -153.5t-58 -156.5t-74 -147.5t-94 -128.5q-29 -31 -63.5 -47t-68.5 -14t-64.5 22.5t-49.5 63.5q-35 82 -38 181t-3 190q-4 338 62 669q16 80 34.5 160t34.5 160q6 31 17.5 68.5t1.5 68.5q-4 16 6 26.5
t27.5 15.5t35 6t27.5 1q37 2 56.5 -22.5t28.5 -60.5t10 -72.5t1 -61.5q0 -86 -16.5 -167t-38.5 -163q-41 -160 -85 -315.5t-56 -321.5q-6 -72 -6 -143.5t24 -138.5q2 -10 8 -24.5t14.5 -26t19.5 -13.5t24 13q27 31 42 69.5t27 75.5q59 158 114.5 315.5t117.5 313.5
q59 150 127.5 295t154.5 284q12 20 27.5 53t35 65t42 56.5t51.5 28.5q35 6 43 -29.5t2 -85t-17.5 -96.5t-13.5 -65q-29 -168 -63.5 -334t-57.5 -334q-10 -80 -19 -162t-10 -163t9 -161.5t35 -158.5q4 -12 8 -24.5t10 -21.5t15.5 -14.5t23.5 0.5q8 4 9 -3t-4 -17t-13 -19.5
t-18 -9.5q-39 -4 -63 21.5t-38 62.5t-20 77t-11 67q-10 76 -10 150.5t5 150t12.5 150.5t13.5 151q12 135 44 271t60 271q8 41 17.5 79t17.5 79q2 6 6 25.5t5 36t-3 21.5t-18 -15q-47 -66 -81 -143.5t-69 -151.5zM584 1473q-2 0 -4 2zM580 1475h-2h2zM639 1548q8 6 24.5 20.5
t35 27t37 20.5t28.5 2q10 -4 3 -18.5t-19.5 -31t-25.5 -30.5t-17 -16q-23 -25 -55 -40.5t-66 -8.5h-4q-2 0 -3.5 1t1.5 1q-14 4 -8.5 15t20 23.5t30 21.5t19.5 13z" />
    <glyph glyph-name="Ucircumflex" unicode="&#xdb;" horiz-adv-x="1073" 
d="M829 1016q-72 -154 -117.5 -311.5t-97.5 -317.5q-23 -74 -48 -153.5t-58 -156.5t-74 -147.5t-94 -128.5q-29 -31 -63.5 -47t-68.5 -14t-64.5 22.5t-49.5 63.5q-35 82 -38 181t-3 190q-4 338 62 669q16 80 34.5 160t34.5 160q6 31 17.5 68.5t1.5 68.5q-4 16 6 26.5
t27.5 15.5t35 6t27.5 1q37 2 56.5 -22.5t28.5 -60.5t10 -72.5t1 -61.5q0 -86 -16.5 -167t-38.5 -163q-41 -160 -85 -315.5t-56 -321.5q-6 -72 -6 -143.5t24 -138.5q2 -10 8 -24.5t14.5 -26t19.5 -13.5t24 13q27 31 42 69.5t27 75.5q59 158 114.5 315.5t117.5 313.5
q59 150 127.5 295t154.5 284q12 20 27.5 53t35 65t42 56.5t51.5 28.5q35 6 43 -29.5t2 -85t-17.5 -96.5t-13.5 -65q-29 -168 -63.5 -334t-57.5 -334q-10 -80 -19 -162t-10 -163t9 -161.5t35 -158.5q4 -12 8 -24.5t10 -21.5t15.5 -14.5t23.5 0.5q8 4 9 -3t-4 -17t-13 -19.5
t-18 -9.5q-39 -4 -63 21.5t-38 62.5t-20 77t-11 67q-10 76 -10 150.5t5 150t12.5 150.5t13.5 151q12 135 44 271t60 271q8 41 17.5 79t17.5 79q2 6 6 25.5t5 36t-3 21.5t-18 -15q-47 -66 -81 -143.5t-69 -151.5zM770 1491q-2 -8 -11 -2t-20.5 18.5t-20.5 24.5t-11 14
q-12 23 -20.5 14.5t-20.5 -24.5q-16 -23 -33 -47.5t-41 -40.5q-18 -14 -39 -1t-6 36q8 14 27.5 46t43 62.5t49 51t48.5 14.5t35 -25.5t17 -44t5 -50.5t-2 -44v-2z" />
    <glyph glyph-name="Udieresis" unicode="&#xdc;" horiz-adv-x="1073" 
d="M829 1016q-72 -154 -117.5 -311.5t-97.5 -317.5q-23 -74 -48 -153.5t-58 -156.5t-74 -147.5t-94 -128.5q-29 -31 -63.5 -47t-68.5 -14t-64.5 22.5t-49.5 63.5q-35 82 -38 181t-3 190q-4 338 62 669q16 80 34.5 160t34.5 160q6 31 17.5 68.5t1.5 68.5q-4 16 6 26.5
t27.5 15.5t35 6t27.5 1q37 2 56.5 -22.5t28.5 -60.5t10 -72.5t1 -61.5q0 -86 -16.5 -167t-38.5 -163q-41 -160 -85 -315.5t-56 -321.5q-6 -72 -6 -143.5t24 -138.5q2 -10 8 -24.5t14.5 -26t19.5 -13.5t24 13q27 31 42 69.5t27 75.5q59 158 114.5 315.5t117.5 313.5
q59 150 127.5 295t154.5 284q12 20 27.5 53t35 65t42 56.5t51.5 28.5q35 6 43 -29.5t2 -85t-17.5 -96.5t-13.5 -65q-29 -168 -63.5 -334t-57.5 -334q-10 -80 -19 -162t-10 -163t9 -161.5t35 -158.5q4 -12 8 -24.5t10 -21.5t15.5 -14.5t23.5 0.5q8 4 9 -3t-4 -17t-13 -19.5
t-18 -9.5q-39 -4 -63 21.5t-38 62.5t-20 77t-11 67q-10 76 -10 150.5t5 150t12.5 150.5t13.5 151q12 135 44 271t60 271q8 41 17.5 79t17.5 79q2 6 6 25.5t5 36t-3 21.5t-18 -15q-47 -66 -81 -143.5t-69 -151.5zM692 1487q6 25 20.5 36t30 8t28.5 -16.5t17 -37.5q0 2 -1 -1
t1 1q-6 -16 -24.5 -24.5t-35.5 -8.5t-29.5 10t-6.5 33zM563 1450q-4 0 -14 1t-19.5 4t-14.5 8t-1 16q18 39 61 55q12 4 18.5 -2t9.5 -17.5t4 -22.5t-1 -17q-4 -16 -17.5 -20.5t-25.5 -4.5z" />
    <glyph glyph-name="Yacute" unicode="&#xdd;" horiz-adv-x="1136" 
d="M883 705l-9.5 -38t-16.5 -70t-19.5 -86t-18.5 -84t-14 -63.5t-4 -25.5q10 -2 33.5 18.5t49 47t48 52t31.5 33.5q6 6 22 24.5t39 42.5t47.5 48.5t46 44t39 29.5t23.5 6q12 -10 -5.5 -42t-52.5 -76t-80 -93t-86 -93t-73.5 -77t-40.5 -43q-47 -53 -97.5 -100t-85.5 -113
q-29 -51 -53 -103.5t-51 -105.5q-35 -66 -69.5 -124t-82.5 -115q-10 -12 -33.5 -44t-51 -62t-55 -49t-48.5 -9q-37 16 -43 50t7.5 76t40 88t56 88t56 73.5t39.5 48.5q45 59 94 113.5t100 107.5q53 53 75 126t46 144q49 141 82 288.5t49 297.5q4 41 8 80t9 80q2 20 -7.5 18
t-20.5 -12t-21.5 -23.5t-12.5 -15.5q-41 -61 -75.5 -131t-69.5 -135q-63 -127 -131 -253t-156 -239q-18 -23 -41 -44t-50.5 -35.5t-57 -18.5t-60.5 8t-48 41t-25.5 64.5t-10.5 71.5t-2 63q-8 154 14.5 307t81.5 295q4 8 10.5 27.5t15.5 39t19.5 35t22.5 17.5q41 4 62.5 -0.5
t27.5 -49.5q10 -74 -8.5 -145.5t-30.5 -144.5q-16 -86 -35.5 -171t-36.5 -171q-2 -10 -5 -52.5t-2 -86.5t10.5 -72.5t31.5 -8.5q27 20 47.5 54t38 71t31.5 74t31 66q37 74 73.5 148.5t73.5 148.5t77 149.5t93 140.5q12 14 37 43t52.5 53.5t57 38t54.5 -0.5q31 -18 44 -50
t16 -69t-1 -74t-10 -68zM514 -84v0v10q-6 4 -33.5 -24.5t-60.5 -67.5t-61.5 -73.5t-34.5 -43.5q-20 -29 -40 -56.5t-36 -59.5q0 -2 -5 -15.5t-8.5 -28t-3.5 -23.5t11 -5q27 12 50 34.5t43.5 50.5t38 56.5t34.5 53.5q29 47 55 95t51 97zM459 1303q-2 0 -4 2zM455 1305h-2h2z
M514 1378q8 6 24.5 20.5t35 27t37 20.5t28.5 2q10 -4 3 -18.5t-19.5 -31t-25.5 -30.5t-17 -16q-23 -25 -54.5 -40.5t-66.5 -8.5h-4q-2 0 -3 1t1 1q-14 4 -8 15t20 23.5t29.5 21.5t19.5 13z" />
    <glyph glyph-name="germandbls" unicode="&#xdf;" horiz-adv-x="688" 
d="M391 1071q-33 -23 -59.5 -46.5t-48.5 -53.5q-53 -66 -84 -139.5t-50.5 -151.5t-32 -158t-26.5 -160q-14 -84 -36.5 -167.5t-49.5 -163.5q-10 -37 -22.5 -63.5t-53.5 -37.5q-20 -4 -29.5 6.5t-12.5 28t-1 38t2 34.5v2q2 154 32 309.5t87 301t145.5 274.5t210.5 231
q20 18 51 30.5t63 14.5t58.5 -11t38.5 -48q10 -29 1 -64t-27.5 -69.5t-41 -66.5t-34.5 -56q-35 -59 -80 -118.5t-67 -123.5q-6 -18 1 -30.5t21 -22.5t29.5 -17.5t27.5 -15.5q35 -23 67 -45.5t60 -50.5q33 -35 32 -79t-24.5 -87t-61.5 -80t-80 -57.5t-82 -21.5t-66 30
q-18 18 -36.5 35.5t-16.5 48.5q0 6 8 5t19 -4t22.5 -6t15.5 -3q27 0 58.5 11t59.5 30.5t47 45t21 56.5q2 27 -12 49.5t-35.5 41t-46 33.5t-43.5 28q-29 18 -55.5 44.5t-41.5 59.5t-12 67.5t33 69.5q53 59 98.5 128t86.5 134q57 88 -27 31z" />
    <glyph glyph-name="agrave" unicode="&#xe0;" horiz-adv-x="464" 
d="M72 338v6v-6zM18 367q-18 -12 -38.5 -15.5t-37 2.5t-27.5 21.5t-11 40.5q2 43 22.5 87t40.5 81q29 53 62.5 71.5t95.5 1.5q16 -4 22.5 17.5t11.5 47.5t12 46t28 14q51 -16 65.5 -57t1.5 -90q-12 -53 -31.5 -101.5t-35.5 -99.5q-2 -8 -8.5 -36.5t-10.5 -61.5t-3 -59.5
t16 -28.5q8 -2 22 15.5t27.5 42t26 47t16.5 30.5q29 47 61.5 94t67.5 92q2 4 17 22.5t33.5 37t36 30t23.5 -1.5q0 2 -14 -16t-30.5 -40.5t-31 -43t-16.5 -25.5q-23 -41 -45 -79.5t-45 -77.5q-25 -43 -45.5 -88t-50.5 -84q-10 -12 -27.5 -30.5t-38 -32t-41 -15.5t-35.5 20
q-27 39 -28.5 92.5t-3.5 100.5v-8v3v7v4q0 8 2 20.5t2 24.5t-1 21.5t-5 9.5q-10 0 -26 -22.5t-26 -30.5zM90 627q-14 -2 -36.5 -33t-41 -69t-28 -70.5t3.5 -38.5v0q27 23 45 57.5t35 63.5q2 4 12 19t18 31.5t8 29t-16 10.5zM137 969q10 -2 4 -1t-4 1zM106 942
q-16 16 -17 23.5t6 9.5t19.5 -1t22.5 -5q35 -6 59.5 -18.5t49.5 -35.5q12 -12 18 -27.5t4 -25.5t-13 -13t-32 7q-66 31 -117 86z" />
    <glyph glyph-name="aacute" unicode="&#xe1;" horiz-adv-x="464" 
d="M72 338v6v-6zM18 367q-18 -12 -38.5 -15.5t-37 2.5t-27.5 21.5t-11 40.5q2 43 22.5 87t40.5 81q29 53 62.5 71.5t95.5 1.5q16 -4 22.5 17.5t11.5 47.5t12 46t28 14q51 -16 65.5 -57t1.5 -90q-12 -53 -31.5 -101.5t-35.5 -99.5q-2 -8 -8.5 -36.5t-10.5 -61.5t-3 -59.5
t16 -28.5q8 -2 22 15.5t27.5 42t26 47t16.5 30.5q29 47 61.5 94t67.5 92q2 4 17 22.5t33.5 37t36 30t23.5 -1.5q0 2 -14 -16t-30.5 -40.5t-31 -43t-16.5 -25.5q-23 -41 -45 -79.5t-45 -77.5q-25 -43 -45.5 -88t-50.5 -84q-10 -12 -27.5 -30.5t-38 -32t-41 -15.5t-35.5 20
q-27 39 -28.5 92.5t-3.5 100.5v-8v3v7v4q0 8 2 20.5t2 24.5t-1 21.5t-5 9.5q-10 0 -26 -22.5t-26 -30.5zM90 627q-14 -2 -36.5 -33t-41 -69t-28 -70.5t3.5 -38.5v0q27 23 45 57.5t35 63.5q2 4 12 19t18 31.5t8 29t-16 10.5zM49 811q-2 0 -4 2zM45 813h-2h2zM104 887
q8 6 24.5 20.5t35 26.5t37 20.5t28.5 1.5q10 -4 3 -18t-19 -30.5t-25.5 -31t-17.5 -16.5q-23 -25 -54.5 -40t-66.5 -9h-4q-2 0 -3 1t1 1q-14 4 -8 15.5t20.5 23.5t29.5 21.5t19 13.5z" />
    <glyph glyph-name="acircumflex" unicode="&#xe2;" horiz-adv-x="464" 
d="M72 338v6v-6zM18 367q-18 -12 -38.5 -15.5t-37 2.5t-27.5 21.5t-11 40.5q2 43 22.5 87t40.5 81q29 53 62.5 71.5t95.5 1.5q16 -4 22.5 17.5t11.5 47.5t12 46t28 14q51 -16 65.5 -57t1.5 -90q-12 -53 -31.5 -101.5t-35.5 -99.5q-2 -8 -8.5 -36.5t-10.5 -61.5t-3 -59.5
t16 -28.5q8 -2 22 15.5t27.5 42t26 47t16.5 30.5q29 47 61.5 94t67.5 92q2 4 17 22.5t33.5 37t36 30t23.5 -1.5q0 2 -14 -16t-30.5 -40.5t-31 -43t-16.5 -25.5q-23 -41 -45 -79.5t-45 -77.5q-25 -43 -45.5 -88t-50.5 -84q-10 -12 -27.5 -30.5t-38 -32t-41 -15.5t-35.5 20
q-27 39 -28.5 92.5t-3.5 100.5v-8v3v7v4q0 8 2 20.5t2 24.5t-1 21.5t-5 9.5q-10 0 -26 -22.5t-26 -30.5zM90 627q-14 -2 -36.5 -33t-41 -69t-28 -70.5t3.5 -38.5v0q27 23 45 57.5t35 63.5q2 4 12 19t18 31.5t8 29t-16 10.5zM285 883q-2 -8 -11.5 -2t-20.5 18t-20.5 24.5
t-11.5 14.5q-12 23 -20 14.5t-21 -24.5q-16 -23 -32.5 -47.5t-41.5 -40.5q-18 -14 -38.5 -1t-6.5 35q8 14 28 46t43.5 63t49 51.5t47.5 14.5q23 -6 35 -25.5t17.5 -44.5t5.5 -50.5t-2 -43.5v-2z" />
    <glyph glyph-name="atilde" unicode="&#xe3;" horiz-adv-x="464" 
d="M72 338v6v-6zM18 367q-18 -12 -38.5 -15.5t-37 2.5t-27.5 21.5t-11 40.5q2 43 22.5 87t40.5 81q29 53 62.5 71.5t95.5 1.5q16 -4 22.5 17.5t11.5 47.5t12 46t28 14q51 -16 65.5 -57t1.5 -90q-12 -53 -31.5 -101.5t-35.5 -99.5q-2 -8 -8.5 -36.5t-10.5 -61.5t-3 -59.5
t16 -28.5q8 -2 22 15.5t27.5 42t26 47t16.5 30.5q29 47 61.5 94t67.5 92q2 4 17 22.5t33.5 37t36 30t23.5 -1.5q0 2 -14 -16t-30.5 -40.5t-31 -43t-16.5 -25.5q-23 -41 -45 -79.5t-45 -77.5q-25 -43 -45.5 -88t-50.5 -84q-10 -12 -27.5 -30.5t-38 -32t-41 -15.5t-35.5 20
q-27 39 -28.5 92.5t-3.5 100.5v-8v3v7v4q0 8 2 20.5t2 24.5t-1 21.5t-5 9.5q-10 0 -26 -22.5t-26 -30.5zM90 627q-14 -2 -36.5 -33t-41 -69t-28 -70.5t3.5 -38.5v0q27 23 45 57.5t35 63.5q2 4 12 19t18 31.5t8 29t-16 10.5zM35 844q-8 18 6 33.5t35.5 28t44 18.5t35.5 4
q16 -4 23 -15.5t14 -23.5q4 -10 12 -5t16 13t16.5 14.5t14.5 -0.5q12 -14 8 -31.5t-14 -31.5q-18 -23 -38 -17.5t-40 19.5q-18 12 -29.5 21.5t-32.5 -9.5q-4 -4 -14 -10t-21.5 -11t-21.5 -6t-14 9zM156 928h2h-2zM156 928q-12 2 -8 1t8 -1z" />
    <glyph glyph-name="adieresis" unicode="&#xe4;" horiz-adv-x="464" 
d="M72 338v6v-6zM18 367q-18 -12 -38.5 -15.5t-37 2.5t-27.5 21.5t-11 40.5q2 43 22.5 87t40.5 81q29 53 62.5 71.5t95.5 1.5q16 -4 22.5 17.5t11.5 47.5t12 46t28 14q51 -16 65.5 -57t1.5 -90q-12 -53 -31.5 -101.5t-35.5 -99.5q-2 -8 -8.5 -36.5t-10.5 -61.5t-3 -59.5
t16 -28.5q8 -2 22 15.5t27.5 42t26 47t16.5 30.5q29 47 61.5 94t67.5 92q2 4 17 22.5t33.5 37t36 30t23.5 -1.5q0 2 -14 -16t-30.5 -40.5t-31 -43t-16.5 -25.5q-23 -41 -45 -79.5t-45 -77.5q-25 -43 -45.5 -88t-50.5 -84q-10 -12 -27.5 -30.5t-38 -32t-41 -15.5t-35.5 20
q-27 39 -28.5 92.5t-3.5 100.5v-8v3v7v4q0 8 2 20.5t2 24.5t-1 21.5t-5 9.5q-10 0 -26 -22.5t-26 -30.5zM90 627q-14 -2 -36.5 -33t-41 -69t-28 -70.5t3.5 -38.5v0q27 23 45 57.5t35 63.5q2 4 12 19t18 31.5t8 29t-16 10.5zM190 879q6 25 20.5 36t30 8t29 -16.5t17.5 -38.5
q0 2 -1 -1t1 1q-6 -16 -24.5 -24t-36 -8t-30 10t-6.5 33zM61 842q-4 0 -14 1t-19.5 4t-14.5 8t-1 15q18 39 62 56q12 4 18 -2t9 -17.5t4 -23t-1 -17.5q-4 -16 -17.5 -20t-25.5 -4z" />
    <glyph glyph-name="aring" unicode="&#xe5;" horiz-adv-x="464" 
d="M72 338v6v-6zM18 367q-18 -12 -38.5 -15.5t-37 2.5t-27.5 21.5t-11 40.5q2 43 22.5 87t40.5 81q29 53 62.5 71.5t95.5 1.5q16 -4 22.5 17.5t11.5 47.5t12 46t28 14q51 -16 65.5 -57t1.5 -90q-12 -53 -31.5 -101.5t-35.5 -99.5q-2 -8 -8.5 -36.5t-10.5 -61.5t-3 -59.5
t16 -28.5q8 -2 22 15.5t27.5 42t26 47t16.5 30.5q29 47 61.5 94t67.5 92q2 4 17 22.5t33.5 37t36 30t23.5 -1.5q0 2 -14 -16t-30.5 -40.5t-31 -43t-16.5 -25.5q-23 -41 -45 -79.5t-45 -77.5q-25 -43 -45.5 -88t-50.5 -84q-10 -12 -27.5 -30.5t-38 -32t-41 -15.5t-35.5 20
q-27 39 -28.5 92.5t-3.5 100.5v-8v3v7v4q0 8 2 20.5t2 24.5t-1 21.5t-5 9.5q-10 0 -26 -22.5t-26 -30.5zM90 627q-14 -2 -36.5 -33t-41 -69t-28 -70.5t3.5 -38.5v0q27 23 45 57.5t35 63.5q2 4 12 19t18 31.5t8 29t-16 10.5zM264 928v-6v6zM264 928q2 -43 -19.5 -68.5
t-49 -29t-53 16t-27.5 64.5q-2 33 9 64t48 35q47 4 67.5 -18.5t24.5 -63.5zM199 928l-6 6q-14 -10 -5 -25q4 -8 5.5 2.5t5.5 16.5zM264 915v7v-7zM262 930l2 -2z" />
    <glyph glyph-name="ae" unicode="&#xe6;" horiz-adv-x="759" 
d="M117 713q29 6 54.5 0t51.5 -2q23 2 36 31.5t27.5 61.5t33 52.5t49.5 3.5q12 -6 19 -19.5t22 -17.5q18 -2 26 -24q8 -23 -2 -60q23 23 49 23q51 -2 68.5 -19.5t17.5 -44t-13 -58.5t-24 -62q-10 -27 -36.5 -52.5t-49.5 -38.5q-18 -8 -29 -12t-18.5 -10t-9.5 -18.5t-2 -34.5
q2 -47 19.5 -59.5t40 -5.5t48 25.5t46.5 37.5q57 49 112.5 102t110.5 104q8 8 16 9q6 -12 -4 -31t-25.5 -38t-30.5 -35.5t-24 -24.5q-25 -29 -52.5 -56.5t-55.5 -56.5q-20 -18 -51 -42t-66 -38t-68.5 -13t-58.5 34q-2 0 -2 2q-10 -72 -19.5 -152t13.5 -149q2 -6 9 -16.5
t15.5 -21t12.5 -19.5t2 -11q-20 -20 -45 -18t-41 24q-23 29 -26 80t-3 86v162q0 68 10.5 142.5t1.5 139.5q-10 0 -20 -16t-19.5 -37.5t-17.5 -42t-12 -26.5q-16 -31 -32.5 -62t-33.5 -61q-12 -25 -27.5 -50.5t-35 -46t-45 -33t-56.5 -10.5q-53 4 -75.5 32t-24.5 70t11.5 91
t34 95t44 86t39.5 61q23 29 50.5 55.5t64.5 34.5zM203 645q6 14 -4.5 14t-23.5 -6t-26.5 -14t-15.5 -10q-18 -20 -32.5 -44t-24.5 -50q-25 -53 -37 -119q-6 -31 -3 -38t12 0t21.5 22.5t20.5 31.5q29 53 59.5 105.5t53.5 107.5zM399 543q-4 -18 7.5 -15.5t24.5 13t26.5 24
l15.5 15.5q20 25 37.5 55.5t13.5 64.5q-2 20 -10 23.5t-18.5 -2.5t-20.5 -16.5t-14 -16.5q-50 -67 -62 -145zM346 358q0 4 1 8.5t1 8.5q-2 -7 -2 -17zM276 578h-2h2z" />
    <glyph glyph-name="ccedilla" unicode="&#xe7;" horiz-adv-x="352" 
d="M156 711q2 -2 6 -2h2q-6 0 -8 2zM63 219q-33 -4 -55 11.5t-36.5 39t-21.5 52t-9 53.5q-4 59 14 119.5t47 111.5q14 25 29.5 47.5t38.5 42.5t41 19.5t45 -4.5h-4l12 -2q39 -4 62.5 -16.5t0.5 -57.5q-6 -14 -15 -15.5t-18.5 3t-18.5 8.5t-17 2q-20 -4 -34.5 -29.5
t-25.5 -40.5q-14 -25 -27.5 -54.5t-19.5 -61t-5 -63.5t13 -60q23 -51 74 -33q2 2 13.5 9t22.5 15.5t20.5 14.5t11.5 4q6 -4 -1 -16.5t-18.5 -28t-23 -27.5t-15.5 -16q-10 -16 -37 -20.5t-43 -6.5zM86 129v2v-2zM170 -57q39 -25 25.5 -57.5t-50 -58.5t-82 -38t-69.5 4
q-12 8 -6 21.5t21.5 27t32.5 24.5t24 15q10 6 24 15.5t19 19.5q2 4 -8.5 7t-22.5 5t-24.5 4t-14.5 5q-41 23 -48 64.5t9 80.5q14 39 43 74q14 16 27.5 2.5t15.5 -27.5v-2q-4 -35 -19.5 -67.5t-21.5 -67.5q-2 -10 15.5 -17.5t39 -13.5t43 -11t27.5 -9z" />
    <glyph glyph-name="egrave" unicode="&#xe8;" horiz-adv-x="415" 
d="M244 383q-20 -18 -51 -42t-66 -38t-68.5 -13t-58.5 34q-20 27 -27.5 57.5t-6.5 61t9.5 61.5t18.5 61q6 18 20.5 52t33 66t42 55.5t49.5 23.5q51 -2 68.5 -19.5t17.5 -44t-13 -58.5t-24 -62q-10 -27 -36.5 -52.5t-49.5 -38.5q-18 -8 -29.5 -12t-18.5 -10t-9 -18.5
t-2 -34.5q2 -47 19.5 -59.5t40 -5.5t48 25.5t46.5 37.5q57 49 112.5 102t110.5 104l-3 -3l-5 -5t-1 0t9 8q8 8 16 9q6 -12 -4 -31t-25.5 -38t-31 -35.5t-23.5 -24.5q-25 -29 -52 -56.5t-56 -56.5zM55 543q-4 -18 7.5 -15.5t24.5 13t26.5 24l15.5 15.5q20 25 37.5 55.5
t13.5 64.5q-2 20 -10 23.5t-18.5 -2.5t-20.5 -16.5t-14 -16.5q-49 -68 -62 -145l1 6q1 6 2 10t0 2t-3 -18zM92 944q10 -2 4 -1t-4 1zM61 918q-16 16 -17 23t6 9t19.5 -1t22.5 -5q35 -6 59.5 -18.5t49.5 -34.5q12 -12 18 -27.5t4 -26t-13 -13.5t-32 7q-66 32 -117 87z" />
    <glyph glyph-name="eacute" unicode="&#xe9;" horiz-adv-x="415" 
d="M244 383q-20 -18 -51 -42t-66 -38t-68.5 -13t-58.5 34q-20 27 -27.5 57.5t-6.5 61t9.5 61.5t18.5 61q6 18 20.5 52t33 66t42 55.5t49.5 23.5q51 -2 68.5 -19.5t17.5 -44t-13 -58.5t-24 -62q-10 -27 -36.5 -52.5t-49.5 -38.5q-18 -8 -29.5 -12t-18.5 -10t-9 -18.5
t-2 -34.5q2 -47 19.5 -59.5t40 -5.5t48 25.5t46.5 37.5q57 49 112.5 102t110.5 104l-3 -3l-5 -5t-1 0t9 8q8 8 16 9q6 -12 -4 -31t-25.5 -38t-31 -35.5t-23.5 -24.5q-25 -29 -52 -56.5t-56 -56.5zM55 543q-4 -18 7.5 -15.5t24.5 13t26.5 24l15.5 15.5q20 25 37.5 55.5
t13.5 64.5q-2 20 -10 23.5t-18.5 -2.5t-20.5 -16.5t-14 -16.5q-49 -68 -62 -145l1 6q1 6 2 10t0 2t-3 -18zM61 805q-2 0 -4 2zM57 807h-2h2zM117 881q8 6 24.5 20t35 26.5t36.5 20.5t29 2q10 -4 3 -18t-19.5 -30.5t-26 -31t-17.5 -16.5q-23 -25 -54.5 -40t-66.5 -9h-4
q-2 0 -3 1t1 1q-14 4 -8 15.5t20.5 23.5t30 21.5t19.5 13.5z" />
    <glyph glyph-name="ecircumflex" unicode="&#xea;" horiz-adv-x="415" 
d="M244 383q-20 -18 -51 -42t-66 -38t-68.5 -13t-58.5 34q-20 27 -27.5 57.5t-6.5 61t9.5 61.5t18.5 61q6 18 20.5 52t33 66t42 55.5t49.5 23.5q51 -2 68.5 -19.5t17.5 -44t-13 -58.5t-24 -62q-10 -27 -36.5 -52.5t-49.5 -38.5q-18 -8 -29.5 -12t-18.5 -10t-9 -18.5
t-2 -34.5q2 -47 19.5 -59.5t40 -5.5t48 25.5t46.5 37.5q57 49 112.5 102t110.5 104l-3 -3l-5 -5t-1 0t9 8q8 8 16 9q6 -12 -4 -31t-25.5 -38t-31 -35.5t-23.5 -24.5q-25 -29 -52 -56.5t-56 -56.5zM55 543q-4 -18 7.5 -15.5t24.5 13t26.5 24l15.5 15.5q20 25 37.5 55.5
t13.5 64.5q-2 20 -10 23.5t-18.5 -2.5t-20.5 -16.5t-14 -16.5q-49 -68 -62 -145l1 6q1 6 2 10t0 2t-3 -18zM240 842q-2 -8 -11.5 -2t-20.5 18t-20.5 24.5t-11.5 14.5q-12 23 -20.5 14.5t-20.5 -24.5q-16 -23 -32.5 -47.5t-41.5 -40.5q-18 -14 -38.5 -1t-6.5 36
q8 14 27.5 45.5t43.5 62.5t49.5 51.5t47.5 14.5q23 -6 35 -25.5t17.5 -44.5t5.5 -50.5t-2 -43.5v-2z" />
    <glyph glyph-name="edieresis" unicode="&#xeb;" horiz-adv-x="415" 
d="M244 383q-20 -18 -51 -42t-66 -38t-68.5 -13t-58.5 34q-20 27 -27.5 57.5t-6.5 61t9.5 61.5t18.5 61q6 18 20.5 52t33 66t42 55.5t49.5 23.5q51 -2 68.5 -19.5t17.5 -44t-13 -58.5t-24 -62q-10 -27 -36.5 -52.5t-49.5 -38.5q-18 -8 -29.5 -12t-18.5 -10t-9 -18.5
t-2 -34.5q2 -47 19.5 -59.5t40 -5.5t48 25.5t46.5 37.5q57 49 112.5 102t110.5 104l-3 -3l-5 -5t-1 0t9 8q8 8 16 9q6 -12 -4 -31t-25.5 -38t-31 -35.5t-23.5 -24.5q-25 -29 -52 -56.5t-56 -56.5zM55 543q-4 -18 7.5 -15.5t24.5 13t26.5 24l15.5 15.5q20 25 37.5 55.5
t13.5 64.5q-2 20 -10 23.5t-18.5 -2.5t-20.5 -16.5t-14 -16.5q-49 -68 -62 -145l1 6q1 6 2 10t0 2t-3 -18zM190 862q6 25 20.5 36t30 8t29 -16t17.5 -38q0 2 -1 -1t1 1q-6 -16 -24.5 -24.5t-36 -8.5t-30 10t-6.5 33zM61 825q-4 0 -14 1t-19.5 4.5t-14.5 8.5t-1 15
q18 39 62 55q12 4 18 -2t9 -17t4 -22.5t-1 -17.5q-4 -16 -17.5 -20.5t-25.5 -4.5z" />
    <glyph glyph-name="igrave" unicode="&#xec;" horiz-adv-x="288" 
d="M31 180q-20 -4 -34.5 4.5t-26 23.5t-16.5 33.5t-7 34.5q-10 102 6 194.5t57 186.5q12 27 25.5 29t26 -10t20.5 -30.5t12 -33.5q10 -43 2 -89t-22 -87q-12 -39 -30.5 -89t-2.5 -91q4 -8 17.5 -1t27.5 17.5t26.5 21.5t16.5 13q0 -18 -9 -38.5t-22.5 -39t-31 -33
t-35.5 -16.5zM133 311q0 -4 -1 -4t-1 -2q-4 6 2 6zM20 870q10 -2 4 -1t-4 1zM-10 844q-16 16 -17.5 23t6 9.5t19.5 -1t22 -5.5q35 -6 59.5 -18t49.5 -35q12 -12 18.5 -27.5t4.5 -25.5t-13.5 -13t-32.5 7q-65 31 -116 86z" />
    <glyph glyph-name="iacute" unicode="&#xed;" horiz-adv-x="288" 
d="M31 180q-20 -4 -34.5 4.5t-26 23.5t-16.5 33.5t-7 34.5q-10 102 6 194.5t57 186.5q12 27 25.5 29t26 -10t20.5 -30.5t12 -33.5q10 -43 2 -89t-22 -87q-12 -39 -30.5 -89t-2.5 -91q4 -8 17.5 -1t27.5 17.5t26.5 21.5t16.5 13q0 -18 -9 -38.5t-22.5 -39t-31 -33
t-35.5 -16.5zM133 311q0 -4 -1 -4t-1 -2q-4 6 2 6zM-43 762l-4 2q2 -2 4 -2zM-47 764h-2h2zM12 838q8 6 24.5 20t35 26.5t37 20.5t28.5 2q10 -4 3 -18.5t-19 -30.5t-25.5 -30.5t-17.5 -16.5q-23 -25 -54.5 -40t-66.5 -9h-4q-2 0 -3 1t1 1q-14 4 -8 15.5t20 23.5t29.5 21.5
t19.5 13.5z" />
    <glyph glyph-name="icircumflex" unicode="&#xee;" horiz-adv-x="288" 
d="M31 180q-20 -4 -34.5 4.5t-26 23.5t-16.5 33.5t-7 34.5q-10 102 6 194.5t57 186.5q12 27 25.5 29t26 -10t20.5 -30.5t12 -33.5q10 -43 2 -89t-22 -87q-12 -39 -30.5 -89t-2.5 -91q4 -8 17.5 -1t27.5 17.5t26.5 21.5t16.5 13q0 -18 -9 -38.5t-22.5 -39t-31 -33
t-35.5 -16.5zM133 311q0 -4 -1 -4t-1 -2q-4 6 2 6zM160 795q-2 -8 -11.5 -2t-20.5 18t-20.5 24.5t-11.5 14.5q-12 23 -20 14.5t-21 -24.5q-16 -23 -32.5 -47.5t-40.5 -40.5q-18 -14 -39 -1t-6 35q8 14 27.5 46t43 63t49 51.5t47.5 14.5q23 -6 35.5 -26t17.5 -44.5t5 -50
t-2 -43.5v-2z" />
    <glyph glyph-name="idieresis" unicode="&#xef;" horiz-adv-x="288" 
d="M31 180q-20 -4 -34.5 4.5t-26 23.5t-16.5 33.5t-7 34.5q-10 102 6 194.5t57 186.5q12 27 25.5 29t26 -10t20.5 -30.5t12 -33.5q10 -43 2 -89t-22 -87q-12 -39 -30.5 -89t-2.5 -91q4 -8 17.5 -1t27.5 17.5t26.5 21.5t16.5 13q0 -18 -9 -38.5t-22.5 -39t-31 -33
t-35.5 -16.5zM133 311q0 -4 -1 -4t-1 -2q-4 6 2 6zM106 809q6 25 20.5 36t30 8t29 -16.5t17.5 -37.5q0 2 -1 -1t1 1q-6 -16 -24.5 -24.5t-36 -8.5t-30 10t-6.5 33zM-23 772q-4 0 -14 1t-19.5 4t-14.5 8.5t-1 15.5q18 39 62 55q12 4 18 -2t9 -17.5t4.5 -22.5t-1.5 -17
q-4 -16 -17.5 -20.5t-25.5 -4.5z" />
    <glyph glyph-name="ntilde" unicode="&#xf1;" horiz-adv-x="720" 
d="M264 281v-5v5zM166 455q-8 -14 -22.5 -39t-33 -52.5t-39 -51t-41 -33t-39 1t-32.5 51.5q-16 43 -5 90t21 88q10 39 23.5 83t48.5 71q6 4 20.5 7t28 2t21.5 -7.5t4 -20.5q-2 -8 -12.5 -33.5t-19.5 -53.5t-13 -52.5t6 -30.5q2 -2 15.5 17.5t28.5 45t28.5 49t17.5 27.5
q29 45 65.5 86t65.5 86q12 18 25.5 40t31 37.5t38 22.5t46.5 -1q51 -16 58.5 -58.5t-4.5 -87.5q-33 -111 -60.5 -222t-46.5 -226q-2 -8 -5 -42t-2 -68t9 -55.5t29 -8.5q20 12 36.5 36.5t32 52t27.5 56.5t23 49q53 104 116 195q14 20 27.5 39.5t30.5 40.5q2 2 11 15
t19.5 25.5t19.5 19.5t11 -5q2 -18 -6 -39.5t-20.5 -43t-25.5 -41t-22 -36.5q-25 -47 -49 -95t-47 -97q-16 -37 -39.5 -85t-54.5 -88t-72 -62.5t-94 -8.5q-33 8 -49 36t-23.5 62.5t-8.5 70.5t-1 62q2 61 10.5 123t22.5 123q2 10 13.5 49t22.5 83t17 80t0 40t-21.5 -16.5
t-35 -53t-40 -73.5t-38.5 -78t-31.5 -64.5t-17.5 -33.5zM264 281v47v-47zM264 330v-2v2zM215 973q-8 18 6.5 33.5t36 28t44 18.5t34.5 4q16 -4 23.5 -15.5t13.5 -23.5q4 -10 12 -5t16.5 13t16.5 14.5t14 -0.5q12 -14 8 -31.5t-14 -31.5q-18 -23 -37.5 -17.5t-40.5 19.5
q-18 12 -29.5 21.5t-31.5 -9.5q-4 -4 -14.5 -10t-21.5 -11t-21.5 -6t-14.5 9zM336 1057h2h-2zM336 1057q-12 2 -8 1t8 -1z" />
    <glyph glyph-name="ograve" unicode="&#xf2;" horiz-adv-x="358" 
d="M31 313v4v-4zM115 219q-20 -20 -47 -29.5t-52.5 -6.5t-47 20.5t-29.5 48.5q-16 66 -11.5 127t23.5 127q10 29 19.5 57.5t21.5 57.5q18 35 29.5 50t52.5 19q6 0 19 -1t24.5 -6t17.5 -12t0 -20q-16 -29 -4 -32t35 2q59 4 125.5 -0.5t122.5 -10.5q-59 -31 -122 -30.5
t-126 -6.5q-16 -2 -19.5 -8t0 -15t9.5 -19.5t10 -16.5q12 -29 20.5 -56.5t12.5 -58.5q4 -51 -22.5 -98t-61.5 -82zM31 313v-16t2 -23.5t7 -16.5t17 7q27 29 48.5 68t17.5 80q0 8 -6 28.5t-15.5 38t-18.5 23.5t-15 -15q-14 -41 -23.5 -84t-13.5 -86v-4zM35 877q10 -2 4 -1
t-4 1v0zM4 850q-16 16 -17 23.5t6 9.5t19.5 -1t22.5 -5q35 -6 59.5 -18.5t48.5 -35.5q12 -12 18.5 -27.5t4.5 -25.5t-13.5 -13t-31.5 7q-66 31 -117 86z" />
    <glyph glyph-name="oacute" unicode="&#xf3;" horiz-adv-x="358" 
d="M31 313v4v-4zM115 219q-20 -20 -47 -29.5t-52.5 -6.5t-47 20.5t-29.5 48.5q-16 66 -11.5 127t23.5 127q10 29 19.5 57.5t21.5 57.5q18 35 29.5 50t52.5 19q6 0 19 -1t24.5 -6t17.5 -12t0 -20q-16 -29 -4 -32t35 2q59 4 125.5 -0.5t122.5 -10.5q-59 -31 -122 -30.5
t-126 -6.5q-16 -2 -19.5 -8t0 -15t9.5 -19.5t10 -16.5q12 -29 20.5 -56.5t12.5 -58.5q4 -51 -22.5 -98t-61.5 -82zM31 313v-16t2 -23.5t7 -16.5t17 7q27 29 48.5 68t17.5 80q0 8 -6 28.5t-15.5 38t-18.5 23.5t-15 -15q-14 -41 -23.5 -84t-13.5 -86v-4zM-8 762l-4 2
q2 -2 4 -2zM-12 764h-2h2zM47 838q8 6 24.5 20t35 26.5t37 20.5t28.5 2q10 -4 3 -18.5t-19.5 -30.5t-25.5 -30.5t-17 -16.5q-23 -25 -54.5 -40t-66.5 -9h-4q-2 0 -3 1t1 1q-14 4 -8 15.5t20 23.5t29.5 21.5t19.5 13.5z" />
    <glyph glyph-name="ocircumflex" unicode="&#xf4;" horiz-adv-x="358" 
d="M31 313v4v-4zM115 219q-20 -20 -47 -29.5t-52.5 -6.5t-47 20.5t-29.5 48.5q-16 66 -11.5 127t23.5 127q10 29 19.5 57.5t21.5 57.5q18 35 29.5 50t52.5 19q6 0 19 -1t24.5 -6t17.5 -12t0 -20q-16 -29 -4 -32t35 2q59 4 125.5 -0.5t122.5 -10.5q-59 -31 -122 -30.5
t-126 -6.5q-16 -2 -19.5 -8t0 -15t9.5 -19.5t10 -16.5q12 -29 20.5 -56.5t12.5 -58.5q4 -51 -22.5 -98t-61.5 -82zM31 313v-16t2 -23.5t7 -16.5t17 7q27 29 48.5 68t17.5 80q0 8 -6 28.5t-15.5 38t-18.5 23.5t-15 -15q-14 -41 -23.5 -84t-13.5 -86v-4zM186 799v-2
q-2 -8 -11 -2t-20.5 18t-20.5 24.5t-11 14.5q-12 23 -20.5 14.5t-20.5 -24.5q-16 -23 -32.5 -47.5t-41.5 -40.5q-18 -14 -38.5 -1t-6.5 35q8 14 27.5 46t43 63t49.5 51.5t48 14.5q23 -6 35 -25.5t17 -44.5t5 -50.5t-2 -43.5z" />
    <glyph glyph-name="otilde" unicode="&#xf5;" horiz-adv-x="358" 
d="M31 313v4v-4zM115 219q-20 -20 -47 -29.5t-52.5 -6.5t-47 20.5t-29.5 48.5q-16 66 -11.5 127t23.5 127q10 29 19.5 57.5t21.5 57.5q18 35 29.5 50t52.5 19q6 0 19 -1t24.5 -6t17.5 -12t0 -20q-16 -29 -4 -32t35 2q59 4 125.5 -0.5t122.5 -10.5q-59 -31 -122 -30.5
t-126 -6.5q-16 -2 -19.5 -8t0 -15t9.5 -19.5t10 -16.5q12 -29 20.5 -56.5t12.5 -58.5q4 -51 -22.5 -98t-61.5 -82zM31 313v-16t2 -23.5t7 -16.5t17 7q27 29 48.5 68t17.5 80q0 8 -6 28.5t-15.5 38t-18.5 23.5t-15 -15q-14 -41 -23.5 -84t-13.5 -86v-4zM-29 758
q-8 18 6.5 33.5t36 27.5t44 18.5t34.5 4.5q16 -4 23.5 -15.5t13.5 -23.5q4 -10 12.5 -5t16.5 13t16 14t14 0q12 -14 8.5 -31.5t-14.5 -31.5q-18 -23 -37.5 -17.5t-40.5 19.5q-18 12 -29.5 21.5t-31.5 -9.5q-4 -4 -14.5 -10t-21.5 -11t-21.5 -6t-14.5 9zM92 842h2h-2zM92 842
q-12 2 -8 1t8 -1z" />
    <glyph glyph-name="odieresis" unicode="&#xf6;" horiz-adv-x="358" 
d="M31 313v4v-4zM115 219q-20 -20 -47 -29.5t-52.5 -6.5t-47 20.5t-29.5 48.5q-16 66 -11.5 127t23.5 127q10 29 19.5 57.5t21.5 57.5q18 35 29.5 50t52.5 19q6 0 19 -1t24.5 -6t17.5 -12t0 -20q-16 -29 -4 -32t35 2q59 4 125.5 -0.5t122.5 -10.5q-59 -31 -122 -30.5
t-126 -6.5q-16 -2 -19.5 -8t0 -15t9.5 -19.5t10 -16.5q12 -29 20.5 -56.5t12.5 -58.5q4 -51 -22.5 -98t-61.5 -82zM31 313v-16t2 -23.5t7 -16.5t17 7q27 29 48.5 68t17.5 80q0 8 -6 28.5t-15.5 38t-18.5 23.5t-15 -15q-14 -41 -23.5 -84t-13.5 -86v-4zM123 791q6 25 20.5 36
t29.5 7.5t28.5 -16.5t17.5 -38q0 2 -1 -1t1 1q-6 -16 -24.5 -24t-36 -8t-29.5 10t-6 33zM-6 754q-4 0 -14.5 1t-19.5 4t-14 8t-1 15q18 39 61 56q12 4 18.5 -2.5t9.5 -17.5t4 -22.5t-1 -17.5q-4 -16 -17.5 -20t-25.5 -4z" />
    <glyph glyph-name="oslash" unicode="&#xf8;" horiz-adv-x="358" 
d="M186 698q8 10 13.5 9.5t8.5 -8t4 -16.5t1 -15q-2 -12 -4 -23.5t-6 -21.5q53 2 108.5 -3.5t102.5 -9.5q-53 -29 -109.5 -29.5t-116.5 -5.5q-4 -16 -10 -30.5t-12 -30.5q12 -29 20.5 -56.5t12.5 -58.5q4 -51 -22.5 -98t-61.5 -82q-18 -18 -43 -27.5t-47 -9.5
q-8 -23 -17 -37q-10 -16 -16 -13t-9 14.5t-4.5 26.5t1.5 24q-29 16 -41 55q-16 66 -11.5 127t23.5 127q10 29 19.5 57.5t21.5 57.5q18 35 29.5 50t52.5 19q6 0 19 -1t24.5 -6t17.5 -12t0 -20q-10 -20 -7 -26.5t13 -6.5l4 7q10 18 19.5 37.5t21.5 35.5zM123 412q-2 0 -2 2v4
q-6 -14 -12.5 -26.5t-10.5 -26.5q-14 -29 -27.5 -54.5t-23.5 -52.5q4 0 10 6q27 29 48.5 68t17.5 80zM68 487q-10 -27 -17.5 -54t-13.5 -56l41 96l12 25q-14 14 -22 -11z" />
    <glyph glyph-name="ugrave" unicode="&#xf9;" horiz-adv-x="544" 
d="M39 211q-49 -2 -66.5 38t-17.5 94t12.5 109.5t20.5 84.5q4 16 10 42.5t15.5 55.5t20.5 52.5t25 33.5q18 12 32.5 7t24 -18.5t12.5 -32t-1 -32.5q-14 -55 -32.5 -108.5t-28.5 -108.5q-4 -16 -7.5 -43t-3.5 -45t8.5 -20.5t28.5 32.5q29 47 55.5 95.5t57.5 95.5
q2 6 18.5 25.5t36 36t35.5 21.5t22 -20q2 -12 2 -39.5t3.5 -57.5t11.5 -51.5t28 -21.5q14 0 31 15.5t33 35t29.5 39t23.5 29.5q16 18 33.5 36.5t34.5 35.5q16 20 19 5.5t-5 -24.5q-10 -14 -30.5 -42.5t-46 -60.5t-53.5 -60.5t-55.5 -42t-52 -5t-40.5 51.5q-4 8 -6.5 27.5
t-4.5 36.5t-6 25.5t-10 -6.5q-23 -47 -48.5 -93t-49.5 -93q-10 -18 -20.5 -40.5t-25 -43t-31.5 -36t-42 -15.5zM168 879q10 -2 4 -1t-4 1zM137 852q-16 16 -17 23.5t6 9.5t19.5 -1t22.5 -5q35 -6 59.5 -18.5t48.5 -35.5q12 -12 18.5 -27.5t4.5 -25.5t-13.5 -13t-31.5 7
q-66 31 -117 86z" />
    <glyph glyph-name="uacute" unicode="&#xfa;" horiz-adv-x="544" 
d="M39 211q-49 -2 -66.5 38t-17.5 94t12.5 109.5t20.5 84.5q4 16 10 42.5t15.5 55.5t20.5 52.5t25 33.5q18 12 32.5 7t24 -18.5t12.5 -32t-1 -32.5q-14 -55 -32.5 -108.5t-28.5 -108.5q-4 -16 -7.5 -43t-3.5 -45t8.5 -20.5t28.5 32.5q29 47 55.5 95.5t57.5 95.5
q2 6 18.5 25.5t36 36t35.5 21.5t22 -20q2 -12 2 -39.5t3.5 -57.5t11.5 -51.5t28 -21.5q14 0 31 15.5t33 35t29.5 39t23.5 29.5q16 18 33.5 36.5t34.5 35.5q16 20 19 5.5t-5 -24.5q-10 -14 -30.5 -42.5t-46 -60.5t-53.5 -60.5t-55.5 -42t-52 -5t-40.5 51.5q-4 8 -6.5 27.5
t-4.5 36.5t-6 25.5t-10 -6.5q-23 -47 -48.5 -93t-49.5 -93q-10 -18 -20.5 -40.5t-25 -43t-31.5 -36t-42 -15.5zM129 805q-2 0 -4 2zM125 807h-2h2zM184 881q8 6 24.5 20t35 26.5t37 20.5t28.5 2q10 -4 3 -18t-19 -30.5t-25.5 -31t-17.5 -16.5q-23 -25 -54.5 -40t-66.5 -9h-4
q-2 0 -3 1t1 1q-14 4 -8 15.5t20.5 23.5t29.5 21.5t19 13.5z" />
    <glyph glyph-name="ucircumflex" unicode="&#xfb;" horiz-adv-x="544" 
d="M39 211q-49 -2 -66.5 38t-17.5 94t12.5 109.5t20.5 84.5q4 16 10 42.5t15.5 55.5t20.5 52.5t25 33.5q18 12 32.5 7t24 -18.5t12.5 -32t-1 -32.5q-14 -55 -32.5 -108.5t-28.5 -108.5q-4 -16 -7.5 -43t-3.5 -45t8.5 -20.5t28.5 32.5q29 47 55.5 95.5t57.5 95.5
q2 6 18.5 25.5t36 36t35.5 21.5t22 -20q2 -12 2 -39.5t3.5 -57.5t11.5 -51.5t28 -21.5q14 0 31 15.5t33 35t29.5 39t23.5 29.5q16 18 33.5 36.5t34.5 35.5q16 20 19 5.5t-5 -24.5q-10 -14 -30.5 -42.5t-46 -60.5t-53.5 -60.5t-55.5 -42t-52 -5t-40.5 51.5q-4 8 -6.5 27.5
t-4.5 36.5t-6 25.5t-10 -6.5q-23 -47 -48.5 -93t-49.5 -93q-10 -18 -20.5 -40.5t-25 -43t-31.5 -36t-42 -15.5zM326 838q-2 -8 -11.5 -2t-20.5 18t-20.5 24.5t-11.5 14.5q-12 23 -20.5 14.5t-20.5 -24.5q-16 -23 -32.5 -47.5t-41.5 -40.5q-18 -14 -38.5 -1t-6.5 35
q8 14 28 46t43.5 63t49 51.5t47.5 14.5q23 -6 35 -26t17.5 -44.5t5.5 -50t-2 -43.5v-2z" />
    <glyph glyph-name="udieresis" unicode="&#xfc;" horiz-adv-x="544" 
d="M39 211q-49 -2 -66.5 38t-17.5 94t12.5 109.5t20.5 84.5q4 16 10 42.5t15.5 55.5t20.5 52.5t25 33.5q18 12 32.5 7t24 -18.5t12.5 -32t-1 -32.5q-14 -55 -32.5 -108.5t-28.5 -108.5q-4 -16 -7.5 -43t-3.5 -45t8.5 -20.5t28.5 32.5q29 47 55.5 95.5t57.5 95.5
q2 6 18.5 25.5t36 36t35.5 21.5t22 -20q2 -12 2 -39.5t3.5 -57.5t11.5 -51.5t28 -21.5q14 0 31 15.5t33 35t29.5 39t23.5 29.5q16 18 33.5 36.5t34.5 35.5q16 20 19 5.5t-5 -24.5q-10 -14 -30.5 -42.5t-46 -60.5t-53.5 -60.5t-55.5 -42t-52 -5t-40.5 51.5q-4 8 -6.5 27.5
t-4.5 36.5t-6 25.5t-10 -6.5q-23 -47 -48.5 -93t-49.5 -93q-10 -18 -20.5 -40.5t-25 -43t-31.5 -36t-42 -15.5zM256 850q6 25 20.5 36t30 8t28.5 -16.5t17 -37.5q0 2 -1 -1t1 1q-6 -16 -24.5 -24.5t-36 -8.5t-29.5 10t-6 33zM127 813q-4 0 -14.5 1t-19.5 4t-14 8t-1 16
q18 39 61 55q12 4 18.5 -2t9.5 -17.5t4 -22.5t-1 -17q-4 -16 -17.5 -20.5t-25.5 -4.5z" />
    <glyph glyph-name="yacute" unicode="&#xfd;" horiz-adv-x="911" 
d="M113 -555q-70 -25 -121 -9.5t-82 57.5t-38 101.5t11 120.5q47 154 139.5 282t206.5 239q53 53 113.5 100t130.5 82q35 18 73 29.5t72 27.5q16 6 22.5 25.5t6.5 41t-3 44t-5 35.5q-4 27 -13.5 65.5t-25.5 67t-43 40t-65 -13.5q-63 -41 -113.5 -104.5t-91.5 -124.5
q-49 -70 -93 -144.5t-98 -140.5q-29 -35 -58.5 -42t-56 5.5t-43 42t-16.5 68.5q-2 68 18.5 137.5t47.5 130.5q8 23 20 51.5t33 42.5q12 8 28.5 6.5t30 -10t20.5 -22.5t5 -31q-12 -66 -35.5 -129t-38.5 -129q-2 -6 -4 -20.5t-1 -25.5t6 -13t20 16q29 37 55.5 74t52.5 76
q29 45 72 113.5t97 130t116.5 97t130.5 15.5q27 -8 47.5 -27.5t33.5 -44t21.5 -52.5t12.5 -54q4 -27 6 -53.5t2 -55.5q0 -25 3 -39t11 -21t22.5 -10.5t39.5 -9.5q20 -6 47.5 -21.5t41 -29.5t6.5 -21.5t-52 5.5q-10 2 -28.5 7t-37 6t-35 -3t-20.5 -16q-14 -33 -15.5 -74
t-7.5 -76q-31 -143 -94 -280.5t-147 -258.5q-29 -43 -68 -85t-83 -78.5t-92 -65.5t-97 -47zM-70 -375q-4 -27 -3 -18.5t3 18.5q-8 -78 30 -122t120 -19q70 23 133 71t111 103q106 129 178.5 272.5t103.5 309.5q6 35 15.5 70.5t13.5 72.5q2 23 -11.5 27t-32 -2.5t-37.5 -15.5
t-28 -13q-76 -33 -145.5 -80t-130.5 -102q-57 -53 -111.5 -119t-97.5 -139.5t-72.5 -153.5t-38.5 -160q2 8 2 10t-2 -10zM193 877q-2 0 -5 2q4 -2 5 -2v0zM188 879h-2h2zM248 952q8 6 24.5 20.5t35 27t36.5 20.5t29 2q10 -4 3 -18.5t-19.5 -31t-26 -30.5t-17.5 -16
q-23 -25 -54.5 -40.5t-65.5 -8.5h-5q-2 0 -3 1t1 1q-14 4 -8 15t20.5 23.5t30 21.5t19.5 13z" />
    <glyph glyph-name="ydieresis" unicode="&#xff;" horiz-adv-x="911" 
d="M113 -555q-70 -25 -121 -9.5t-82 57.5t-38 101.5t11 120.5q47 154 139.5 282t206.5 239q53 53 113.5 100t130.5 82q35 18 73 29.5t72 27.5q16 6 22.5 25.5t6.5 41t-3 44t-5 35.5q-4 27 -13.5 65.5t-25.5 67t-43 40t-65 -13.5q-63 -41 -113.5 -104.5t-91.5 -124.5
q-49 -70 -93 -144.5t-98 -140.5q-29 -35 -58.5 -42t-56 5.5t-43 42t-16.5 68.5q-2 68 18.5 137.5t47.5 130.5q8 23 20 51.5t33 42.5q12 8 28.5 6.5t30 -10t20.5 -22.5t5 -31q-12 -66 -35.5 -129t-38.5 -129q-2 -6 -4 -20.5t-1 -25.5t6 -13t20 16q29 37 55.5 74t52.5 76
q29 45 72 113.5t97 130t116.5 97t130.5 15.5q27 -8 47.5 -27.5t33.5 -44t21.5 -52.5t12.5 -54q4 -27 6 -53.5t2 -55.5q0 -25 3 -39t11 -21t22.5 -10.5t39.5 -9.5q20 -6 47.5 -21.5t41 -29.5t6.5 -21.5t-52 5.5q-10 2 -28.5 7t-37 6t-35 -3t-20.5 -16q-14 -33 -15.5 -74
t-7.5 -76q-31 -143 -94 -280.5t-147 -258.5q-29 -43 -68 -85t-83 -78.5t-92 -65.5t-97 -47zM-70 -375q-4 -27 -3 -18.5t3 18.5q-8 -78 30 -122t120 -19q70 23 133 71t111 103q106 129 178.5 272.5t103.5 309.5q6 35 15.5 70.5t13.5 72.5q2 23 -11.5 27t-32 -2.5t-37.5 -15.5
t-28 -13q-76 -33 -145.5 -80t-130.5 -102q-57 -53 -111.5 -119t-97.5 -139.5t-72.5 -153.5t-38.5 -160q2 8 2 10t-2 -10zM309 952q6 25 20.5 36t30 8t28.5 -16t18 -38q0 2 -1.5 -1t1.5 1q-6 -16 -25 -24.5t-36 -8.5t-29.5 10t-6.5 33zM180 915q-4 0 -14 1.5t-19.5 4.5
t-14.5 8t-1 15q18 39 62 55q12 4 18 -2t9 -17t4 -22.5t-1 -17.5q-4 -16 -17.5 -20.5t-25.5 -4.5z" />
    <glyph glyph-name="OE" unicode="&#x152;" horiz-adv-x="2185" 
d="M440 -14l-12 59q-4 12 -20 12q-57 -4 -112.5 2.5t-107.5 34.5q-41 25 -70.5 76t-33.5 98l-8 86q-12 147 27.5 292t101.5 276q47 100 109.5 190t140.5 166q68 66 146.5 117t166.5 82q43 14 90 25t96.5 14.5t96.5 -3t88 -26.5q102 -47 163.5 -140.5t88.5 -199.5
q131 154 288 264q29 20 63 46t70.5 44.5t74.5 22.5t73 -17q33 -20 59.5 -44.5t40 -54.5t10 -63.5t-25.5 -72.5q-39 -66 -92.5 -116t-93.5 -114q-6 -10 -14.5 -12t-16.5 2t-15.5 11.5t-11.5 13.5q-8 14 -1 30.5t11 28.5q16 37 33 73t33 71q4 8 19.5 41.5t26.5 68.5t11 59.5
t-28 14.5q-61 -23 -116.5 -58.5t-102.5 -76.5q-74 -66 -145 -147t-130 -167q2 -10 2 -20v-21v-59l8 6q33 18 65 35.5t64 34.5q35 16 79 35.5t85 9.5q43 -10 46 -42t-17.5 -74t-56 -89t-72.5 -89t-69 -75t-40 -43q-98 -123 -171.5 -272.5t-102.5 -308.5q-4 -27 -8 -60
t-4 -66.5t6 -65.5t24 -56q18 -25 44 -31t52.5 -2t53 17.5t45.5 29.5q61 49 120.5 99.5t110.5 109.5q45 53 83 113.5t77 119.5q41 66 83 127.5t93 118.5q8 10 37 39t61.5 56.5t64.5 42t48 -4.5q2 -2 -14.5 -16t-36 -31.5t-38.5 -34t-24 -20.5q-29 -35 -55 -71t-51 -72
q-51 -76 -97 -153t-94 -155q-37 -57 -87 -126.5t-111.5 -129t-133 -99.5t-147.5 -38q-43 0 -74.5 20.5t-54 51.5t-36 69.5t-19.5 75.5q-6 35 -7 69t3 68v-2q-37 -55 -82 -112.5t-99.5 -102.5t-119 -71.5t-137.5 -22.5q-86 6 -149.5 52t-92.5 130zM1288 735q-41 2 -59.5 23.5
t-23.5 52.5t3.5 63.5t22.5 57.5q20 33 42.5 64.5t45.5 64.5q-2 20 -4 38.5t-6 39.5q-8 41 -19.5 86t-30 87t-45 77.5t-65.5 60.5q-41 23 -96.5 38t-102.5 11q-82 -6 -157.5 -39t-143 -82t-127 -109.5t-108.5 -119.5q-61 -76 -121 -157t-103 -169q-41 -80 -55 -169t-18 -179
q-2 -31 1 -61.5t7 -61.5q6 -31 14 -53q6 -20 15.5 -39.5t19.5 -38.5q8 -16 18.5 -28.5t22.5 -24.5q25 -25 53.5 -37t61.5 -16q16 -4 30.5 -3t30.5 3q16 4 23 10q8 8 8 14q2 2 2 6q-6 84 0 175.5t25.5 180.5t54.5 173t86 153q20 27 41 45q14 10 30.5 20.5t34.5 14.5
q29 4 36 -16.5t13 -42.5q4 -8 5 -29q0 -12 -2 -18q-10 -35 -23.5 -71t-26.5 -71q-12 -31 -21 -62.5t-24 -61.5q-8 -14 -10 -29l-25 -76l-22 -70q-6 -18 -9 -38.5t-9 -38.5q-4 -16 -6.5 -33t-2.5 -33q0 -8 6 -10q4 -4 11 0l26 16l93 72q41 35 80.5 67.5t80.5 65.5l39 31
q6 2 8 -2t0 -6q-18 -25 -35.5 -49.5t-33.5 -51.5l-4 -8t-6 -8q-10 -12 -20.5 -25.5t-20.5 -27.5q-12 -14 -24.5 -27.5t-27.5 -26.5l-24 -20t-27 -21q-23 -16 -46 -31.5t-46 -31.5l-35 -23q-8 -6 -12 -22q-4 -41 2 -79t16 -79q10 -55 56.5 -98t105.5 -41q55 0 101.5 27.5
t80.5 66.5q160 172 265.5 395.5t136.5 464.5h-27zM1407 766q-6 -66 -18 -127l43 55q8 10 23 26.5t30.5 33t28 34t14.5 31.5q-8 6 -25.5 0t-36 -17t-35 -21.5t-24.5 -14.5z" />
    <glyph glyph-name="oe" unicode="&#x153;" horiz-adv-x="602" 
d="M78 205q-49 2 -73.5 35.5t-34 82t-7.5 97.5t6 82q6 35 16.5 90t29 107.5t47 92t71.5 46.5q29 4 40 -8.5t13 -34t0 -46t0 -44.5q2 -23 6.5 -43.5t8.5 -40.5q10 23 24.5 48t29.5 45.5t33.5 34t37.5 13.5q51 -2 68.5 -19.5t17.5 -44t-13.5 -58.5t-23.5 -62
q-10 -27 -37 -52.5t-49 -38.5q-18 -8 -29.5 -12t-19 -10t-9.5 -18.5t-2 -34.5q2 -47 19.5 -59.5t40 -5.5t48 25.5t46.5 37.5q57 49 112.5 102t110.5 104q8 8 17 9q6 -12 -4.5 -31t-25.5 -38t-30.5 -35.5t-23.5 -24.5q-25 -29 -52.5 -56.5l-56.5 -56.5q-18 -16 -48 -38.5
t-61.5 -38t-64.5 -17.5t-57 20q-16 -41 -42 -70.5t-69 -33.5h-10zM92 555q-8 -41 -10 -85t2 -85q4 -45 14.5 -55.5t30.5 41.5q16 37 18.5 77.5t2.5 81.5v75t-17 71q-10 -4 -17 -19.5t-11.5 -35t-7.5 -39t-5 -27.5zM242 543q-4 -18 7 -15.5t24.5 13t26.5 24t15 15.5
q20 25 38 55.5t14 64.5q-2 20 -10.5 23.5t-18.5 -2.5t-20.5 -16.5t-14.5 -16.5q-49 -67 -61 -145z" />
    <glyph glyph-name="Ydieresis" unicode="&#x178;" horiz-adv-x="1136" 
d="M883 705l-9.5 -38t-16.5 -70t-19.5 -86t-18.5 -84t-14 -63.5t-4 -25.5q10 -2 33.5 18.5t49 47t48 52t31.5 33.5q6 6 22 24.5t39 42.5t47.5 48.5t46 44t39 29.5t23.5 6q12 -10 -5.5 -42t-52.5 -76t-80 -93t-86 -93t-73.5 -77t-40.5 -43q-47 -53 -97.5 -100t-85.5 -113
q-29 -51 -53 -103.5t-51 -105.5q-35 -66 -69.5 -124t-82.5 -115q-10 -12 -33.5 -44t-51 -62t-55 -49t-48.5 -9q-37 16 -43 50t7.5 76t40 88t56 88t56 73.5t39.5 48.5q45 59 94 113.5t100 107.5q53 53 75 126t46 144q49 141 82 288.5t49 297.5q4 41 8 80t9 80q2 20 -7.5 18
t-20.5 -12t-21.5 -23.5t-12.5 -15.5q-41 -61 -75.5 -131t-69.5 -135q-63 -127 -131 -253t-156 -239q-18 -23 -41 -44t-50.5 -35.5t-57 -18.5t-60.5 8t-48 41t-25.5 64.5t-10.5 71.5t-2 63q-8 154 14.5 307t81.5 295q4 8 10.5 27.5t15.5 39t19.5 35t22.5 17.5q41 4 62.5 -0.5
t27.5 -49.5q10 -74 -8.5 -145.5t-30.5 -144.5q-16 -86 -35.5 -171t-36.5 -171q-2 -10 -5 -52.5t-2 -86.5t10.5 -72.5t31.5 -8.5q27 20 47.5 54t38 71t31.5 74t31 66q37 74 73.5 148.5t73.5 148.5t77 149.5t93 140.5q12 14 37 43t52.5 53.5t57 38t54.5 -0.5q31 -18 44 -50
t16 -69t-1 -74t-10 -68zM514 -84v0v10q-6 4 -33.5 -24.5t-60.5 -67.5t-61.5 -73.5t-34.5 -43.5q-20 -29 -40 -56.5t-36 -59.5q0 -2 -5 -15.5t-8.5 -28t-3.5 -23.5t11 -5q27 12 50 34.5t43.5 50.5t38 56.5t34.5 53.5q29 47 55 95t51 97zM569 1348q6 25 20.5 36t30 8t29 -16.5
t17.5 -38.5q0 2 -1 -1t1 1q-6 -16 -24.5 -24t-36 -8t-30 10t-6.5 33zM440 1311q-4 0 -14 1t-19.5 4t-14.5 8t-1 15q18 39 62 56q12 4 18 -2.5t9 -17.5t4 -22.5t-1 -17.5q-4 -16 -17.5 -20t-25.5 -4z" />
    <glyph glyph-name="quoteleft" unicode="&#x2018;" horiz-adv-x="186" 
d="M55 985q-18 -10 -21 1t1 28.5t11 34t9 20.5q8 27 14.5 60.5t34.5 44.5q18 6 26.5 -1.5t11.5 -18.5t2 -25.5t-3 -22.5q-8 -33 -30.5 -70t-55.5 -51z" />
    <glyph glyph-name="quoteright" unicode="&#x2019;" horiz-adv-x="186" 
d="M55 985q-18 -10 -21 1t1 28.5t11 34t9 20.5q8 27 14.5 60.5t34.5 44.5q18 6 26.5 -1.5t11.5 -18.5t2 -25.5t-3 -22.5q-8 -33 -30.5 -70t-55.5 -51z" />
    <glyph glyph-name="quotedblleft" unicode="&#x201c;" horiz-adv-x="561" 
d="M213 864q-29 33 -29 88.5t11 94.5q12 41 25 79.5t34 77.5q0 6 12.5 8t27.5 0t27.5 -10t14.5 -24q-25 -66 -45.5 -138.5t-42.5 -140.5q4 -10 -1 -19.5t-11 -13.5q-6 0 -11.5 -2t-11.5 0zM428 1194q-2 -41 -15.5 -80t-23.5 -80l-9 -22.5t-11.5 -23.5t-11.5 -16t-9 -1
q-4 61 14.5 119.5t40.5 107.5q6 10 13.5 7t11.5 -11z" />
    <glyph glyph-name="quotedblright" unicode="&#x201d;" horiz-adv-x="561" 
d="M213 864q-29 33 -29 88.5t11 94.5q12 41 25 79.5t34 77.5q0 6 12.5 8t27.5 0t27.5 -10t14.5 -24q-25 -66 -45.5 -138.5t-42.5 -140.5q4 -10 -1 -19.5t-11 -13.5q-6 0 -11.5 -2t-11.5 0zM428 1194q-2 -41 -15.5 -80t-23.5 -80l-9 -22.5t-11.5 -23.5t-11.5 -16t-9 -1
q-4 61 14.5 119.5t40.5 107.5q6 10 13.5 7t11.5 -11z" />
    <glyph glyph-name="Euro" unicode="&#x20ac;" horiz-adv-x="720" 
d="M473 180q-27 -18 -57.5 -34.5t-62 -23.5t-64.5 -3t-64 22q-57 35 -75.5 96.5t-16.5 124.5q0 14 -10 17.5t-23.5 4.5l-27 2t-19.5 9q-8 10 1 19.5t24.5 16.5t31 13.5t19.5 8.5q12 6 19.5 19t12.5 29.5t7 33t6 28.5q2 6 -11 11.5t-30.5 9.5t-34 7t-20.5 7q-6 4 5 10
t27.5 11.5t32 10.5t17.5 5q47 8 61.5 34.5t34.5 65.5q35 66 81 121t87 115q20 29 51 22.5t62 -10.5q41 -4 63.5 -34.5t26.5 -67.5q10 -78 -16.5 -146.5t-59.5 -138.5q-4 -10 -16.5 -18.5t-25.5 -11.5t-24.5 1t-13.5 21q-8 41 2 83t21 81q8 35 17 70.5t13 72.5q0 12 -10 5
t-24.5 -20.5t-25.5 -26.5t-13 -15q-23 -29 -44.5 -57.5t-37.5 -61.5q-25 -45 -11.5 -53.5t58.5 -14.5q25 -4 27.5 -17t-25.5 -18q-8 0 -24.5 -5t-32 -11t-29 -15.5t-15.5 -17.5q-2 -4 -8 -18t-11 -29.5t-5 -27t12 -11.5q6 0 27.5 -2t41 -7t27 -12t-13.5 -20
q-12 -6 -29.5 -10l-35 -8t-32 -11.5t-20.5 -19.5q-10 -25 -15 -68.5t-5 -70.5q2 -53 28.5 -59.5t60.5 10t66.5 42t49.5 38.5q8 8 32.5 28.5t53 40t55.5 32.5t39 7q0 -16 -21 -24q-2 -2 -2 -5q0 -2 -2 -2h-2q-18 -23 -33.5 -46t-30 -47.5t-30.5 -46.5t-41 -40zM608 360
q6 0 6 7z" />
  </font>
</defs>
</svg>
